<svg width="24" height="25" viewBox="0 0 24 25" fill="none" xmlns="http://www.w3.org/2000/svg">
<path d="M24 12.1868C24 5.55937 18.6274 0.186792 12 0.186792C5.37258 0.186792 0 5.55937 0 12.1868C0 18.1763 4.38823 23.1408 10.125 24.041V15.6555H7.07813V12.1868H10.125V9.54304C10.125 6.53554 11.9165 4.87429 14.6576 4.87429C15.9705 4.87429 17.3438 5.10867 17.3438 5.10867V8.06179H15.8306C14.3399 8.06179 13.875 8.9868 13.875 9.93579V12.1868H17.2031L16.6711 15.6555H13.875V24.041C19.6118 23.1408 24 18.1763 24 12.1868Z" fill="white"/>
<path d="M16.6711 15.6562L17.2031 12.1875H13.875V9.93649C13.875 8.9875 14.3399 8.0625 15.8306 8.0625H17.3437V5.10937C17.3437 5.10937 15.9705 4.875 14.6576 4.875C11.9165 4.875 10.125 6.53625 10.125 9.54375V12.1875H7.07812V15.6562H10.125V24.0417C10.7359 24.1376 11.3621 24.1875 12 24.1875C12.6379 24.1875 13.2641 24.1376 13.875 24.0417V15.6562H16.6711Z" fill="#546FFF"/>
</svg>
