<svg width="24" height="25" viewBox="0 0 24 25" fill="none" xmlns="http://www.w3.org/2000/svg">
<path d="M23.49 12.4575C23.49 11.6675 23.42 10.9175 23.3 10.1875H12V14.6975H18.47C18.18 16.1775 17.33 17.4275 16.07 18.2775V21.2775H19.93C22.19 19.1875 23.49 16.1075 23.49 12.4575Z" fill="white"/>
<path d="M11.9991 24.1866C15.2391 24.1866 17.9491 23.1066 19.9291 21.2766L16.0691 18.2766C14.9891 18.9966 13.6191 19.4366 11.9991 19.4366C8.86906 19.4366 6.21906 17.3266 5.26906 14.4766H1.28906V17.5666C3.25906 21.4866 7.30906 24.1866 11.9991 24.1866Z" fill="white"/>
<path d="M5.27 14.4766C5.02 13.7566 4.89 12.9866 4.89 12.1866C4.89 11.3866 5.03 10.6166 5.27 9.89664V6.80664H1.29C0.469999 8.42664 0 10.2466 0 12.1866C0 14.1266 0.469999 15.9466 1.29 17.5666L5.27 14.4766Z" fill="white"/>
<path d="M11.9991 4.9375C13.7691 4.9375 15.3491 5.5475 16.5991 6.7375L20.0191 3.3175C17.9491 1.3775 15.2391 0.1875 11.9991 0.1875C7.30906 0.1875 3.25906 2.8875 1.28906 6.8075L5.26906 9.8975C6.21906 7.0475 8.86906 4.9375 11.9991 4.9375Z" fill="white"/>
</svg>
