<svg width="24" height="24" viewBox="0 0 24 24" fill="none" xmlns="http://www.w3.org/2000/svg">
<path d="M13.0727 0.46875H14.5907L15.5824 0.48899L16.392 0.509229L16.817 0.529469C18.0719 0.590188 18.922 0.792584 19.6506 1.07594C20.4197 1.37953 21.0674 1.78433 21.7353 2.43199C22.3829 3.07966 22.7877 3.74757 23.0913 4.51668C23.3544 5.18459 23.5366 5.93345 23.6176 6.96567L23.6783 8.07885L23.6985 9.13132L23.7188 11.135V14.8996L23.6985 16.0735L23.658 17.045C23.5973 18.2999 23.3949 19.1499 23.1116 19.8988C22.808 20.6679 22.4032 21.3156 21.7555 21.9835C21.1078 22.6312 20.4602 23.0359 19.6708 23.3395C19.0029 23.6027 18.254 23.7848 17.2218 23.8658L15.967 23.9265L14.8538 23.9467L13.0525 23.967H9.28789L8.11399 23.9467L7.14249 23.9063C5.88763 23.8455 5.03756 23.6431 4.30894 23.3598C3.53983 23.0562 2.89216 22.6514 2.22426 22.0037C1.57659 21.3561 1.17179 20.6881 0.868199 19.919C0.605084 19.2511 0.422927 18.5023 0.341969 17.47L0.30149 16.6402L0.28125 15.8306L0.28125 14.7782V12.9161V9.57659L0.30149 8.58484L0.321729 7.77526L0.341969 7.35023C0.402688 6.11561 0.605084 5.26554 0.888439 4.51668C1.19203 3.74757 1.59683 3.0999 2.24449 2.43199C2.89216 1.78433 3.56007 1.37953 4.32918 1.07594C4.99709 0.812824 5.74595 0.630667 6.77817 0.549709L7.608 0.509229L8.41758 0.48899L9.38909 0.46875H10.9071C10.9273 0.46875 13.0727 0.46875 13.0727 0.46875ZM14.5502 2.59391H9.42957L8.53902 2.61415L7.24369 2.65463C6.91985 2.67487 6.59602 2.69511 6.27218 2.73559L6.09003 2.75583C5.96859 2.77607 5.82691 2.79631 5.70547 2.83679L5.5638 2.87727C5.52332 2.89751 5.48284 2.89751 5.44236 2.91775L5.17924 2.9987L5.0578 3.03918C4.51133 3.26182 4.12678 3.5047 3.70175 3.90949C3.29696 4.31428 3.03384 4.71907 2.83144 5.26554L2.77073 5.52866L2.73025 5.6501C2.62905 5.99417 2.52785 6.47992 2.46713 7.14783L2.44689 7.65382L2.40641 8.70628L2.38617 10.5076V14.677L2.40641 15.9723L2.44689 16.9236C2.46713 17.2677 2.48737 17.6117 2.54809 17.9558L2.56833 18.1177C2.56833 18.138 2.56833 18.1784 2.58857 18.1987L2.62905 18.3404L2.66953 18.482C2.66953 18.5023 2.68977 18.5225 2.68977 18.5427L2.73025 18.6642L2.77073 18.7856L2.79096 18.8463L2.87192 19.0892C3.07432 19.6357 3.33744 20.0202 3.74223 20.4453C4.14702 20.8501 4.55181 21.1132 5.09828 21.3156L5.34116 21.3965L5.44236 21.437L5.50308 21.4573L5.62451 21.4977C5.64475 21.4977 5.66499 21.518 5.68523 21.518L5.82691 21.5585L5.96859 21.5989L6.1305 21.6192C6.4341 21.6799 6.79841 21.7204 7.24369 21.7406L8.6807 21.8013L10.5832 21.8216H14.7121L15.7646 21.8013L16.7158 21.7608C17.1611 21.7406 17.5254 21.7001 17.829 21.6394L17.9909 21.6192L18.1326 21.5787L18.2945 21.518L18.3552 21.4977L18.4767 21.4573L18.5981 21.4168L18.6588 21.3965L18.9017 21.3156C19.4482 21.1132 19.8327 20.8501 20.2578 20.4453C20.6626 20.0405 20.9257 19.6357 21.1281 19.0892L21.209 18.8463C21.3305 18.482 21.4519 17.976 21.5126 17.2069L21.5733 15.9723L21.5936 14.7175V12.9161V9.65755L21.5733 8.40269L21.5329 7.45143C21.5126 7.16807 21.4924 6.86448 21.4519 6.58112L21.4317 6.39896C21.4114 6.31801 21.4114 6.23705 21.3912 6.15609L21.3507 6.01441C21.3305 5.97393 21.3305 5.91321 21.3102 5.87273L21.2698 5.7513L21.2495 5.69058L21.1483 5.36674L21.1281 5.30602C20.9054 4.75955 20.6626 4.375 20.2578 3.94997C19.853 3.52494 19.4482 3.28206 18.9017 3.07966L18.7803 3.03918L18.5172 2.95823L18.4564 2.89751L18.2945 2.85703C17.9707 2.77607 17.5659 2.69511 17.0194 2.65463L16.1491 2.61415L15.4407 2.59391H14.5502Z" fill="white"/>
<path d="M11.9995 6.17501C15.3188 6.17501 18.0106 8.86688 18.0106 12.1862C18.0106 15.5055 15.3188 18.1973 11.9995 18.1973C8.68015 18.1973 5.98828 15.5055 5.98828 12.1862C5.98828 8.86688 8.68015 6.17501 11.9995 6.17501ZM11.9995 8.27993C9.83381 8.27993 8.0932 10.0205 8.0932 12.1862C8.0932 14.3518 9.83381 16.0924 11.9995 16.0924C14.1651 16.0924 15.9057 14.3518 15.9057 12.1862C15.9057 10.0205 14.1449 8.27993 11.9995 8.27993ZM19.65 5.93213C19.6703 6.70124 19.0631 7.3489 18.294 7.36914C17.5249 7.38938 16.8772 6.78219 16.857 6.01309C16.857 5.99285 16.857 5.95237 16.857 5.93213C16.8772 5.16302 17.5249 4.53559 18.294 4.57607C19.0428 4.57607 19.6298 5.18326 19.65 5.93213Z" fill="white"/>
</svg>
