<svg width="24" height="20" viewBox="0 0 24 20" fill="none" xmlns="http://www.w3.org/2000/svg">
<path d="M21.3193 5.56277C21.3336 5.76979 21.3336 5.97681 21.3336 6.18573C21.3336 12.5518 16.4966 19.8939 7.65195 19.8939V19.8901C5.03921 19.8939 2.48075 19.144 0.28125 17.7302C0.661163 17.776 1.04298 17.7989 1.42575 17.7998C3.59097 17.8018 5.6943 17.0738 7.39772 15.7335C5.34009 15.6943 3.53574 14.3502 2.90541 12.3878C3.6262 12.527 4.36889 12.4984 5.07634 12.3048C2.83305 11.8506 1.21913 9.87584 1.21913 7.5824C1.21913 7.56142 1.21913 7.54138 1.21913 7.52135C1.88755 7.89437 2.63595 8.10139 3.40149 8.12428C1.28864 6.70949 0.637359 3.89325 1.91326 1.69139C4.3546 4.70129 7.95664 6.53109 11.8234 6.72475C11.4358 5.05142 11.9652 3.29795 13.2145 2.12165C15.1512 0.297585 18.1972 0.391078 20.0177 2.33058C21.0946 2.11784 22.1267 1.72192 23.0713 1.16096C22.7123 2.2762 21.9611 3.22353 20.9575 3.82551C21.9106 3.71294 22.8418 3.45727 23.7188 3.06708C23.0732 4.03635 22.26 4.88065 21.3193 5.56277Z" fill="white"/>
</svg>
