<svg width="594" height="431" viewBox="0 0 594 431" fill="none" xmlns="http://www.w3.org/2000/svg">
<g clip-path="url(#clip0_157_85)">
<mask id="mask0_157_85" style="mask-type:luminance" maskUnits="userSpaceOnUse" x="0" y="0" width="594" height="431">
<path d="M594 0H0V430.543H594V0Z" fill="white"/>
</mask>
<g mask="url(#mask0_157_85)">
<path d="M443.602 286.222L396.392 279.931L396.761 284.623L356.398 290.001C356.398 290.001 330.379 355.316 353.31 498.961H386.144L397.961 353.306H402.158L413.603 498.961H446.437C469.367 355.316 443.602 286.222 443.602 286.222Z" fill="#8E716C"/>
<path d="M382.949 353.306H417.206" stroke="#282828" stroke-width="1.23331" stroke-linecap="round" stroke-linejoin="round"/>
<path d="M471.172 217.319C467.132 210.869 444.445 211.097 443.247 210.956C437.115 210.237 447.181 259.073 459.94 301.762C460.514 303.694 461.49 305.483 462.802 307.012C464.115 308.541 465.735 309.776 467.557 310.636C469.379 311.496 471.361 311.962 473.375 312.003C475.389 312.044 477.39 311.66 479.245 310.875L479.5 310.767C482.517 309.49 485.006 307.218 486.553 304.329C488.1 301.44 488.613 298.108 488.005 294.887C481.936 262.675 475.843 224.778 471.172 217.319Z" fill="#FFB1A5"/>
<path d="M476.58 234.979L447.613 246.226L444.896 232.473L474.892 224.987L476.58 234.979Z" fill="#F3978E"/>
<path d="M482.05 262.491C482.05 262.491 468.327 280.931 468.982 280.083C469.636 279.235 479.743 250.283 479.743 250.283L482.05 262.491Z" fill="#F3978E"/>
<path d="M501.67 237.704L462.337 288.698C461.116 290.282 460.236 292.101 459.752 294.041C459.269 295.982 459.193 298.001 459.529 299.973C459.865 301.944 460.605 303.825 461.704 305.495C462.803 307.166 464.235 308.59 465.912 309.679C467.585 310.767 469.466 311.495 471.435 311.82C473.404 312.145 475.419 312.058 477.353 311.565C479.287 311.073 481.098 310.185 482.672 308.959C484.247 307.732 485.551 306.192 486.501 304.437L519.241 243.994L501.67 237.704Z" fill="#FFB1A5"/>
<path d="M511.85 250.8C508.797 249.813 506.104 247.942 504.113 245.423C502.123 242.905 500.923 239.853 500.665 236.652C500.408 233.451 501.105 230.246 502.669 227.442C504.232 224.638 506.591 222.36 509.448 220.898C512.305 219.435 515.531 218.853 518.718 219.225C521.905 219.597 524.911 220.907 527.355 222.988C529.798 225.069 531.57 227.829 532.447 230.918C533.323 234.007 533.264 237.286 532.278 240.342C531.623 242.371 530.575 244.25 529.194 245.874C527.813 247.497 526.125 248.833 524.229 249.804C522.332 250.775 520.262 251.363 518.138 251.534C516.015 251.705 513.878 251.455 511.85 250.8Z" fill="#FFB1A5"/>
<path d="M528.668 225.592C528.668 225.592 533.109 220.979 525.232 217.746C517.355 214.513 507.616 215.254 501.399 230.36L528.668 225.592Z" fill="#FFB1A5"/>
<path d="M536.828 193.365L553.298 200.51C553.516 200.61 553.71 200.755 553.868 200.935C554.026 201.115 554.144 201.327 554.215 201.557C554.285 201.786 554.306 202.028 554.276 202.266C554.247 202.504 554.167 202.733 554.042 202.938L532.377 243.432C532.144 243.884 531.753 244.234 531.278 244.417C530.804 244.599 530.279 244.6 529.804 244.421L513.334 237.276C513.116 237.176 512.922 237.031 512.764 236.851C512.605 236.671 512.487 236.459 512.417 236.229C512.347 236 512.326 235.758 512.355 235.52C512.385 235.282 512.465 235.053 512.589 234.848L534.255 194.354C534.488 193.902 534.879 193.552 535.354 193.369C535.828 193.187 536.353 193.186 536.828 193.365Z" fill="#372F5F"/>
<path d="M535.255 192.648L551.725 199.793C551.943 199.893 552.137 200.038 552.295 200.218C552.454 200.398 552.572 200.61 552.642 200.84C552.712 201.069 552.733 201.311 552.704 201.549C552.674 201.787 552.594 202.016 552.47 202.221L530.804 242.715C530.571 243.167 530.18 243.517 529.705 243.7C529.231 243.882 528.706 243.883 528.231 243.704L511.761 236.559C511.543 236.459 511.349 236.314 511.191 236.134C511.033 235.954 510.915 235.742 510.844 235.513C510.774 235.283 510.753 235.042 510.783 234.803C510.812 234.565 510.892 234.336 511.017 234.131L532.683 193.637C532.916 193.185 533.306 192.835 533.781 192.652C534.255 192.47 534.78 192.469 535.255 192.648Z" fill="#261B43"/>
<path d="M533.398 196.769L547.868 203.047L530.211 236.049L515.74 229.771L533.398 196.769Z" fill="#E6E6E6"/>
<path d="M547.868 203.047L515.74 229.771L533.398 196.769L547.868 203.047Z" fill="white"/>
<path d="M520.503 216.401C522.94 216.929 525.289 217.802 527.48 218.992C528.191 219.39 528.752 220.01 529.077 220.758C529.402 221.505 529.474 222.338 529.28 223.13C529.1 223.855 528.705 224.508 528.147 225.004C527.589 225.5 526.894 225.816 526.153 225.909L517.591 226.99C517.591 226.99 513.124 234.694 507.287 235.559L512.642 222.032L520.503 216.401Z" fill="#FFB1A5"/>
<path d="M411.157 153.104C410.212 153.098 471.875 161.641 482.05 231.988L450.053 236.893L443.602 290.001H354.339L336.618 191.879C336.618 191.879 356.394 163.518 393.114 153.104H411.157Z" fill="#A5A6F6"/>
<path d="M450.053 236.893L452.831 206.178" stroke="#282828" stroke-width="1.23331" stroke-linecap="round" stroke-linejoin="round"/>
<path d="M417.017 154.11V129.675H388.401V154.397C385.764 155.244 383.194 156.287 380.713 157.516L403.032 170.82L425.85 157.515C423.063 156.009 420.094 154.864 417.017 154.11Z" fill="#FFB1A5"/>
<path d="M388.136 132.66C388.136 132.66 393.276 146.315 406.995 145.136C419.604 144.053 417.598 125.129 417.598 125.129L388.136 132.66Z" fill="#282828"/>
<path d="M375.655 114.5C371.17 118.57 361.14 103.129 365.474 98.7942C369.808 94.4591 373.114 101.26 373.114 101.26L375.049 105.869L376.509 112.112L376.856 113.747L375.655 114.5Z" fill="#F3978E"/>
<path d="M367.569 104.264C367.569 104.264 370.964 102.736 373.98 107.661" stroke="#282828" stroke-width="0.99284" stroke-linecap="round" stroke-linejoin="round"/>
<path d="M428.7 114.031C432.825 118.467 444.124 103.93 440.172 99.2436C436.22 94.5574 432.351 101.055 432.351 101.055L430.033 105.483L428.051 111.58L427.567 113.18L428.7 114.031Z" fill="#F3978E"/>
<path d="M437.623 104.516C437.623 104.516 434.369 102.706 430.947 107.358" stroke="#282828" stroke-width="0.99284" stroke-linecap="round" stroke-linejoin="round"/>
<path d="M367.788 84.0644C367.788 104.505 383.362 114.197 402.574 114.197C421.786 114.197 437.361 104.505 437.361 84.0644C437.361 63.624 421.786 49.7185 402.574 49.7185C383.362 49.7185 367.788 63.624 367.788 84.0644Z" fill="#282828"/>
<path d="M372.517 85.4864C372.532 95.9401 373.72 106.359 376.057 116.548C377.789 124.072 382.661 129.33 389.548 133.562L390.802 134.333C394.427 136.532 398.575 137.717 402.814 137.764C407.053 137.811 411.226 136.719 414.899 134.6C422.36 130.248 427.584 124.51 429.191 116.436C431.057 106.217 432.142 95.8704 432.435 85.4864C432.435 85.4864 435.217 53.8096 402.903 54.4251C370.589 55.0405 372.517 85.4864 372.517 85.4864Z" fill="#FFB1A5"/>
<path d="M400.515 103.564V107.947C400.514 108.199 400.562 108.449 400.656 108.684C400.849 109.114 401.191 109.46 401.618 109.658C402.046 109.856 402.53 109.892 402.983 109.761L404.992 109.227" stroke="#282828" stroke-width="1.23163" stroke-linecap="round" stroke-linejoin="round"/>
<path d="M395.377 86.5657L379.317 90.3321C379.317 90.3321 380.047 86.2424 386.617 84.7564C393.187 83.2701 395.377 86.5657 395.377 86.5657Z" fill="#282828"/>
<path d="M409.63 86.5657L425.137 90.3321C425.137 90.3321 424.432 86.2424 418.088 84.7564C411.745 83.2701 409.63 86.5657 409.63 86.5657Z" fill="#282828"/>
<path d="M389.275 101.073C390.771 101.073 391.984 99.8626 391.984 98.3699C391.984 96.8772 390.771 95.6672 389.275 95.6672C387.78 95.6672 386.567 96.8772 386.567 98.3699C386.567 99.8626 387.78 101.073 389.275 101.073Z" fill="#282828"/>
<path d="M417.66 98.3699C417.661 98.9063 417.504 99.431 417.207 99.8776C416.91 100.324 416.488 100.673 415.993 100.879C415.498 101.085 414.953 101.14 414.427 101.036C413.901 100.933 413.418 100.675 413.039 100.296C412.659 99.9177 412.4 99.4348 412.295 98.9089C412.19 98.383 412.243 97.8377 412.448 97.342C412.653 96.8464 413 96.4227 413.446 96.1245C413.891 95.8264 414.415 95.6673 414.951 95.6672C415.306 95.6667 415.658 95.7363 415.986 95.8718C416.315 96.0074 416.613 96.2063 416.865 96.4573C417.116 96.7083 417.316 97.0063 417.452 97.3345C417.589 97.6627 417.659 98.0145 417.66 98.3699Z" fill="#282828"/>
<path d="M391.984 114.863H412.869C412.869 114.863 403.613 126.131 391.984 114.863Z" fill="white"/>
<path d="M396.279 107.569C400.777 103.068 400.777 95.7717 396.279 91.2713C391.782 86.7708 384.49 86.7708 379.992 91.2713C375.494 95.7717 375.494 103.068 379.992 107.569C384.49 112.069 391.782 112.069 396.279 107.569Z" stroke="#546FFF" stroke-width="1.3423" stroke-miterlimit="10"/>
<path d="M424.572 107.569C429.07 103.068 429.07 95.7717 424.572 91.2713C420.075 86.7708 412.783 86.7708 408.285 91.2713C403.787 95.7717 403.787 103.068 408.285 107.569C412.783 112.069 420.075 112.069 424.572 107.569Z" stroke="#546FFF" stroke-width="1.3423" stroke-miterlimit="10"/>
<path d="M399.653 99.4201C399.653 99.4201 402.381 96.8727 404.912 99.4201" stroke="#546FFF" stroke-width="1.3423" stroke-miterlimit="10"/>
<path d="M376.619 99.4201L372.991 99.3281" stroke="#546FFF" stroke-width="1.3423" stroke-miterlimit="10"/>
<path d="M427.946 99.4201L431.595 99.3281" stroke="#546FFF" stroke-width="1.3423" stroke-miterlimit="10"/>
<path d="M432.02 95.9879C432.02 95.9879 419.1 78.5112 422.08 60.8061C425.213 62.6568 427.912 65.1579 429.997 68.1407C432.082 71.1236 433.504 74.5189 434.167 78.098C436.664 90.561 432.02 95.9879 432.02 95.9879Z" fill="#282828"/>
<path d="M372.494 97.1721C372.494 97.1721 387.503 77.3226 384.522 59.6176C377.95 63.83 373.31 70.4738 371.616 78.0979C369.118 90.561 372.494 97.1721 372.494 97.1721Z" fill="#282828"/>
<path d="M430.935 67.7793C430.935 67.7793 414.346 85.9514 368.958 82.8409C368.958 82.8409 375.909 56.1743 397.905 53.3343C397.905 53.3343 423.302 50.2997 430.935 67.7793Z" fill="#282828"/>
<path d="M451.165 49.9908C453.072 38.1678 445.04 27.0363 433.224 25.1279C421.408 23.2195 410.284 31.2569 408.377 43.0799C406.469 54.9029 414.502 66.0344 426.317 67.9428C438.133 69.8512 449.258 61.8138 451.165 49.9908Z" fill="#282828"/>
<path d="M165.224 286.172L124.861 280.794L125.23 276.103L78.0204 282.393C78.0204 282.393 52.2545 351.487 75.185 495.132H108.019L119.464 349.477H123.661L135.478 495.132H168.312C191.243 351.487 165.224 286.172 165.224 286.172Z" fill="#282828"/>
<path d="M162.005 89.6632C155.983 82.4394 151.384 74.1394 148.45 65.2025C144.459 53.9013 131.392 58.495 131.392 58.495C131.392 58.495 120.503 44.4786 104.118 49.3602C87.7328 54.2419 82.0395 65.9093 81.7055 79.7804C81.3715 93.6514 70.468 95.821 62.0717 111.867C47.2489 140.196 72.2045 164.057 117.633 157.438L117.694 156.997C123.109 158.493 128.745 159.019 134.343 158.552C188.916 155.31 183.65 115.144 162.005 89.6632Z" fill="#282828"/>
<path d="M144.138 110.671C148.623 114.742 158.653 99.3007 154.319 94.9657C149.985 90.6307 146.679 97.4318 146.679 97.4318L144.744 102.041L143.284 108.284L142.937 109.918L144.138 110.671Z" fill="#F3978E"/>
<path d="M152.225 100.435C152.225 100.435 148.829 98.907 145.813 103.832" stroke="#282828" stroke-width="0.99284" stroke-linecap="round" stroke-linejoin="round"/>
<path d="M91.0931 110.203C86.9676 114.638 75.6689 100.101 79.621 95.4152C83.5731 90.7289 87.4421 97.2259 87.4421 97.2259L89.7597 101.655L91.742 107.752L92.226 109.351L91.0931 110.203Z" fill="#F3978E"/>
<path d="M82.1704 100.688C82.1704 100.688 85.4241 98.8778 88.8459 103.53" stroke="#282828" stroke-width="0.99284" stroke-linecap="round" stroke-linejoin="round"/>
<path d="M152.005 80.2358C152.005 100.676 136.43 110.368 117.218 110.368C98.0065 110.368 82.4321 100.676 82.4321 80.2358C82.4321 59.7956 98.0065 45.89 117.218 45.89C136.43 45.89 152.005 59.7956 152.005 80.2358Z" fill="#282828"/>
<path d="M131.392 125.846H102.775V162.925H131.392V125.846Z" fill="#FFB1A5"/>
<path d="M98.5996 123.534C98.5996 123.534 106.565 139.442 116.365 141.925C118.999 142.555 121.76 142.395 124.304 141.466C127.992 140.158 132.67 134.655 133.465 128.566L133.833 125.088C133.833 125.088 116.395 134.589 98.5996 123.534Z" fill="#282828"/>
<path d="M147.277 81.6578C147.261 92.1115 146.074 102.53 143.737 112.719C142.005 120.243 137.132 125.501 130.246 129.734L128.992 130.505C125.367 132.704 121.219 133.889 116.98 133.936C112.741 133.983 108.567 132.89 104.895 130.772C97.4334 126.419 92.2095 120.681 90.602 112.607C88.736 102.388 87.6517 92.0418 87.3584 81.6578C87.3584 81.6578 84.5765 49.981 116.89 50.5965C149.204 51.212 147.277 81.6578 147.277 81.6578Z" fill="#FFB1A5"/>
<path d="M115.06 101.451V104.054C115.057 104.354 115.125 104.649 115.259 104.917C115.393 105.184 115.589 105.416 115.83 105.592C116.071 105.769 116.351 105.886 116.646 105.933C116.942 105.98 117.244 105.956 117.528 105.863L119.537 105.331" stroke="#282828" stroke-width="1.22976" stroke-linecap="round" stroke-linejoin="round"/>
<path d="M121.792 84.2795L138.984 88.3508C138.984 88.3508 138.203 83.93 131.17 82.3236C124.137 80.7171 121.792 84.2795 121.792 84.2795Z" fill="#282828"/>
<path d="M112.766 84.2795L95.3535 88.3509C95.3535 88.3509 96.145 83.9301 103.268 82.3237C110.392 80.7172 112.766 84.2795 112.766 84.2795Z" fill="#282828"/>
<path d="M106.529 94.9569C106.532 95.4935 106.376 96.019 106.08 96.4668C105.784 96.9145 105.362 97.2643 104.868 97.4719C104.373 97.6794 103.828 97.7353 103.302 97.6325C102.775 97.5297 102.291 97.2729 101.911 96.8945C101.53 96.5161 101.271 96.0332 101.165 95.507C101.059 94.9809 101.112 94.4352 101.316 93.9391C101.521 93.4429 101.868 93.0187 102.314 92.7203C102.76 92.4218 103.284 92.2624 103.82 92.2624C104.537 92.2604 105.224 92.5431 105.732 93.0484C106.24 93.5537 106.527 94.2402 106.529 94.9569Z" fill="#282828"/>
<path d="M132.205 94.9569C132.208 95.4935 132.052 96.019 131.756 96.4668C131.46 96.9145 131.039 97.2643 130.544 97.4719C130.049 97.6794 129.504 97.7353 128.978 97.6325C128.451 97.5297 127.967 97.2729 127.587 96.8945C127.207 96.5161 126.947 96.0332 126.841 95.507C126.736 94.9809 126.788 94.4352 126.993 93.9391C127.197 93.4429 127.544 93.0187 127.99 92.7203C128.436 92.4218 128.96 92.2624 129.497 92.2624C130.213 92.2604 130.9 92.5431 131.408 93.0484C131.916 93.5537 132.203 94.2402 132.205 94.9569Z" fill="#282828"/>
<path d="M104.74 110.368H128.51C128.51 110.368 126.833 116.904 116.054 116.904C113.751 116.952 111.48 116.369 109.485 115.217C107.49 114.065 105.849 112.388 104.74 110.368Z" fill="white"/>
<path d="M87.7734 92.1594C87.7734 92.1594 100.693 74.6826 97.713 56.9774C94.5806 58.8282 91.8809 61.3293 89.796 64.3121C87.7111 67.295 86.2893 70.6903 85.6263 74.2693C83.129 86.7324 87.7734 92.1594 87.7734 92.1594Z" fill="#282828"/>
<path d="M147.298 91.5774C147.298 91.5774 132.29 73.4941 135.27 55.789C141.843 60.0014 146.483 66.6452 148.177 74.2694C150.675 86.7324 147.298 91.5774 147.298 91.5774Z" fill="#282828"/>
<path d="M88.8574 63.9507C88.8574 63.9507 103.682 83.8888 149.069 80.7783C149.069 80.7783 143.884 52.3457 121.888 49.5056C121.888 49.5056 96.4905 46.4711 88.8574 63.9507Z" fill="#282828"/>
<path d="M47.4836 373.875C46.8239 374.914 85.2603 206.535 73.8491 209.08C72.8078 209.312 52.8219 211.17 49.8514 217.213C41.2409 234.731 35.0654 372.598 35.0654 372.598L47.4836 373.875Z" fill="#FFB1A5"/>
<path d="M35.0654 372.598C35.0654 372.598 28.8702 401.36 52.2902 404.505C53.0407 404.605 53.8029 404.443 54.4482 404.047C55.0934 403.65 55.5822 403.043 55.8322 402.328L55.8997 402.132C56.1619 401.349 56.1201 400.496 55.7825 399.742C55.4449 398.988 54.8362 398.389 54.0773 398.063C50.2592 396.355 44.3365 392.038 47.2751 382.236C47.2751 382.236 50.6603 381.821 52.5284 388.139C52.6389 388.521 52.832 388.875 53.094 389.174C53.3559 389.474 53.6804 389.712 54.0445 389.872C54.4086 390.033 54.8034 390.111 55.201 390.102C55.5987 390.092 55.9895 389.996 56.3458 389.819C56.8483 389.565 57.2595 389.161 57.5226 388.663C57.7857 388.165 57.8877 387.598 57.8145 387.039C57.253 382.613 55.0277 371.961 46.4917 369.102L35.0654 372.598Z" fill="#FFB1A5"/>
<path d="M42.9458 257.67C42.9458 257.67 65.0921 288.878 65.2085 288.274C65.325 287.671 72.9529 244.46 72.9529 244.46L46.0798 232.812L42.9458 257.67Z" fill="#F3978E"/>
<path d="M104.479 156.821C105.424 156.815 49.7472 157.813 39.5718 228.16L71.5689 233.065L78.0202 286.172H167.282L185.004 188.05C185.004 188.05 172.405 166.791 135.685 156.376L104.479 156.821Z" fill="#309C68"/>
<path d="M77.2656 165.325C77.2656 165.325 85.1342 175.777 117.373 175.777C149.313 175.777 157.48 164.777 157.48 164.777C157.48 164.777 138.652 154.251 116.803 150.845C102.989 153.718 89.6693 158.596 77.2656 165.325Z" fill="#FFB1A5"/>
<path d="M186.811 388.18L186.887 528.474H256.248L261.578 388.18H186.811Z" fill="#005683"/>
<path d="M337.409 388.18L337.333 528.474H267.972L262.642 388.18H337.409Z" fill="#005683"/>
<path d="M299.527 388.181H227.812V436.921H299.527V388.181Z" fill="#005683"/>
<path d="M381.227 265.749C385.528 313.288 380.991 347.926 382.246 435.402L340.848 437.137L334.679 273.398L381.227 265.749Z" fill="#FFB1A5"/>
<path d="M339.785 302.846C339.785 302.846 365.422 300.497 382.949 288.929L382.487 278.748L339.771 284.569L339.785 302.846Z" fill="#F3978E"/>
<path d="M298.658 156.297C298.658 156.297 380.086 176.788 394.841 280.209C394.841 280.209 354.987 297.497 315.048 290.061L324.033 255.47L298.658 156.297Z" fill="#546FFF"/>
<path d="M55.4304 199.3L116.06 270.946L97.5065 323.227C97.5065 323.227 51.4249 259.118 30.7183 209.568L55.4304 199.3Z" fill="#FFB1A5"/>
<path d="M57.4233 201.886C57.4233 201.886 36.1335 213.922 30.7183 209.568C21.255 201.959 13.4346 174.109 13.4346 174.109C13.4346 174.109 53.247 159.09 52.8729 159.677C52.4986 160.264 57.4233 201.886 57.4233 201.886Z" fill="#FFB1A5"/>
<path d="M57.4233 201.886C57.0466 199.741 65.3181 176.604 68.1535 167.928C68.3008 167.412 68.3378 166.87 68.2622 166.338C68.1865 165.807 67.9998 165.297 67.7142 164.842C67.4286 164.387 67.0506 163.997 66.6046 163.698C66.1586 163.4 65.6547 163.198 65.1257 163.107C64.197 162.862 63.2139 162.927 62.3252 163.291C61.4366 163.655 60.6908 164.3 60.2008 165.126L50.2148 182.204L57.4233 201.886Z" fill="#FFB1A5"/>
<path d="M56.6934 176.874L49.8379 142.743C49.622 141.638 48.9809 140.661 48.0526 140.024C47.1243 139.387 45.983 139.141 44.8746 139.337C43.9387 139.5 43.1014 140.017 42.5362 140.781C41.971 141.545 41.7214 142.498 41.839 143.441L44.827 168.855L56.6934 176.874Z" fill="#FFB1A5"/>
<path d="M43.0598 164.285L33.7494 139.913C33.371 138.882 32.6105 138.036 31.6256 137.55C30.6407 137.065 29.5069 136.978 28.4593 137.306C27.5781 137.595 26.838 138.205 26.3868 139.016C25.9356 139.826 25.8066 140.777 26.0255 141.678L32.9342 169.841L43.0598 164.285Z" fill="#FFB1A5"/>
<path d="M33.0537 171.471L21.274 147.523C20.7547 146.453 19.8478 145.62 18.7375 145.194C17.6272 144.768 16.3965 144.781 15.2951 145.23C14.8021 145.444 14.3563 145.754 13.9834 146.141C13.6105 146.529 13.3179 146.986 13.1223 147.487C12.9267 147.988 12.832 148.523 12.8437 149.061C12.8555 149.598 12.9733 150.129 13.1906 150.621L22.5813 173.23L33.0537 171.471Z" fill="#FFB1A5"/>
<path d="M13.4345 174.109L4.19123 159.438C4.00428 159.042 3.89779 158.612 3.87792 158.174C3.85805 157.736 3.92519 157.299 4.07547 156.887C4.22575 156.475 4.45618 156.098 4.7534 155.776C5.05062 155.454 5.40875 155.194 5.80701 155.011C6.6133 154.665 7.51499 154.609 8.35767 154.854C9.20035 155.1 9.93155 155.631 10.426 156.356L22.5815 173.23L13.4345 174.109Z" fill="#FFB1A5"/>
<path d="M54.8305 174.31C54.8305 174.31 40.9491 172.853 39.5229 191.364" stroke="#282828" stroke-width="1.53173" stroke-linecap="round" stroke-linejoin="round"/>
<path d="M85.2104 298.774C85.2104 298.774 96.6138 338.263 119.337 333.013C142.061 327.763 177.477 279.2 177.477 279.2L169.55 196.278L105.77 274.825L85.2104 298.774Z" fill="#FFB1A5"/>
<path d="M125.553 250.426C125.553 250.426 147.086 282.925 165.455 294.386L177.477 279.2L131.096 243.299L125.553 250.426Z" fill="#F3978E"/>
<path d="M219.763 154.504C219.763 154.504 156.543 168.763 122.854 242.281C122.854 242.281 143.21 272.971 175.841 286.611L197.689 259.83L219.763 154.504Z" fill="#546FFF"/>
<path d="M219.763 154.277C204.884 161.918 191.308 171.869 179.542 183.761L184.414 398.668H340.039L339.535 184.87C339.535 184.87 319.918 165.662 298.658 156.297C280.6 148.343 237.318 145.267 219.763 154.277Z" fill="#546FFF"/>
<path d="M271.757 215.676H315.049V237.336C315.049 243.08 312.768 248.589 308.709 252.651C304.65 256.713 299.144 258.995 293.403 258.995C287.662 258.995 282.156 256.713 278.097 252.651C274.037 248.589 271.757 243.08 271.757 237.336V215.676Z" stroke="#282828" stroke-width="1.39681" stroke-linecap="round" stroke-linejoin="round"/>
<path d="M339.785 290.859L341.804 220.557" stroke="#282828" stroke-width="1.39681" stroke-linecap="round" stroke-linejoin="round"/>
<path d="M181.933 279.143L178.571 218.202" stroke="#282828" stroke-width="1.39681" stroke-linecap="round" stroke-linejoin="round"/>
<path d="M221.586 75.7822L215.099 43.6684C214.734 41.0523 213.72 37.0158 214.962 33.2233C217.017 26.948 224.568 14.896 237.476 20.4142L240.266 33.1287C240.266 33.1287 226.862 35.8355 221.485 53.3819L221.586 75.7822Z" fill="#282828"/>
<path d="M236.525 27.0429C236.29 31.2623 232.568 49.7249 219.482 56.4514C219.482 56.4514 208.021 31.8555 236.525 27.0429Z" fill="#282828"/>
<path d="M282.43 148.363V93.8322H232.191V148.363L217.236 155.185C217.236 155.185 220.743 177.786 257.837 178.287C294.931 178.789 298.658 156.297 298.658 156.297L282.43 148.363Z" fill="#FFB1A5"/>
<path d="M237.476 20.4142C237.476 20.4142 246.696 -3.92388 275.127 9.01465C292.336 16.8458 297.156 27.3458 299.206 34.7855C299.884 37.625 300.143 40.5485 299.974 43.463L293.097 75.7822L266.247 31.0668L240.266 33.1287L237.476 20.4142Z" fill="#282828"/>
<path d="M293.096 75.7822C293.096 75.7822 296.483 70.3918 303.469 73.0431C310.455 75.6943 307.295 92.6705 296.816 94.8341C295.639 95.0426 294.43 94.9939 293.273 94.6912C292.117 94.3885 291.039 93.839 290.114 93.0804C290.114 93.0804 292.691 80.5412 293.096 75.7822Z" fill="#F3978E"/>
<path d="M302.084 79.0321C302.084 79.0321 296.232 77.0782 292.079 85.7007" stroke="#282828" stroke-width="1.39681" stroke-linecap="round" stroke-linejoin="round"/>
<path d="M221.586 75.7822C221.586 75.7822 218.199 70.3918 211.213 73.0431C204.228 75.6943 207.388 92.6705 217.867 94.8341C219.044 95.0426 220.252 94.9939 221.409 94.6912C222.566 94.3885 223.644 93.839 224.568 93.0804C224.568 93.0804 221.992 80.5412 221.586 75.7822Z" fill="#F3978E"/>
<path d="M212.599 79.0321C212.599 79.0321 218.451 77.0782 222.604 85.7007" stroke="#282828" stroke-width="1.39681" stroke-linecap="round" stroke-linejoin="round"/>
<path d="M293.796 59.6731C293.8 69.907 292.796 91.3177 286.508 104.026C280.605 115.958 270.841 122.379 258.04 122.761C245.239 123.144 235.703 118.207 228.06 102.721C220.418 87.2357 220.783 59.8633 220.783 59.8633C220.783 59.8633 220.783 23.3044 256.893 23.3044C294.926 23.3044 293.796 59.6731 293.796 59.6731Z" fill="#FFB1A5"/>
<path d="M232.568 110.354C232.568 110.354 236.776 131.714 255.354 134.168C276.735 136.993 282.43 110.897 282.43 110.897C282.43 110.897 272.982 122.743 258.04 122.761C253.136 122.737 248.3 121.61 243.891 119.462C239.482 117.314 235.612 114.201 232.568 110.354Z" fill="#282828"/>
<path d="M254.714 74.8508V83.3119C254.713 83.665 254.781 84.0148 254.911 84.3426C255.179 84.9439 255.655 85.4278 256.252 85.7048C256.849 85.9818 257.526 86.0331 258.157 85.8493L260.96 85.1033" stroke="#282828" stroke-width="1.39681" stroke-linecap="round" stroke-linejoin="round"/>
<path d="M244.05 70.8103C244.05 71.4609 243.857 72.0968 243.496 72.6377C243.135 73.1787 242.621 73.6002 242.021 73.8492C241.42 74.0981 240.759 74.1633 240.122 74.0364C239.484 73.9094 238.898 73.5962 238.438 73.1361C237.979 72.6761 237.666 72.0901 237.539 71.452C237.412 70.814 237.477 70.1526 237.726 69.5516C237.975 68.9505 238.396 68.4368 238.936 68.0754C239.477 67.7139 240.113 67.521 240.763 67.521C241.194 67.521 241.622 67.6061 242.021 67.7714C242.42 67.9367 242.782 68.179 243.087 68.4844C243.392 68.7899 243.635 69.1525 243.8 69.5516C243.965 69.9506 244.05 70.3784 244.05 70.8103Z" fill="#282828"/>
<path d="M274.87 70.8103C274.87 71.4609 274.678 72.0969 274.316 72.6378C273.955 73.1787 273.442 73.6002 272.841 73.8492C272.24 74.0981 271.579 74.1633 270.942 74.0363C270.304 73.9094 269.718 73.5961 269.259 73.1361C268.799 72.6761 268.486 72.09 268.359 71.4519C268.232 70.8139 268.297 70.1525 268.546 69.5515C268.795 68.9504 269.216 68.4367 269.757 68.0753C270.297 67.7139 270.933 67.521 271.583 67.521C272.015 67.521 272.442 67.6061 272.841 67.7714C273.24 67.9367 273.602 68.179 273.908 68.4844C274.213 68.7899 274.455 69.1525 274.62 69.5516C274.785 69.9507 274.87 70.3784 274.87 70.8103Z" fill="#282828"/>
<path d="M263.169 54.4463L285.271 60.1592C285.271 60.1592 284.266 53.956 275.225 51.7017C266.183 49.4475 263.169 54.4463 263.169 54.4463Z" fill="#282828"/>
<path d="M249.435 54.4463L227.333 60.1592C227.333 60.1592 228.337 53.956 237.379 51.7017C246.421 49.4475 249.435 54.4463 249.435 54.4463Z" fill="#282828"/>
<path d="M245.039 91.8365C245.039 91.8365 248.299 94.3369 256.874 94.3369C261.227 94.4342 265.55 93.5809 269.541 91.8365" stroke="#282828" stroke-width="1.39681" stroke-linecap="round" stroke-linejoin="round"/>
<path d="M239.878 85.7485C247.592 85.7485 253.846 79.4907 253.846 71.7713C253.846 64.0518 247.592 57.794 239.878 57.794C232.163 57.794 225.909 64.0518 225.909 71.7713C225.909 79.4907 232.163 85.7485 239.878 85.7485Z" stroke="white" stroke-width="1.95143" stroke-miterlimit="10"/>
<path d="M274.194 85.7485C281.908 85.7485 288.162 79.4907 288.162 71.7713C288.162 64.0518 281.908 57.794 274.194 57.794C266.479 57.794 260.225 64.0518 260.225 71.7713C260.225 79.4907 266.479 85.7485 274.194 85.7485Z" stroke="white" stroke-width="1.95143" stroke-miterlimit="10"/>
<path d="M253.847 71.7713C253.847 71.7713 257.155 68.6816 260.225 71.7713" stroke="white" stroke-width="1.95143" stroke-miterlimit="10"/>
<path d="M225.909 71.7713L221.226 71.6525" stroke="white" stroke-width="1.95143" stroke-miterlimit="10"/>
<path d="M288.162 71.7712L293.391 71.6863" stroke="white" stroke-width="1.95143" stroke-miterlimit="10"/>
<path d="M232.568 27.8774C232.568 27.8774 239.277 46.9472 269.547 46.3621C290.114 45.9647 295.029 60.8578 295.029 60.8578C295.029 60.8578 291.449 27.5636 290.508 27.8774C289.567 28.1914 259.21 19.7725 259.21 19.7725L232.568 27.8774Z" fill="#282828"/>
</g>
</g>
<defs>
<clipPath id="clip0_157_85">
<rect width="594" height="431" fill="white"/>
</clipPath>
</defs>
</svg>
