<svg width="142" height="65" viewBox="0 0 142 65" fill="none" xmlns="http://www.w3.org/2000/svg">
<path d="M3.97203 46.4669V28.5475L0.301086 22.0388C0.0908339 21.6471 -0.012585 21.2069 0.00122175 20.7625C0.0150285 20.3182 0.145592 19.8852 0.379759 19.5073C0.613926 19.1293 0.943477 18.8196 1.33528 18.6094C1.72708 18.3991 2.16729 18.2956 2.61177 18.3093L19.9896 18.1934C19.9699 18.1514 36.2393 2.59903 36.2393 2.59903C38.0111 0.922915 40.3597 -0.00765864 42.7989 4.74813e-05H74.2811C76.2468 -0.00354757 78.1658 0.598905 79.7765 1.72534L82.9712 3.97151L108.77 22.1204L128.096 25.3882C129.976 25.683 131.735 26.5007 133.172 27.7477C134.609 28.9947 135.667 30.6207 136.223 32.4399L138.875 46.4669H3.97203Z" fill="#309C68"/>
<path d="M108.771 22.1203H40.0945C39.6403 21.9156 39.2333 21.6191 38.8992 21.2496C38.5652 20.88 38.3112 20.4453 38.1533 19.9728C37.9955 19.5004 37.9371 19.0004 37.9819 18.5043C38.0267 18.0081 38.1737 17.5267 38.4136 17.0901L44.6386 5.92134C44.9809 5.32404 45.4761 4.82863 46.0733 4.48594C46.6705 4.14326 47.3482 3.96568 48.0368 3.97145H82.9713L108.771 22.1203Z" fill="#064F2B"/>
<path d="M69.0996 3.97156H64.9814V22.12H69.0996V3.97156Z" fill="white"/>
<path d="M69.0996 28.7765H64.9814V48.4067H69.0996V28.7765Z" fill="#064F2B"/>
<path d="M139.821 52.2279H2.34755L0.954179 47.4027C0.839594 47.0058 0.818833 46.5877 0.893603 46.1815C0.968372 45.7752 1.13661 45.3918 1.385 45.0617C1.63338 44.7316 1.9551 44.4637 2.32481 44.2793C2.69451 44.0948 3.10209 43.9988 3.51528 43.9988H138.928C139.353 43.9988 139.772 44.1004 140.15 44.2951C140.528 44.4899 140.854 44.7721 141.1 45.1183C141.346 45.4645 141.507 45.8646 141.567 46.2852C141.627 46.7058 141.586 47.1348 141.447 47.5363L139.821 52.2279Z" fill="#064F2B"/>
<path d="M29.6181 65.0001C37.5613 65.0001 44.0005 58.5624 44.0005 50.621C44.0005 42.6796 37.5613 36.2418 29.6181 36.2418C21.6748 36.2418 15.2356 42.6796 15.2356 50.621C15.2356 58.5624 21.6748 65.0001 29.6181 65.0001Z" fill="#064F2B"/>
<path d="M38.5851 50.6212C38.5851 52.3943 38.0593 54.1275 37.074 55.6017C36.0887 57.0759 34.6883 58.2249 33.0498 58.9034C31.4114 59.5819 29.6085 59.7594 27.8691 59.4135C26.1297 59.0676 24.5319 58.2139 23.2779 56.9601C22.0238 55.7064 21.1699 54.109 20.8239 52.3701C20.4779 50.6311 20.6555 48.8286 21.3342 47.1905C22.0128 45.5524 23.1621 44.1523 24.6367 43.1672C26.1112 42.1822 27.8448 41.6564 29.6182 41.6564C30.7958 41.6564 31.9618 41.8883 33.0497 42.3388C34.1376 42.7893 35.1262 43.4497 35.9589 44.2821C36.7915 45.1146 37.452 46.1028 37.9026 47.1905C38.3532 48.2782 38.5851 49.4439 38.5851 50.6212Z" fill="white"/>
<path d="M112.737 64.753C120.68 64.753 127.12 58.3153 127.12 50.3739C127.12 42.4325 120.68 35.9948 112.737 35.9948C104.794 35.9948 98.3547 42.4325 98.3547 50.3739C98.3547 58.3153 104.794 64.753 112.737 64.753Z" fill="#064F2B"/>
<path d="M112.737 59.3387C117.689 59.3387 121.704 55.325 121.704 50.3739C121.704 45.4228 117.689 41.4091 112.737 41.4091C107.785 41.4091 103.77 45.4228 103.77 50.3739C103.77 55.325 107.785 59.3387 112.737 59.3387Z" fill="white"/>
</svg>
