<svg width="113" height="74" viewBox="0 0 113 74" fill="none" xmlns="http://www.w3.org/2000/svg">
<path d="M91.8549 1.13684C83.8971 1.13684 78.8951 5.22942 77.9856 11.1409C77.0762 16.5976 80.032 22.5091 85.7161 25.0101C94.8106 29.1026 105.042 22.9638 105.042 14.0966C105.042 5.22939 98.6758 1.13684 91.8549 1.13684Z" fill="#309C68"/>
<path d="M91.6276 27.5111C89.5813 27.5111 87.3077 27.0563 85.2614 26.1469C79.35 23.6459 75.9395 17.2797 76.8489 11.1409C77.9857 4.31994 83.6699 0 91.855 0C98.9033 0 106.179 4.31991 106.179 14.0966C106.179 18.4165 103.905 22.2817 100.04 25.0101C97.3117 26.6016 94.5833 27.5111 91.6276 27.5111ZM91.855 2.27364C84.8067 2.27364 80.032 5.6841 79.1226 11.3682C78.2131 16.5976 81.1689 21.827 86.1709 23.8732C90.2634 25.6922 95.0381 25.2374 98.9033 22.9638C102.086 20.9175 104.133 17.507 104.133 14.0966C103.905 5.45673 97.3117 2.27364 91.855 2.27364Z" fill="#309C68"/>
<path d="M69.5735 73.8931C70.2556 65.708 69.5734 57.2955 71.165 49.3378C72.9839 39.5611 78.4407 30.9213 85.7164 27.5108C92.992 24.1004 101.632 26.6014 106.634 34.1044C110.726 40.4706 112.091 49.1104 112.545 57.2955C112.773 62.7523 113 68.209 113 73.4384L69.5735 73.8931Z" fill="#309C68"/>
<path d="M22.2817 6.82117C14.7787 6.82117 10.004 10.6864 9.09458 16.1431C8.18512 21.1451 11.1409 26.6018 16.3703 28.8755C25.0101 32.5133 34.7867 26.8292 34.7867 18.8715C34.7867 10.6864 28.6479 6.82117 22.2817 6.82117Z" fill="#309C68"/>
<path d="M22.0544 31.1489C20.0081 31.1489 17.9618 30.6942 15.9155 29.7847C10.2314 27.2837 7.04833 21.5996 7.95779 15.6882C9.09461 9.32198 14.5513 5.45679 22.2817 5.45679C29.1026 5.45679 35.9235 9.54931 35.9235 18.6439C35.9235 22.5091 33.8773 26.1469 30.2394 28.6479C27.7384 30.2395 25.0101 31.1489 22.0544 31.1489ZM22.2817 7.95777C15.6881 7.95777 11.1409 11.1409 10.2314 16.3702C9.32197 21.1449 12.2777 25.9195 16.825 27.9658C20.6902 29.7847 25.4648 29.33 29.1026 26.829C32.0584 24.7827 33.6499 22.0544 33.6499 18.8713C33.6499 10.9135 27.5111 7.95777 22.2817 7.95777Z" fill="#309C68"/>
<path d="M1.13672 72.7567C1.81881 65.481 1.13673 57.978 2.50092 50.9297C4.31983 42.2899 9.54922 34.5595 16.3701 31.6038C23.1911 28.648 31.6035 30.9217 36.3782 37.5152C40.4707 43.1993 41.6075 50.9297 42.0623 58.4327C42.2896 63.2074 42.517 68.2094 42.517 72.984L1.13672 72.7567Z" fill="#309C68"/>
<path d="M42.5171 73.8935H1.13682C0.909457 73.8935 0.454742 73.6662 0.227378 73.4388C1.38738e-05 73.2114 0 72.9841 0 72.5294C0.227364 69.801 0.227392 67.0726 0.454756 64.3442C0.454756 59.797 0.68212 55.0223 1.59158 50.475C3.63785 41.1531 9.09458 33.1953 16.1429 30.2396C23.6459 26.8292 32.5131 29.5575 37.5151 36.6058C41.835 42.7446 42.9718 51.3845 43.4266 57.978C43.6539 62.7527 43.8812 67.7547 43.8812 72.5294C43.8812 72.7567 43.6539 73.2114 43.6539 73.4388C43.1992 73.6662 42.9718 73.8935 42.5171 73.8935ZM2.50102 71.6199H41.6076C41.6076 67.3 41.3803 62.7527 41.1529 58.2054C40.6982 51.8392 39.7887 43.6541 35.6962 37.97C31.3763 31.8311 23.6459 29.5575 17.0523 32.2859C10.9135 35.0142 5.68413 42.2899 3.86522 50.9298C2.95576 55.2497 2.95576 59.797 2.7284 64.3442C2.50103 66.8452 2.50102 69.1189 2.50102 71.6199Z" fill="#309C68"/>
<path d="M58.4327 24.3279C52.2938 24.3279 48.4286 27.511 47.5191 32.2856C46.8371 36.6055 49.1107 41.1528 53.4306 43.1991C60.4789 46.3822 68.4367 41.6076 68.4367 34.5593C68.664 27.511 63.662 24.3279 58.4327 24.3279Z" fill="#309C68"/>
<path d="M58.2053 45.2458C56.3864 45.2458 54.7948 44.791 53.2033 44.1089C48.656 42.0627 45.7003 37.0606 46.6097 32.0586C47.5192 26.6019 52.0664 23.1914 58.66 23.1914C64.3441 23.1914 70.0282 26.6019 70.0282 34.5596C70.0282 37.9701 68.2093 41.3805 65.0262 43.1995C62.7526 44.5636 60.4789 45.2458 58.2053 45.2458ZM58.4327 25.465C52.9759 25.465 49.3381 27.9661 48.656 32.5134C47.9739 36.3785 50.2476 40.4711 53.8854 42.0626C57.0685 43.4268 60.4789 43.1995 63.4346 41.3805C65.9357 39.789 67.2999 37.288 67.2999 34.5596C67.5272 27.9661 62.5252 25.465 58.4327 25.465Z" fill="#309C68"/>
<path d="M40.4707 72.7565C40.9254 67.7545 40.4707 62.7525 41.6075 57.9779C43.1991 52.0664 47.519 47.0644 53.4305 45.0181C59.342 42.9718 66.3902 44.5634 70.2554 49.1107C73.6659 52.9759 74.5754 58.2052 75.0301 62.9799C75.2574 66.163 75.2575 69.5734 75.4848 72.7565H40.4707Z" fill="#003019"/>
<path d="M75.7122 73.8935H40.6981C40.4707 73.8935 40.016 73.6662 39.7887 73.4388C39.5613 73.2114 39.5613 72.9841 39.5613 72.5293C39.7886 70.7104 39.7887 68.8915 39.7887 67.0726C39.7887 63.8895 40.016 60.7064 40.6981 57.7507C42.2896 51.3845 47.0643 45.9277 53.2031 43.8815C59.5693 41.6078 67.0723 43.4267 71.3923 48.2014C75.2575 52.5213 76.1669 58.2054 76.6217 62.7527C76.849 65.9358 77.0764 69.3463 77.0764 72.5293C77.0764 72.7567 77.0763 73.2114 76.849 73.4388C76.1669 73.6662 75.9395 73.8935 75.7122 73.8935ZM41.8349 71.6199H74.5753C74.5753 68.8915 74.348 65.9358 74.1207 63.2074C73.6659 58.8875 72.9838 53.6581 69.5734 49.7929C65.9355 45.7004 59.5694 44.1088 53.8853 46.1551C48.6559 47.974 44.3359 52.7486 42.9717 58.4327C42.2896 61.3885 42.0623 64.1169 42.0623 67.3C41.8349 68.6642 41.8349 70.0283 41.8349 71.6199Z" fill="#309C68"/>
<path d="M7.50295 69.1185C7.27559 69.1185 7.04827 68.8911 7.04827 68.6637C6.8209 65.0259 6.82092 61.3881 7.27564 57.7503C7.27564 57.5229 7.50297 57.2955 7.73033 57.2955C7.95769 57.2955 8.18509 57.5229 8.18509 57.7503C7.73036 61.3881 7.73034 65.0259 7.95771 68.4364C7.95771 68.8911 7.73032 69.1185 7.50295 69.1185Z" fill="#309C68"/>
<path d="M13.1872 69.1187C12.9598 69.1187 12.7325 68.8914 12.7325 68.664L12.5051 64.1167C12.5051 63.8893 12.7325 63.662 12.9599 63.662C13.1872 63.662 13.4146 63.8893 13.4146 64.1167L13.6419 68.664C13.6419 68.8914 13.4146 69.1187 13.1872 69.1187Z" fill="#309C68"/>
<path d="M107.316 68.4367C107.089 68.4367 106.861 68.2093 106.861 67.9819L106.406 58.4326C106.406 58.2053 106.634 57.9779 106.861 57.9779C107.089 57.9779 107.316 58.2053 107.316 58.4326L107.543 67.9819C107.771 68.2093 107.543 68.4367 107.316 68.4367Z" fill="#309C68"/>
</svg>
