<svg width="76" height="85" viewBox="0 0 76 85" fill="none" xmlns="http://www.w3.org/2000/svg">
<path d="M35.8125 7.88149C35.8125 6.66061 36.016 5.33798 36.423 4.21883C36.7282 3.50665 37.0334 2.69273 37.6439 2.18403C38.2543 1.67532 39.0682 1.26837 39.7804 1.47185C40.4926 1.67533 41.103 2.28577 41.4082 2.99795C41.7134 3.71013 41.8152 4.52406 41.9169 5.33798C42.0187 6.25365 42.1204 7.16931 42.3239 8.08497L35.8125 7.88149Z" fill="#309C68"/>
<path d="M42.4256 8.49228L35.9142 8.39054C35.609 8.39054 35.4055 8.18706 35.4055 7.88184C35.4055 6.55922 35.609 5.23659 36.0159 4.01571C36.3212 2.9983 36.8298 2.28612 37.3385 1.77742C38.0507 1.06524 39.0682 0.760014 39.9838 0.963495C40.7978 1.16698 41.6117 1.77742 42.0186 2.79482C42.4256 3.60875 42.5273 4.42266 42.6291 5.23659L43.036 7.98358C43.036 8.08532 43.036 8.2888 42.9343 8.39054C42.629 8.39054 42.5273 8.49228 42.4256 8.49228ZM36.3211 7.37314L41.7134 7.47488L41.4082 5.33833C41.3064 4.62615 41.2047 3.81222 40.8995 3.20178C40.5942 2.59134 40.0855 2.08264 39.5768 1.9809C39.0681 1.87916 38.356 2.08264 37.8472 2.59134C37.4403 2.9983 37.0333 3.60875 36.8298 4.42267C36.5246 5.33833 36.4229 6.35574 36.3211 7.37314Z" fill="#003019"/>
<path d="M75.4915 42.0669C74.0671 29.7563 68.1662 18.6666 58.2974 11.5448C48.4286 4.42297 34.9989 3.50731 23.9092 8.49258C15.5665 12.257 4.78195 21.8206 0.610596 42.1686C4.47673 37.0816 10.9881 35.0468 15.4647 42.4739C20.3482 34.0294 27.3683 36.3694 31.4379 41.8634C32.8623 38.9129 36.7284 36.6747 39.8823 36.7764C43.0363 36.7764 46.0885 38.8112 47.5129 41.7617C48.5303 38.913 51.379 36.8781 54.3295 36.8781C57.2799 36.8781 60.1287 39.0147 61.1461 41.8634C62.2652 38.9129 65.2157 36.8781 68.2679 36.9799C71.2184 37.0816 73.8636 38.506 75.4915 42.0669Z" fill="#309C68"/>
<path d="M15.3628 43.0843C15.1593 43.0843 15.0575 42.9826 14.9558 42.8808C13.2262 39.9304 10.9879 38.3025 8.54615 38.2008C5.9009 38.099 3.15391 39.6251 0.915626 42.5756C0.813886 42.7791 0.508689 42.8808 0.305209 42.7791C0.101728 42.6774 0 42.4739 0 42.1687C1.93307 32.9103 5.2905 25.0763 10.174 18.8701C14.9558 12.7657 20.1445 9.71348 23.6037 8.08564C29.1994 5.54213 35.4056 4.52472 41.5101 5.03343C47.7162 5.54213 53.6172 7.67867 58.5007 11.1378C68.2678 18.0562 74.4739 29.0442 76 41.9652C76 42.1687 75.8983 42.4739 75.5931 42.4739C75.3896 42.5756 75.0843 42.4739 74.9826 42.1687C73.5582 39.0147 71.32 37.4886 68.166 37.2851C65.3173 37.1834 62.5703 39.1164 61.4511 41.7617C61.3494 41.9652 61.1459 42.0669 60.9424 42.0669C60.739 42.0669 60.5355 41.9652 60.4337 41.7617C59.5181 39.1164 56.8728 37.1834 54.1258 37.1834C51.3788 37.1834 48.7336 39.1164 47.818 41.7617C47.7162 41.9652 47.6145 42.0669 47.3093 42.0669C47.1058 42.0669 46.9023 41.9652 46.8006 41.7617C45.4779 39.0147 42.6292 37.1834 39.6787 37.0816C36.6265 37.0816 32.9638 39.3199 31.7429 41.9652C31.6412 42.1687 31.5395 42.2704 31.336 42.2704C31.1325 42.2704 31.0308 42.1686 30.8273 42.0669C28.3855 38.913 25.435 37.1834 22.5863 37.3869C19.9411 37.5903 17.601 39.4217 15.668 42.6774C15.7697 42.9826 15.5662 43.0843 15.3628 43.0843ZM8.24094 37.1834C8.34268 37.1834 8.44445 37.1834 8.64793 37.1834C10.4793 37.2851 13.1245 38.099 15.4645 41.66C18.008 37.6921 20.8567 36.6747 22.7898 36.5729C25.7403 36.3695 28.8942 37.9973 31.4377 41.0495C33.0656 38.4043 36.7282 36.3695 39.8822 36.3695C42.9344 36.3695 45.7831 38.099 47.411 40.6425C48.7336 38.099 51.4806 36.3695 54.2276 36.3695C56.9746 36.3695 59.7216 38.099 61.0442 40.5408C62.4686 37.9973 65.3173 36.3694 68.2678 36.4712C70.913 36.5729 73.0495 37.6921 74.6774 39.7269C72.7443 28.1285 66.8434 18.4632 57.992 12.0535C48.5302 5.23691 35.2021 4.11776 24.1124 9.10304C18.9237 11.4431 6.51138 19.0736 1.52611 40.4391C3.56091 38.3025 5.90092 37.1834 8.24094 37.1834Z" fill="#003019"/>
<path d="M44.5622 84.3907C44.3588 84.3907 44.1552 84.3907 43.9518 84.3907C41.51 84.0855 39.2717 82.0507 38.2543 79.202C37.3387 76.6584 37.4404 73.9115 37.5421 71.4697L38.5595 37.0815C38.5595 36.7762 38.763 36.5728 39.0682 36.5728C39.3735 36.5728 39.5769 36.7762 39.5769 37.0815L38.5595 71.4697C38.4578 73.9115 38.4578 76.5567 39.2717 78.8967C40.1874 81.4403 42.0187 83.1698 44.0535 83.4751C47.1057 83.882 49.8527 80.6263 50.3614 77.5741C50.3614 77.2689 50.6666 77.0654 50.9719 77.1671C51.2771 77.1671 51.4806 77.4724 51.3789 77.7776C50.8701 81.0333 48.0214 84.3907 44.5622 84.3907Z" fill="#003019"/>
<path d="M15.2611 42.0666C15.1594 42.0666 15.0576 41.9648 15.0576 41.8631C16.7872 19.175 30.7256 9.20445 38.9666 5.23657H39.0683C57.4833 11.8497 59.7216 28.6369 61.4512 40.8457C61.4512 40.9474 61.3495 41.0492 61.3495 41.0492C61.2477 41.0492 61.146 40.9474 61.146 40.9474C59.5181 28.8403 57.1781 12.1549 39.0683 5.64354C30.9291 9.61141 17.0924 19.4802 15.4645 41.9648C15.3628 41.9648 15.3629 42.0666 15.2611 42.0666Z" fill="#003019"/>
<path d="M31.1324 42.1683C31.0307 42.1683 30.929 42.0666 30.929 41.9648C31.8446 30.0612 32.9638 16.6315 38.763 5.33832C38.763 5.23658 38.8647 5.23657 38.8647 5.23657C38.9664 5.23657 38.9665 5.23658 38.9665 5.33832C45.1726 16.5298 46.3935 29.8577 47.4109 41.5579C47.4109 41.6596 47.3092 41.7614 47.2074 41.7614C47.1057 41.7614 47.0039 41.6596 47.0039 41.5579C45.9865 29.9595 44.7657 16.835 38.763 5.74527C33.0655 16.9367 32.0481 30.2647 31.1324 41.9648C31.2342 42.0666 31.2342 42.1683 31.1324 42.1683Z" fill="#003019"/>
<path d="M6.30768 35.2499C6.20594 35.2499 6.10425 35.1482 6.10425 35.0465C6.51121 32.7064 7.22338 30.3664 8.44426 28.3316C8.44426 28.2299 8.54602 28.2299 8.64776 28.2299C8.7495 28.2299 8.74947 28.3316 8.74947 28.4333C7.63033 30.4681 6.81642 32.7064 6.40946 35.0465C6.5112 35.1482 6.40942 35.2499 6.30768 35.2499Z" fill="#003019"/>
<path d="M9.97059 25.7884C9.76711 25.6867 9.76708 25.5849 9.86882 25.4832L10.6828 23.9571C10.6828 23.8553 10.7845 23.8553 10.8862 23.8553C10.988 23.8553 10.988 23.9571 10.988 24.0588L10.1741 25.5849C10.0723 25.6867 10.0723 25.7884 9.97059 25.7884Z" fill="#003019"/>
</svg>
