<svg width="680" height="634" viewBox="0 0 680 634" fill="none" xmlns="http://www.w3.org/2000/svg">
<g clip-path="url(#clip0_95_84)">
<path d="M117.268 634H113.479L111.016 631.124L111.906 630.363L114.019 632.828H117.268V634Z" fill="white"/>
<path d="M106.428 625.802L101.831 620.482L102.719 619.718L107.316 625.035L106.428 625.802ZM97.2418 615.153C95.7146 613.371 94.1941 611.586 92.6803 609.799L93.5763 609.043C95.0873 610.83 96.6063 612.612 98.133 614.391L97.2418 615.153ZM88.1618 604.408C86.6639 602.601 85.1788 600.785 83.7064 598.961L84.6207 598.226C86.0887 600.047 87.5704 601.858 89.0657 603.659L88.1618 604.408ZM79.3322 593.445C77.8899 591.595 76.4656 589.73 75.0595 587.852L75.999 587.152C77.3995 589.024 78.8192 590.882 80.2579 592.727L79.3322 593.445ZM70.9065 582.166C69.526 580.227 68.177 578.281 66.895 576.378L67.8688 575.723C69.1444 577.618 70.4883 579.557 71.862 581.486L70.9065 582.166ZM63.0462 570.479C61.7727 568.462 60.5389 566.439 59.3801 564.465L60.3917 563.873C61.5447 565.836 62.7718 567.848 64.0383 569.854L63.0462 570.479ZM55.915 558.334C54.8065 556.29 53.7331 554.223 52.7238 552.188L52.6671 552.072L53.7223 551.562L53.7755 551.669C54.7779 553.691 55.8445 555.745 56.9461 557.776L55.915 558.334ZM49.6615 545.704C48.7013 543.564 47.7729 541.382 46.9016 539.218L47.9899 538.781C48.856 540.931 49.7783 543.1 50.7315 545.226L49.6615 545.704ZM44.396 532.628C43.605 530.421 42.85 528.171 42.1528 525.945L43.2721 525.595C43.9652 527.807 44.715 530.04 45.5004 532.234L44.396 532.628ZM40.1806 519.177C39.5676 516.898 38.9994 514.595 38.4919 512.33L39.6363 512.074C40.1404 514.323 40.7046 516.61 41.3136 518.872L40.1806 519.177ZM37.0976 505.417C36.6822 503.096 36.3173 500.75 36.0132 498.447L37.1761 498.294C37.4779 500.579 37.84 502.907 38.2525 505.211L37.0976 505.417ZM35.2519 491.433C35.0532 489.078 34.9117 486.708 34.8321 484.389L36.0041 484.348C36.0837 486.648 36.2241 488.999 36.4205 491.334L35.2519 491.433ZM35.9422 477.355L34.769 477.335C34.8103 474.97 34.9151 472.598 35.0813 470.286L36.2509 470.37C36.0866 472.661 35.9829 475.012 35.9422 477.355ZM36.9492 463.413L35.7852 463.262C36.0888 460.917 36.4629 458.571 36.8971 456.291L38.0497 456.51C37.62 458.768 37.2494 461.09 36.9492 463.413ZM39.5665 449.687L38.43 449.398C39.012 447.118 39.6724 444.836 40.3941 442.615L41.5101 442.977C40.7964 445.174 40.1422 447.431 39.5665 449.687ZM43.8862 436.407L42.7967 435.972C43.586 433.997 44.4458 432.023 45.352 430.105L45.6396 429.501L46.697 430.009L46.413 430.605C45.517 432.501 44.6669 434.454 43.8862 436.407ZM49.925 423.807L48.9019 423.235C50.0304 421.222 51.2528 419.186 52.5347 417.182L53.5235 417.814C52.2534 419.798 51.0426 421.815 49.925 423.807ZM57.4467 412.024L56.4925 411.342C57.8197 409.488 59.2455 407.594 60.7296 405.709L61.6519 406.435C60.1781 408.305 58.7636 410.185 57.4467 412.024ZM66.0936 401.026L65.2011 400.266C66.6647 398.552 68.2337 396.777 69.8646 394.991L70.7319 395.78C69.109 397.557 67.5486 399.322 66.0936 401.026ZM75.5275 390.671L74.6821 389.858C76.3066 388.172 77.9525 386.5 79.6198 384.844L80.4481 385.675C78.7886 387.326 77.1484 388.991 75.5275 390.671ZM85.4621 380.763L84.6463 379.921C86.3316 378.294 88.0269 376.674 89.732 375.061L90.5385 375.913C88.8383 377.521 87.1462 379.138 85.4621 380.763ZM95.6539 371.088L94.8497 370.235L99.9712 365.417L100.777 366.268L95.6539 371.088ZM105.882 361.423L105.071 360.576C106.767 358.955 108.45 357.325 110.121 355.688L110.944 356.523C109.271 358.165 107.583 359.799 105.882 361.423ZM115.931 351.543L115.094 350.721C116.799 348.986 118.435 347.281 119.956 345.654L120.812 346.453C119.286 348.087 117.644 349.799 115.931 351.543ZM125.553 341.229L124.671 340.456C126.257 338.652 127.782 336.852 129.205 335.106L130.115 335.845C128.683 337.603 127.148 339.415 125.553 341.229ZM134.456 330.282L133.514 329.581C134.932 327.677 136.291 325.755 137.554 323.869L138.529 324.52C137.256 326.423 135.885 328.362 134.456 330.282ZM142.289 318.553L141.279 317.958C142.472 315.937 143.603 313.88 144.641 311.846L145.686 312.378C144.638 314.433 143.495 316.512 142.289 318.553ZM148.684 305.982L147.605 305.522C148.489 303.454 149.343 301.265 150.144 299.013L151.249 299.405C150.441 301.679 149.578 303.892 148.684 305.982ZM153.435 292.699L152.311 292.364C152.951 290.223 153.563 288.016 154.18 285.615L155.317 285.907C154.695 288.322 154.08 290.544 153.435 292.699ZM156.973 279.062L155.83 278.801C156.35 276.523 156.85 274.238 157.331 271.946L158.479 272.189C157.993 274.485 157.491 276.776 156.973 279.062ZM159.914 265.306L158.765 265.069C159.24 262.771 159.72 260.477 160.203 258.186L161.351 258.43C160.864 260.716 160.384 263.008 159.914 265.306Z" fill="white"/>
<path d="M207.11 630.059L206.025 629.613C206.528 628.388 206.985 627.135 207.381 625.888C207.679 624.952 207.954 623.99 208.198 623.025L209.336 623.311C209.086 624.3 208.804 625.286 208.499 626.243C208.093 627.52 207.626 628.804 207.11 630.059ZM210.598 616.324L209.431 616.196C209.649 614.218 209.758 612.229 209.757 610.24C209.757 609.912 209.754 609.585 209.749 609.258L210.922 609.237C210.928 609.571 210.93 609.905 210.93 610.24C210.931 612.272 210.82 614.303 210.598 616.324ZM209.218 602.324C208.907 600.023 208.479 597.738 207.936 595.48L209.077 595.208C209.63 597.505 210.065 599.828 210.381 602.169L209.218 602.324ZM206.002 588.781C205.278 586.631 204.439 584.439 203.508 582.262L204.588 581.802C205.53 584.006 206.38 586.228 207.114 588.408L206.002 588.781ZM200.535 575.941C199.494 573.913 198.353 571.856 197.145 569.827L198.153 569.227C199.374 571.278 200.527 573.357 201.578 575.405L200.535 575.941ZM193.392 563.926C192.095 562.01 190.722 560.098 189.312 558.241L190.247 557.533C191.67 559.407 193.054 561.336 194.363 563.269L193.392 563.926ZM184.972 552.739C183.573 551.027 182.096 549.271 180.458 547.371L181.347 546.606C182.992 548.514 184.475 550.277 185.881 551.997L184.972 552.739ZM175.825 542.098C174.267 540.349 172.701 538.608 171.128 536.873L171.999 536.088C173.571 537.827 175.139 539.571 176.702 541.32L175.825 542.098ZM166.415 531.653C164.846 529.91 163.287 528.157 161.739 526.396L162.621 525.625C164.163 527.383 165.719 529.131 167.288 530.871L166.415 531.653ZM157.149 521.057C155.549 519.15 154.094 517.361 152.702 515.591L153.625 514.867C155.009 516.627 156.456 518.406 158.049 520.304L157.149 521.057ZM148.455 509.962C147.044 508.003 145.704 506.042 144.473 504.135L145.459 503.501C146.679 505.391 148.007 507.334 149.407 509.277L148.455 509.962ZM140.823 498.086C139.681 496.053 138.586 493.944 137.568 491.817L138.626 491.312C139.634 493.415 140.717 495.501 141.846 497.514L140.823 498.086ZM134.718 485.357C133.843 483.19 133.021 480.961 132.276 478.73L133.389 478.359C134.127 480.568 134.94 482.774 135.806 484.917L134.718 485.357ZM130.245 471.968C129.642 469.716 129.095 467.405 128.622 465.096L129.771 464.861C130.24 467.147 130.78 469.436 131.378 471.664L130.245 471.968ZM127.409 458.142C127.075 455.823 126.805 453.463 126.607 451.129L127.776 451.031C127.972 453.342 128.24 455.679 128.571 457.975L127.409 458.142ZM126.215 444.081C126.186 443.003 126.172 441.926 126.172 440.851C126.172 439.575 126.192 438.298 126.233 437.022L127.405 437.058C127.365 438.323 127.345 439.587 127.345 440.851C127.345 441.916 127.359 442.982 127.388 444.049L126.215 444.081ZM127.829 430.08L126.66 429.975C126.871 427.642 127.154 425.283 127.501 422.966L128.661 423.14C128.317 425.434 128.037 427.77 127.829 430.08ZM129.903 416.26L128.755 416.018C129.24 413.721 129.801 411.413 130.423 409.158L131.554 409.469C130.938 411.701 130.383 413.987 129.903 416.26ZM133.616 402.79L132.506 402.41C133.267 400.19 134.108 397.967 135.005 395.805L136.089 396.253C135.201 398.393 134.369 400.592 133.616 402.79ZM138.972 389.887L137.919 389.37C138.584 388.019 139.286 386.665 140.004 385.348C140.407 384.607 140.819 383.87 141.239 383.137L142.258 383.718C141.842 384.445 141.434 385.175 141.034 385.908C140.324 387.211 139.63 388.55 138.972 389.887ZM145.888 377.732L144.899 377.103C146.101 375.222 147.38 373.303 148.809 371.235L149.774 371.901C148.353 373.956 147.082 375.864 145.888 377.732ZM153.84 366.183L152.891 365.494C154.271 363.599 155.665 361.712 157.073 359.833L158.014 360.533C156.612 362.41 155.221 364.293 153.84 366.183ZM162.227 354.909L161.288 354.206C162.694 352.328 164.088 350.448 165.47 348.565L166.418 349.256C165.037 351.144 163.64 353.028 162.227 354.909ZM170.515 343.53L169.553 342.859C170.984 340.806 172.262 338.906 173.462 337.048L174.448 337.682C173.241 339.552 171.955 341.465 170.515 343.53ZM178.134 331.67L177.118 331.084C178.323 329.001 179.437 326.932 180.431 324.934L181.481 325.456C180.477 327.475 179.35 329.566 178.134 331.67ZM184.39 319.016L183.302 318.577C184.19 316.383 184.972 314.172 185.629 312.009L186.752 312.349C186.085 314.546 185.29 316.789 184.39 319.016ZM188.472 305.48L187.321 305.255L187.396 304.864C187.803 302.731 188.112 300.543 188.312 298.362L189.481 298.47C189.276 300.688 188.963 302.914 188.549 305.084L188.472 305.48ZM188.61 291.403C188.596 289.124 188.476 286.782 188.253 284.442L189.42 284.331C189.647 286.706 189.769 289.082 189.783 291.396L188.61 291.403Z" fill="white"/>
<path d="M589.146 634H585.376V632.828H588.646C589.401 632.044 590.152 631.257 590.899 630.465L591.753 631.269C590.946 632.125 590.134 632.975 589.319 633.82L589.146 634Z" fill="white"/>
<path d="M539.33 634H534.508L535.372 633.026C536.144 632.154 536.902 631.269 537.646 630.37L538.551 631.116C538.074 631.693 537.591 632.264 537.103 632.828H539.33V634Z" fill="white"/>
<path d="M596.638 625.963L595.765 625.181C597.323 623.448 598.875 621.684 600.374 619.935L601.266 620.697C599.759 622.453 598.202 624.224 596.638 625.963ZM542.845 625.542L541.892 624.86C543.247 622.969 544.541 621.021 545.738 619.069L546.739 619.682C545.527 621.656 544.216 623.628 542.845 625.542ZM605.767 615.327L604.859 614.586C606.334 612.783 607.8 610.948 609.218 609.131L610.143 609.851C608.72 611.675 607.248 613.518 605.767 615.327ZM550.198 613.556L549.155 613.018C550.225 610.948 551.22 608.832 552.109 606.729L553.19 607.184C552.289 609.316 551.282 611.459 550.198 613.556ZM614.389 604.274L613.447 603.576C614.846 601.69 616.224 599.787 617.542 597.921L618.5 598.596C617.178 600.47 615.795 602.38 614.389 604.274ZM555.673 600.6L554.559 600.231C555.289 598.027 555.931 595.781 556.465 593.556L557.606 593.829C557.064 596.086 556.413 598.364 555.673 600.6ZM622.472 592.822L621.496 592.169C622.798 590.228 624.081 588.26 625.313 586.324L626.303 586.951C625.066 588.897 623.778 590.871 622.472 592.822ZM558.945 586.916L557.783 586.744C558.066 584.833 558.276 582.903 558.406 581.007C558.434 580.62 558.458 580.234 558.478 579.847L559.648 579.905C559.629 580.299 559.605 580.694 559.577 581.088C559.443 583.014 559.231 584.975 558.945 586.916ZM629.988 580.991L628.982 580.386C630.16 578.432 631.346 576.405 632.508 574.362L633.527 574.941C632.361 576.992 631.171 579.027 629.988 580.991ZM558.497 572.914C558.39 570.613 558.168 568.291 557.836 566.013L558.998 565.843C559.334 568.16 559.56 570.521 559.668 572.859L558.497 572.914ZM636.913 568.805L635.879 568.251C636.972 566.211 638.055 564.127 639.096 562.058L640.143 562.584C639.099 564.661 638.011 566.754 636.913 568.805ZM556.506 559.21C555.95 556.962 555.279 554.729 554.51 552.571L555.614 552.178C556.397 554.371 557.08 556.643 557.645 558.928L556.506 559.21ZM643.217 556.28L642.152 555.788L642.285 555.508C643.221 553.518 644.151 551.474 645.048 549.434L646.123 549.905C645.221 551.954 644.286 554.008 643.344 556.009L643.217 556.28ZM551.852 546.171C550.857 544.086 549.75 542.056 548.535 540.09L549.535 539.475C550.771 541.477 551.898 543.544 552.911 545.668L551.852 546.171ZM648.86 543.455L647.773 543.011C648.651 540.866 649.512 538.682 650.331 536.519L651.428 536.933C650.604 539.105 649.741 541.3 648.86 543.455ZM544.571 534.412C543.144 532.597 541.608 530.869 539.974 529.238L540.803 528.409C542.47 530.073 544.036 531.836 545.493 533.687L544.571 534.412ZM653.825 530.349L652.718 529.962C653.477 527.794 654.222 525.568 654.934 523.345L656.052 523.703C655.336 525.935 654.587 528.171 653.825 530.349ZM534.786 524.657C532.964 523.236 531.064 521.918 529.095 520.709L529.709 519.711C531.716 520.943 533.652 522.286 535.508 523.735L534.786 524.657ZM523.003 517.402C520.968 516.427 518.816 515.522 516.608 514.708L517.014 513.61C519.256 514.435 521.441 515.355 523.51 516.345L523.003 517.402ZM658.106 517.003L656.981 516.673C657.639 514.424 658.269 512.162 658.854 509.952L659.989 510.252C659.401 512.472 658.767 514.743 658.106 517.003ZM509.997 512.583C507.827 511.98 505.552 511.434 503.234 510.962L503.47 509.813C505.814 510.292 508.116 510.844 510.311 511.455L509.997 512.583ZM496.374 509.774C494.158 509.455 491.829 509.181 489.452 508.958L489.562 507.791C491.957 508.016 494.306 508.292 496.541 508.614L496.374 509.774ZM440.531 508.648H439.733C437.66 508.648 435.587 508.627 433.515 508.584L433.54 507.412C435.602 507.457 437.668 507.478 439.736 507.476H440.526L440.531 508.648ZM447.539 508.574L447.518 507.402C449.854 507.359 452.186 507.308 454.512 507.248L454.542 508.42C452.213 508.477 449.879 508.529 447.539 508.574ZM482.492 508.452C480.286 508.335 477.938 508.251 475.512 508.199L475.538 507.028C477.976 507.079 480.336 507.165 482.554 507.283L482.492 508.452ZM426.499 508.319C424.09 508.188 421.733 508.009 419.493 507.791L419.608 506.624C421.83 506.842 424.171 507.018 426.563 507.15L426.499 508.319ZM461.543 508.249L461.507 507.077L461.74 507.072C463.983 507.021 466.247 506.986 468.523 506.976L468.527 508.148C466.259 508.158 464.004 508.19 461.763 508.244L461.543 508.249ZM412.516 506.923C410.143 506.562 407.814 506.134 405.595 505.65L405.845 504.505C408.041 504.984 410.344 505.407 412.693 505.765L412.516 506.923ZM398.775 503.896C396.481 503.21 394.24 502.437 392.113 501.596L392.544 500.506C394.641 501.335 396.85 502.098 399.11 502.772L398.775 503.896ZM661.699 503.456L660.558 503.186C661.092 500.94 661.607 498.65 662.087 496.377L663.235 496.62C662.753 498.902 662.236 501.202 661.699 503.456ZM385.682 498.708C384.982 498.352 384.285 497.984 383.592 497.602C382.23 496.853 380.873 496.044 379.56 495.2L380.195 494.215C381.485 495.045 382.819 495.839 384.158 496.575C384.84 496.952 385.525 497.314 386.214 497.662L385.682 498.708ZM373.822 491.103C372.003 489.666 370.213 488.11 368.503 486.479L369.313 485.632C370.997 487.238 372.759 488.77 374.55 490.185L373.822 491.103ZM664.595 489.746L663.443 489.533C663.865 487.248 664.263 484.934 664.624 482.657L665.783 482.84C665.42 485.127 665.02 487.452 664.595 489.746ZM363.623 481.399C362.093 479.665 360.601 477.826 359.187 475.933L360.128 475.233C361.522 477.099 362.995 478.914 364.503 480.626L363.623 481.399ZM666.797 475.906L665.633 475.752C665.94 473.442 666.221 471.112 666.466 468.824L667.632 468.95C667.386 471.246 667.105 473.587 666.797 475.906ZM355.195 470.139C353.953 468.181 352.757 466.139 351.642 464.069L352.675 463.512C353.778 465.56 354.959 467.578 356.186 469.512L355.195 470.139ZM668.29 461.975L667.121 461.878C667.31 459.57 667.472 457.228 667.601 454.918L668.772 454.984C668.642 457.303 668.48 459.656 668.29 461.975ZM348.519 457.767C347.559 455.651 346.652 453.467 345.823 451.273L346.921 450.859C347.74 453.028 348.637 455.19 349.588 457.282L348.519 457.767ZM669.076 447.982L667.903 447.947C667.973 445.618 668.014 443.271 668.025 440.971L669.198 440.976C669.187 443.287 669.146 445.643 669.076 447.982ZM343.542 444.591L344.111 444.449L343.542 444.589C342.872 442.407 342.245 440.135 341.68 437.85L342.819 437.568C343.379 439.834 344 442.084 344.666 444.257L343.542 444.591ZM667.97 433.994C667.921 431.678 667.842 429.332 667.734 427.021L668.905 426.966C669.014 429.287 669.094 431.643 669.143 433.968L667.97 433.994ZM340.174 430.991C339.74 428.749 339.346 426.421 339.004 424.071L340.164 423.902C340.505 426.234 340.895 428.544 341.325 430.769L340.174 430.991ZM667.314 420.057C667.145 417.748 666.944 415.41 666.715 413.108L667.881 412.991C668.112 415.304 668.315 417.653 668.485 419.972L667.314 420.057ZM338.139 417.107C337.906 414.847 337.707 412.495 337.549 410.119L338.72 410.041C338.877 412.404 339.074 414.741 339.306 416.986L338.139 417.107ZM665.929 406.173C665.639 403.876 665.313 401.552 664.962 399.265L666.121 399.086C666.474 401.384 666.802 403.72 667.093 406.026L665.929 406.173ZM337.201 403.117C337.124 400.863 337.078 398.506 337.062 396.11L338.236 396.103C338.251 398.488 338.298 400.834 338.373 403.078L337.201 403.117ZM663.808 392.385C663.393 390.094 662.943 387.791 662.47 385.539L663.618 385.298C664.093 387.561 664.546 389.875 664.963 392.177L663.808 392.385ZM338.276 389.125L337.103 389.104C337.143 386.769 337.206 384.435 337.292 382.104L338.464 382.147C338.381 384.469 338.318 386.795 338.276 389.125ZM660.945 378.731C660.409 376.486 659.833 374.211 659.231 371.969L660.366 371.665C660.969 373.918 661.548 376.203 662.086 378.459L660.945 378.731ZM338.772 375.169L337.6 375.109C337.72 372.779 337.855 370.45 338.005 368.12L339.176 368.195C339.026 370.521 338.891 372.845 338.772 375.169ZM657.329 365.256C656.662 363.018 655.959 360.779 655.241 358.6L656.355 358.234C657.076 360.423 657.783 362.673 658.454 364.921L657.329 365.256ZM339.674 361.23L338.504 361.138C338.687 358.812 338.884 356.487 339.098 354.163L340.266 354.27C340.053 356.587 339.856 358.907 339.674 361.23ZM652.961 352.007C652.175 349.834 651.345 347.638 650.494 345.482L651.585 345.051C652.441 347.219 653.275 349.424 654.066 351.608L652.961 352.007ZM340.953 347.321L339.787 347.197C340.032 344.876 340.292 342.557 340.569 340.24L341.734 340.379C341.458 342.691 341.198 345.005 340.953 347.321ZM647.836 339.029C646.93 336.914 645.974 334.772 644.993 332.66L646.056 332.166C647.043 334.289 648.004 336.443 648.916 338.569L647.836 339.029ZM342.608 333.451L341.445 333.296C341.753 330.983 342.077 328.672 342.416 326.364L343.576 326.533C343.238 328.838 342.915 331.144 342.608 333.451ZM641.96 326.377C640.928 324.315 639.844 322.234 638.74 320.191L639.771 319.634C640.882 321.687 641.972 323.78 643.01 325.853L641.96 326.377ZM344.637 319.629L343.479 319.443C343.849 317.139 344.234 314.838 344.635 312.538L345.791 312.74C345.391 315.034 345.006 317.33 344.637 319.629ZM635.327 314.107C634.169 312.112 632.959 310.101 631.732 308.129L632.729 307.511C633.961 309.493 635.177 311.514 636.342 313.519L635.327 314.107ZM347.038 305.868L345.885 305.652C346.317 303.359 346.765 301.068 347.227 298.781L348.378 299.013C347.915 301.296 347.469 303.581 347.038 305.868ZM627.956 302.261C626.662 300.319 625.333 298.383 624.005 296.509L624.962 295.832C626.297 297.716 627.633 299.66 628.932 301.613L627.956 302.261ZM349.81 292.177L348.663 291.93C349.157 289.649 349.667 287.371 350.192 285.098L351.335 285.361C350.811 287.629 350.303 289.902 349.81 292.177ZM619.885 290.877C618.489 289.028 617.048 287.175 615.6 285.369L616.517 284.637C617.97 286.451 619.42 288.313 620.822 290.172L619.885 290.877ZM611.156 279.987C609.667 278.235 608.119 276.469 606.557 274.738L607.428 273.953C608.998 275.693 610.553 277.468 612.05 279.228L611.156 279.987ZM352.95 278.565L351.811 278.287C352.366 276.02 352.936 273.758 353.523 271.499L354.658 271.793C354.073 274.047 353.504 276.304 352.95 278.565ZM601.806 269.625C600.216 267.961 598.569 266.287 596.911 264.65L597.736 263.817C599.402 265.462 601.057 267.144 602.654 268.816L601.806 269.625ZM356.462 265.046L355.331 264.734C356.008 262.291 356.647 260.09 357.286 258.003L358.408 258.346C357.772 260.422 357.136 262.614 356.462 265.046ZM591.875 259.82C590.177 258.237 588.436 256.661 586.701 255.135L587.475 254.255C589.22 255.789 590.969 257.373 592.674 258.963L591.875 259.82ZM360.573 251.72L359.465 251.334C360.268 249.035 361.103 246.824 361.946 244.763L363.032 245.206C362.197 247.248 361.369 249.44 360.573 251.72ZM581.392 250.602C579.609 249.123 577.781 247.649 575.957 246.223L576.681 245.301C578.513 246.734 580.35 248.214 582.141 249.7L581.392 250.602ZM570.399 242.004C568.539 240.634 566.628 239.269 564.72 237.947L565.389 236.985C567.306 238.312 569.226 239.684 571.096 241.061L570.399 242.004ZM365.862 238.852L364.807 238.34C365.863 236.171 366.981 234.083 368.13 232.135L369.141 232.73C368.008 234.652 366.905 236.711 365.862 238.852ZM558.925 234.057C556.987 232.795 555 231.544 553.021 230.337L553.633 229.337C555.621 230.549 557.618 231.807 559.566 233.075L558.925 234.057ZM372.936 226.925L371.987 226.237C373.366 224.332 374.848 222.501 376.424 220.754L377.295 221.54C375.746 223.256 374.292 225.053 372.936 226.925ZM547.008 226.793C544.997 225.647 542.94 224.515 540.895 223.429L541.445 222.394C543.502 223.486 545.568 224.624 547.59 225.776L547.008 226.793ZM534.682 220.247C532.6 219.22 530.48 218.213 528.378 217.255L528.866 216.189C530.977 217.152 533.109 218.164 535.202 219.196L534.682 220.247ZM382.227 216.677L381.452 215.797C383.221 214.244 385.075 212.789 387.004 211.44L387.678 212.4C385.783 213.724 383.964 215.152 382.227 216.677ZM521.987 214.456C519.85 213.558 517.671 212.683 515.511 211.853L515.932 210.759C518.104 211.594 520.294 212.473 522.441 213.375L521.987 214.456ZM508.955 209.454C506.757 208.687 504.528 207.949 502.331 207.261L502.682 206.143C504.89 206.836 507.131 207.577 509.343 208.347L508.955 209.454ZM393.558 208.729L392.987 207.705C395.003 206.585 397.129 205.535 399.306 204.582L399.777 205.656C397.634 206.593 395.541 207.627 393.558 208.729ZM495.637 205.278C493.411 204.657 491.139 204.063 488.885 203.512L489.164 202.374C491.43 202.928 493.715 203.525 495.953 204.15L495.637 205.278ZM406.253 203.151L405.877 202.041C408.044 201.306 410.314 200.633 412.626 200.039L412.917 201.175C410.635 201.76 408.393 202.425 406.253 203.151ZM482.078 201.968C479.81 201.492 477.504 201.047 475.221 200.647L475.425 199.492C477.719 199.895 480.039 200.342 482.319 200.821L482.078 201.968ZM419.712 199.683L419.499 198.531C421.751 198.114 424.09 197.756 426.452 197.467L426.594 198.63C424.257 198.917 421.941 199.271 419.712 199.683ZM468.325 199.555C466.034 199.231 463.703 198.943 461.395 198.696L461.518 197.531C463.84 197.779 466.186 198.069 468.49 198.395L468.325 199.555ZM454.438 198.075C452.104 197.909 449.76 197.792 447.471 197.728L447.505 196.556C449.811 196.622 452.171 196.739 454.521 196.906L454.438 198.075ZM433.53 197.977L433.452 196.808C435.744 196.655 438.108 196.555 440.476 196.515L440.497 197.687C438.147 197.727 435.804 197.825 433.53 197.977Z" fill="white"/>
<path d="M114.189 407.952C114.189 409.53 113.721 411.072 112.843 412.384C111.965 413.696 110.718 414.719 109.258 415.322C107.799 415.926 106.193 416.084 104.643 415.776C103.094 415.469 101.671 414.709 100.554 413.593C99.4365 412.477 98.6758 411.056 98.3676 409.508C98.0594 407.961 98.2176 406.356 98.8221 404.899C99.4267 403.441 100.45 402.195 101.764 401.318C103.077 400.441 104.622 399.974 106.202 399.974C108.32 399.974 110.352 400.814 111.849 402.31C113.347 403.807 114.189 405.836 114.189 407.952Z" fill="#D9E3FF"/>
<path d="M662.005 380.917C666.416 380.917 669.992 377.345 669.992 372.939C669.992 368.532 666.416 364.96 662.005 364.96C657.593 364.96 654.017 368.532 654.017 372.939C654.017 377.345 657.593 380.917 662.005 380.917Z" fill="#D9E3FF"/>
<path d="M561.164 402.451C559.469 402.451 557.811 401.948 556.401 401.007C554.991 400.066 553.893 398.729 553.244 397.164C552.595 395.599 552.425 393.877 552.756 392.216C553.087 390.555 553.904 389.029 555.103 387.831C556.302 386.634 557.83 385.818 559.493 385.488C561.156 385.158 562.88 385.327 564.446 385.976C566.013 386.624 567.352 387.722 568.294 389.13C569.236 390.538 569.739 392.194 569.738 393.888C569.736 396.158 568.832 398.335 567.224 399.94C565.617 401.545 563.437 402.448 561.164 402.451ZM561.164 386.496C559.701 386.496 558.27 386.929 557.053 387.741C555.836 388.554 554.888 389.708 554.328 391.059C553.768 392.409 553.621 393.896 553.907 395.329C554.192 396.763 554.897 398.08 555.932 399.114C556.967 400.148 558.286 400.852 559.721 401.137C561.157 401.422 562.644 401.276 563.997 400.716C565.349 400.157 566.505 399.21 567.318 397.994C568.131 396.779 568.565 395.35 568.565 393.888C568.563 391.928 567.783 390.049 566.395 388.663C565.008 387.277 563.127 386.498 561.164 386.496Z" fill="white"/>
<path d="M113.882 563.947C114.034 574.299 97.7549 574.299 97.9076 563.947C97.7563 553.596 114.035 553.596 113.882 563.947Z" fill="#D9E3FF"/>
<path d="M8.93953 466.14C7.28355 466.151 5.65416 465.724 4.21592 464.904C3.03322 464.131 2.062 463.075 1.38987 461.833C0.717743 460.59 0.365855 459.2 0.365967 457.788C0.366079 456.376 0.718196 454.986 1.39052 453.744C2.06284 452.502 3.03423 451.446 4.21705 450.673C5.65956 449.864 7.28614 449.439 8.94049 449.439C10.5948 449.439 12.2213 449.864 13.6636 450.674C14.8465 451.447 15.8179 452.503 16.4901 453.745C17.1624 454.987 17.5143 456.377 17.5142 457.789C17.5141 459.201 17.1619 460.591 16.4895 461.834C15.817 463.076 14.8455 464.131 13.6625 464.904C12.2245 465.724 10.5953 466.151 8.93953 466.14ZM8.94003 450.604C7.49165 450.595 6.06653 450.968 4.8088 451.685C3.80306 452.355 2.97844 453.263 2.40807 454.328C1.8377 455.392 1.53921 456.581 1.5391 457.789C1.53898 458.996 1.83725 460.185 2.40742 461.25C2.9776 462.315 3.80205 463.223 4.80767 463.893C6.0689 464.602 7.49184 464.975 8.93921 464.975C10.3866 464.975 11.8095 464.602 13.0707 463.893C14.0766 463.223 14.9014 462.315 15.4718 461.251C16.0423 460.186 16.3409 458.997 16.3411 457.789C16.3412 456.582 16.043 455.393 15.4728 454.328C14.9027 453.263 14.0782 452.355 13.0725 451.685C11.8143 450.968 10.3888 450.595 8.94003 450.604Z" fill="white"/>
<path d="M161.14 411.734C117.099 291.33 127.655 50.9725 127.767 48.559L127.789 48.0785L128.26 47.9763L189.116 34.7079L189.383 35.9305L128.999 49.0963C128.481 61.2619 119.304 293.711 162.317 411.304L161.14 411.734Z" fill="#3B3E56"/>
<path d="M538.617 411.734L537.439 411.304C580.465 293.718 571.277 61.2893 570.758 49.0969L432.658 19.1904L432.924 17.9665L571.966 48.0778L571.988 48.559C572.101 50.9725 582.673 291.33 538.617 411.734Z" fill="#3B3E56"/>
<path d="M209.834 31.3504L209.569 30.1272L349.132 0L349.265 0.0287963L400.338 10.9802L400.074 12.2034L349.133 1.28081L209.834 31.3504Z" fill="#3B3E56"/>
<path d="M559.385 60.3088L336.592 12.607L115.303 60.3088C115.303 60.3088 104.097 299.393 148.72 419.975C193.294 540.356 336.592 603.971 336.592 603.971C336.592 603.971 481.419 540.356 525.967 419.975C570.604 299.393 559.385 60.3088 559.385 60.3088ZM492.286 398.202C455.685 501.569 336.73 556.194 336.73 556.194C336.73 556.194 219.015 501.569 182.401 398.202C145.75 294.661 154.95 89.368 154.95 89.368L336.73 48.4146L519.738 89.368C519.738 89.368 528.951 294.661 492.286 398.202Z" fill="#546FFF"/>
<path d="M248.447 549.487C199.14 510.299 165.39 466.798 148.133 420.192C141.373 401.288 136.048 381.903 132.203 362.2L133.431 361.95C137.263 381.59 142.571 400.914 149.309 419.757C166.485 466.146 200.102 509.464 249.228 548.507L248.447 549.487Z" fill="#44312F"/>
<path d="M492.286 402.322C455.685 506.915 336.73 562.179 336.73 562.179C336.73 562.179 223.954 509.231 184.846 408.907C183.993 406.729 183.179 404.534 182.401 402.322C145.75 297.566 154.95 89.8564 154.95 89.8564L315.458 53.2601L336.73 48.4148L519.738 89.8564C519.738 89.8564 528.951 297.566 492.286 402.322Z" fill="#CFE1FF"/>
<path d="M213.796 290.031C214.145 335.476 214.843 377.01 215.267 399.668C214.269 397.338 213.347 395.007 212.449 392.625C201.828 364.219 195.121 327.578 190.957 290.031H213.796Z" fill="white"/>
<path d="M213.596 263.49H188.015C184.406 212.777 183.565 161.905 185.496 111.101L217.536 104.291C214.045 127.751 213.347 196.086 213.596 263.49Z" fill="white"/>
<path d="M460.803 267.939C460.803 267.939 470.118 245.512 448.855 232.989C445.217 230.7 442.266 227.471 440.314 223.645C438.361 219.819 437.478 215.538 437.76 211.252C439.124 188.551 424.105 167.565 399.528 181.143L413.823 259.328L460.803 267.939Z" fill="#44312F"/>
<path d="M365.539 264.583C365.494 264.239 364.509 256.063 371.236 247.128C376.755 239.797 384.163 228.016 384.772 210.414L386.025 210.457C385.404 228.413 377.859 240.415 372.238 247.88C365.815 256.411 366.771 264.34 366.782 264.419L365.539 264.583Z" fill="#44312F"/>
<path d="M370.339 261.546C370.339 261.546 370.339 255.153 373.112 250.677C379.646 240.135 383.354 236.825 383.312 226.216C383.242 208.046 379.727 179.073 399.528 181.143L412.009 239.535L403.155 257.65L370.339 261.546Z" fill="#44312F"/>
<path d="M290.857 616.61L290.511 591.066L312.035 591.273L312.701 616.33L290.857 616.61Z" fill="#FCA774"/>
<path d="M286.165 632.925L290.172 612.926C300.084 620.872 313.398 609.069 313.398 609.069C313.398 609.069 315.214 612.977 321.404 615.453C326.948 617.67 343.819 620.101 345.717 633.211L286.165 632.925Z" fill="#44312F"/>
<path d="M318.901 614.518C317.306 616.344 315.248 617.708 312.943 618.465L312.603 617.299C314.569 616.63 316.34 615.487 317.758 613.971C318.11 614.154 318.487 614.336 318.901 614.518Z" fill="white"/>
<path d="M324.652 616.376C323.034 618.522 320.792 620.117 318.232 620.942L317.879 619.776C320.025 619.054 321.934 617.76 323.4 616.036C323.789 616.133 324.214 616.254 324.652 616.376Z" fill="white"/>
<path d="M314.065 239.409C314.065 239.409 308.931 261.286 287.982 264.103C267.034 266.921 254.859 238.77 254.859 238.77L270.219 233.828L273.482 211.964H297.708L302.16 234.532L314.065 239.409Z" fill="#FCA774"/>
<path d="M349.136 633.755C346.953 633.961 344.757 633.985 342.57 633.828L349.136 633.755Z" fill="#FFEDC5"/>
<path d="M400.724 304.213C400.724 304.213 381.896 331.382 368.133 336.177C346.06 343.877 315.976 315.719 315.976 315.719L310.95 279.523L309.821 271.322L308.029 258.452L306.888 250.251L304.745 234.764C316.879 237.894 325.302 243.114 331.682 250.251C331.732 250.301 331.782 250.364 331.833 250.414C332.184 250.802 332.522 251.203 332.873 251.616C333.424 252.279 333.963 252.968 334.477 253.669C334.803 254.082 335.104 254.495 335.405 254.921C335.518 255.071 335.618 255.234 335.731 255.384C336.082 255.898 336.433 256.411 336.771 256.937C337.097 257.438 337.411 257.938 337.724 258.452C337.774 258.542 337.828 258.63 337.887 258.715C338.112 259.09 338.338 259.478 338.564 259.866C338.727 260.142 338.877 260.417 339.028 260.693C339.241 261.068 339.454 261.457 339.654 261.832C339.892 262.283 340.131 262.721 340.356 263.172C340.594 263.623 340.82 264.073 341.046 264.536C342.099 266.665 343.214 268.956 344.355 271.322L344.994 272.637C346.085 274.903 347.213 277.232 348.316 279.523C353.819 290.991 358.858 301.659 358.858 301.659L393.366 285.357L400.724 304.213Z" fill="#5E6ADF"/>
<path d="M443.224 601.672L509.315 601.504L462.737 588.412L443.224 601.672Z" fill="#44312F"/>
<path d="M376.792 591.838L357.95 602.866H418.958L376.792 591.838Z" fill="#44312F"/>
<path d="M405.505 632.504L399.487 610.207C392.076 616.645 377.69 609.824 377.69 609.824C377.69 609.824 377.827 613.388 370.168 615.822C364.822 617.521 349.111 620.189 347.328 632.504H405.505Z" fill="#44312F"/>
<path d="M372.52 614.943C374.018 616.659 375.952 617.94 378.117 618.651L378.437 617.556C376.589 616.928 374.926 615.854 373.594 614.43C373.262 614.601 372.908 614.772 372.52 614.943Z" fill="white"/>
<path d="M367.117 616.689C368.637 618.705 370.744 620.203 373.148 620.979L373.479 619.883C371.463 619.204 369.671 617.99 368.294 616.37C367.928 616.461 367.528 616.575 367.117 616.689Z" fill="white"/>
<path d="M398.928 610.935L396.819 590.422H373.966L378.93 610.34C379.809 612.322 381.264 613.995 383.105 615.142C384.947 616.289 387.091 616.857 389.26 616.772C391.259 616.813 393.229 616.286 394.941 615.253C396.652 614.22 398.035 612.722 398.928 610.935Z" fill="#FCA774"/>
<path d="M495.396 610.935L493.286 590.422H470.433L476.185 611.087C476.185 611.087 478.313 615.874 485.727 616.772C487.762 617.035 489.826 616.601 491.582 615.541C493.338 614.481 494.683 612.857 495.396 610.935Z" fill="#FCA774"/>
<path d="M502.42 632.504L496.402 610.207C488.991 616.645 474.604 609.824 474.604 609.824C474.604 609.824 474.742 613.388 467.083 615.822C461.737 617.521 446.025 620.189 444.243 632.504H502.42Z" fill="#44312F"/>
<path d="M469.435 614.943C470.933 616.659 472.866 617.94 475.031 618.651L475.351 617.556C473.504 616.928 471.84 615.854 470.508 614.43C470.177 614.601 469.823 614.772 469.435 614.943Z" fill="white"/>
<path d="M464.032 616.689C465.552 618.705 467.658 620.203 470.063 620.979L470.394 619.883C468.378 619.204 466.585 617.99 465.208 616.37C464.843 616.461 464.443 616.575 464.032 616.689Z" fill="white"/>
<path d="M416.117 582.399C416.906 589.473 417.855 596.509 418.962 603.508C418.962 603.508 411.278 604.86 399.144 602.418C387.512 600.065 377.271 593.567 357.955 603.508C357.955 603.508 357.316 597.611 356.576 587.219C356.551 586.793 356.514 586.355 356.476 585.904C353.643 544.988 349.644 440.045 373.899 349.411L426.458 358.814C426.458 358.814 404.02 472.246 415.954 580.884C416.004 581.384 416.054 581.885 416.117 582.399Z" fill="#A5A6F6"/>
<path d="M509.939 601.529C509.939 601.529 496.439 604.271 472.924 597.86C467.98 596.412 462.788 596.003 457.678 596.658C452.567 597.313 447.648 599.018 443.229 601.666C443.229 601.666 395.81 458.261 400.536 353.555L460.088 373.149C461.455 446.617 492.854 551.36 505.101 587.619C505.239 588.032 505.377 588.445 505.515 588.846C508.26 596.921 509.939 601.529 509.939 601.529Z" fill="#A5A6F6"/>
<path d="M413.547 487.45L414.706 487.235C407.038 449.969 402.49 415.954 401.187 386.133L401.176 385.874L391.454 378.663L390.727 379.545L400.019 386.438C401.338 416.254 405.89 450.236 413.547 487.45Z" fill="#44312F"/>
<path d="M416.116 581.759C411.105 586.078 404.746 588.521 398.129 588.67C397.628 588.67 397.114 588.658 396.6 588.633C393.025 588.279 389.489 587.609 386.033 586.629C377.584 584.539 368.158 582.185 356.576 586.58C356.551 586.154 356.513 585.716 356.476 585.265C368.233 580.92 377.785 583.287 386.334 585.415C389.717 586.371 393.177 587.029 396.675 587.381C406.803 588.007 414.299 581.747 415.953 580.244C416.004 580.745 416.054 581.246 416.116 581.759Z" fill="#44312F"/>
<path d="M218.851 619.067L221.949 579.885L246.556 581.112L239.47 619.067H218.851Z" fill="#FCA774"/>
<path d="M321.927 336.454L338.549 603.476C330.711 604.811 322.804 605.701 314.866 606.143C304.33 606.427 293.795 605.532 283.459 603.476L259.623 341.836L321.927 336.454Z" fill="#798BE0"/>
<path d="M229.016 356.806L202.559 603.476C211.767 606.181 221.341 607.44 230.936 607.208C239.005 606.928 247.011 605.675 254.779 603.476L294.237 356.806H229.016Z" fill="#798BE0"/>
<path d="M219.439 395.804C220.918 398.275 221.888 401.015 222.295 403.865C223.207 408.763 226.428 417.483 231.134 421.263C231.736 421.752 232.506 421.176 232.03 420.104C231.209 418.154 229.429 415.154 229.922 414.923C230.967 414.485 234.428 423.72 236.59 422.595C238.218 421.741 231.924 412.403 232.38 412.107C233.291 411.516 237.22 421.087 239.283 419.937C241.243 418.845 235.017 412.096 235.566 411.51C236.136 410.905 239.925 417.231 241.283 416.555C243.341 415.53 235.86 406.182 236.399 405.365C237.203 404.012 241.102 408.745 242.374 407.266C243.602 405.89 237.75 400.48 236.675 399.359C234.192 396.77 231.804 396.705 230.654 391.999C225.317 370.126 225.832 347.236 232.147 325.625C225.009 323.168 209.967 319.026 199.028 310.053C198.872 312.695 190.737 352.04 219.439 395.804Z" fill="#FCA774"/>
<path d="M303.143 307.41L346.241 315.509L362.563 278.854L386.779 299.898C386.779 299.898 377.818 381.146 307.837 325.311L303.143 307.41Z" fill="#FCA774"/>
<path d="M312.958 330.426C312.958 330.426 319.572 318.865 319.572 309.062L345.175 313.324L360.936 271.928L386.353 309.968C386.353 309.968 377.06 342.038 355.202 345.344C336.534 348.168 312.958 330.426 312.958 330.426Z" fill="white"/>
<path d="M317.868 370.208C312.576 371.911 307.098 372.974 301.553 373.374C293.329 373.972 285.072 373.918 276.857 373.211C273.416 372.962 269.899 372.626 266.316 372.235C261.16 371.661 255.884 370.967 250.533 370.208V248.011L262.38 237.571C273.901 253.874 300.144 254.194 309.455 236.876L309.998 245.398C309.998 245.409 311.941 276.202 311.941 276.202L317.868 370.208Z" fill="white"/>
<path d="M325.869 317.14L325.375 318.292L330.123 320.326L330.618 319.175L325.869 317.14Z" fill="#D8E7FF"/>
<path d="M328.485 315.207L327.558 316.049L331.032 319.868L331.96 319.026L328.485 315.207Z" fill="#D8E7FF"/>
<path d="M302.258 402.145C301.965 394.164 301.726 382.015 301.553 373.374C300.999 345.899 301.129 315.257 302.508 282.903C303.735 254.3 304.722 234.813 304.722 234.813L311.117 236.925L309.998 245.409L325.12 276.007C326.607 294.58 328.083 313.176 329.679 331.5C331.405 351.201 333.261 374.398 335.41 393.08C324.688 397.193 313.583 400.229 302.258 402.145Z" fill="#5E6ADF"/>
<path d="M276.857 373.211C276.607 382.503 276.292 395.444 275.934 404.248C244.975 404.009 222.971 394.045 213.646 388.884L234.445 265.316L266.414 234.089C266.425 234.089 267.619 232.929 267.619 232.929C267.619 232.929 267.814 233.352 268.151 234.176C269.996 238.73 276.021 255.645 276.976 284.529C277.92 313.251 277.671 344.099 276.857 373.211Z" fill="#5E6ADF"/>
<path d="M236.457 395.485C226.962 397.296 219.388 400.173 213.307 404.968C204.773 388.346 198.336 362.032 197.048 337.308C195.916 315.561 198.136 292.587 206.654 271.248C212.998 255.358 231.461 237.018 267.611 232.924C267.611 232.924 247.362 291.035 241.044 307.791C228.669 340.609 236.457 395.485 236.457 395.485Z" fill="#5E6ADF"/>
<path d="M509.352 601.744C508.87 600.424 461.132 463.592 459.461 373.16L460.715 373.138C462.382 463.36 510.049 599.997 510.53 601.316L509.352 601.744Z" fill="#44312F"/>
<path d="M299.543 222.407C293.569 235.833 278.387 234.867 271.426 225.677L273.482 211.964H297.708L299.543 222.407Z" fill="#44312F"/>
<path d="M264.513 207.274C264.513 207.274 263.673 217.686 272.247 218.526L273.761 206.77L264.513 207.274Z" fill="#44312F"/>
<path d="M348.679 304.113C348.667 304.138 345.47 312.326 345.47 312.326H339.165L328.167 310.474L328.067 312.326H301.573C301.636 309.609 301.703 306.871 301.774 304.113H348.679Z" fill="#5462CC"/>
<path d="M329.84 333.385H301.273C301.298 330.668 301.327 327.934 301.36 325.184L315.5 325.259H315.688L323.898 325.297L329.113 325.322C329.113 325.322 329.789 332.746 329.84 333.385Z" fill="#5462CC"/>
<path d="M277.219 357.987C277.168 360.729 277.106 363.471 277.043 366.187H200.706C200.155 363.483 199.666 360.741 199.227 357.987H277.219Z" fill="#5462CC"/>
<path d="M332.71 366.187H301.423C301.385 363.483 301.348 360.741 301.323 357.987H331.97C332.208 360.729 332.459 363.471 332.71 366.187Z" fill="#5462CC"/>
<path d="M276.692 379.046C276.629 381.687 276.554 384.467 276.479 387.259H206.134C205.281 384.617 204.467 381.863 203.702 379.046H276.692Z" fill="#5462CC"/>
<path d="M334.766 387.259H301.837C301.774 384.479 301.711 381.687 301.661 379.046H333.913C334.201 381.838 334.477 384.592 334.766 387.259Z" fill="#5462CC"/>
<path d="M344.994 272.637V310.16H336.771V256.937C337.097 257.438 337.411 257.938 337.724 258.452C337.774 258.542 337.828 258.63 337.887 258.715C338.112 259.09 338.338 259.478 338.564 259.866C338.727 260.142 338.877 260.417 339.028 260.693C339.241 261.068 339.454 261.457 339.654 261.832C339.892 262.283 340.131 262.721 340.356 263.172C340.594 263.623 340.82 264.073 341.046 264.536C342.099 266.665 343.214 268.956 344.355 271.322L344.994 272.637Z" fill="#5462CC"/>
<path d="M323.898 243.277V397.025C321.128 397.876 318.383 398.64 315.688 399.328V238.582C318.572 239.874 321.323 241.446 323.898 243.277Z" fill="#5462CC"/>
<path d="M237.132 241.161V398.552C235.064 397.939 233.1 397.304 231.241 396.649C230.451 396.849 229.674 397.062 228.922 397.288V245.669C231.557 243.989 234.3 242.483 237.132 241.161Z" fill="#5462CC"/>
<path d="M216.036 256.473V402.997C215.096 403.61 214.181 404.261 213.303 404.962C211.212 400.82 209.383 396.55 207.826 392.179V268.593C209.576 264.962 211.76 261.557 214.331 258.452C214.87 257.788 215.447 257.125 216.036 256.473Z" fill="#5462CC"/>
<path d="M277.532 312.326H197.359C197.572 309.584 197.873 306.855 198.224 304.113H277.444C277.482 306.842 277.507 309.571 277.532 312.326Z" fill="#5462CC"/>
<path d="M277.582 325.184C277.582 327.913 277.569 330.655 277.544 333.385H196.883C196.795 330.668 196.758 327.926 196.783 325.184H277.582Z" fill="#5462CC"/>
<path d="M274.473 258.452H214.331C214.87 257.788 215.447 257.125 216.036 256.473C218.051 254.232 220.239 252.151 222.579 250.251H272.894C273.445 252.717 273.984 255.459 274.473 258.452Z" fill="#5462CC"/>
<path d="M337.724 258.452H303.592C303.729 255.472 303.855 252.73 303.968 250.251H331.682C333.554 252.341 335.255 254.577 336.771 256.937C337.097 257.438 337.41 257.938 337.724 258.452Z" fill="#5462CC"/>
<path d="M276.755 279.523H203.689C204.567 276.769 205.545 274.027 206.635 271.322H276.141C276.391 273.926 276.604 276.656 276.755 279.523Z" fill="#5462CC"/>
<path d="M348.316 279.523H302.664C302.777 276.681 302.902 273.952 303.015 271.322H344.355L344.994 272.637C346.085 274.903 347.213 277.232 348.316 279.523Z" fill="#5462CC"/>
<path d="M269.973 239.258V404.086C267.153 403.948 264.412 403.735 261.75 403.447V233.737C263.656 233.424 265.611 233.148 267.617 232.923C267.617 232.923 267.817 233.349 268.156 234.175C268.582 235.227 269.221 236.917 269.973 239.258Z" fill="#5462CC"/>
<path d="M307.955 207.978C307.955 207.978 308.158 217.918 299.964 218.227L299.198 206.972L307.955 207.978Z" fill="#44312F"/>
<path d="M300.453 176.15C293.531 169.487 278.124 166.289 268.941 183.32C265.078 190.483 265.93 208.858 271.78 220.74C273.194 223.46 275.329 225.74 277.951 227.331C280.573 228.922 283.583 229.764 286.651 229.764C289.719 229.764 292.729 228.922 295.351 227.331C297.973 225.74 300.108 223.46 301.522 220.74C308.835 207.157 309.272 184.64 300.453 176.15Z" fill="#FCA774"/>
<path d="M357.105 283.034C357.105 283.034 362.946 243.005 406.154 241.887C486.406 239.809 480.005 308.856 480.005 308.856C480.005 308.856 469.942 318.948 446.184 325.951L371.922 304.293C361.959 295.789 357.105 283.034 357.105 283.034Z" fill="white"/>
<path d="M304.547 207.786C304.547 207.786 309.601 209.717 311.882 202.999C313.821 197.287 308.636 194.467 305.642 197.336L304.547 207.786Z" fill="#FCA774"/>
<path d="M305.257 198.882C305.257 198.882 301.418 193.955 295.534 195.215C280.595 198.412 273.76 189.505 273.76 189.505C267.371 193.536 266.167 202.296 266.167 202.296C265.785 201.615 265.244 201.035 264.591 200.606C263.937 200.177 263.19 199.912 262.412 199.833C261.946 196.395 261.254 192.992 260.338 189.645C259.326 185.485 258.04 175.818 268.857 176.322C268.857 176.322 277.869 167.39 290.237 167.869C307.555 168.541 310.649 178.979 311.31 182.76C312.231 187.419 312.061 192.228 310.813 196.81C307.394 195.299 305.257 198.882 305.257 198.882Z" fill="#44312F"/>
<path d="M268.261 207.818C268.261 207.818 263.207 209.749 260.926 203.032C258.986 197.32 264.171 194.499 267.166 197.368L268.261 207.818Z" fill="#FCA774"/>
<path d="M505.515 588.846C504.148 588.908 502.556 588.946 500.764 588.946C490.031 588.93 479.348 587.503 468.988 584.702C464.127 583.265 459.019 582.856 453.99 583.501C448.962 584.145 444.123 585.829 439.782 588.445L439.143 587.356C443.631 584.658 448.632 582.92 453.828 582.254C459.024 581.588 464.302 582.008 469.327 583.487C480.975 586.658 493.036 588.051 505.101 587.619C505.239 588.032 505.377 588.445 505.515 588.846Z" fill="#44312F"/>
<path d="M334.788 393.152C332.662 374.673 329.09 331.991 329.054 331.563C327.476 313.437 325.607 290.218 325.588 289.986L326.837 289.885C326.856 290.118 328.726 313.333 330.303 331.446C330.339 331.887 333.909 374.55 336.033 393.01L334.788 393.152Z" fill="#44312F"/>
<path d="M310.605 284.104L309.353 284.052L309.403 282.877C310.371 260.302 311.194 243.321 311.503 237.068L312.755 237.129C312.446 243.381 311.623 260.359 310.655 282.93L310.605 284.104Z" fill="#44312F"/>
<path d="M268.829 284.55C267.877 255.783 261.868 238.9 260.049 234.411L261.211 233.942C263.05 238.479 269.124 255.535 270.081 284.508L268.829 284.55Z" fill="#44312F"/>
<path d="M328.263 363.948C313.959 359.402 311.602 340.26 311.509 339.447L312.753 339.304C312.776 339.496 315.117 358.456 328.642 362.755L328.263 363.948Z" fill="#44312F"/>
<path d="M350.341 319.969C349.149 316.399 344.901 313.891 344.859 313.865L345.49 312.784C345.681 312.896 350.19 315.56 351.53 319.573L350.341 319.969Z" fill="#44312F"/>
<path d="M249.667 363.941L249.247 362.762C263.974 357.533 265.143 339.523 265.153 339.342L266.404 339.41C266.394 339.6 265.189 358.43 249.667 363.941Z" fill="#44312F"/>
<path d="M343.543 372.931L343.445 372.312C345.012 372.027 346.555 371.63 348.065 371.125L348.26 371.72C346.719 372.237 345.143 372.642 343.543 372.931Z" fill="white"/>
<path d="M268.623 176.318L267.809 175.848C267.996 175.526 272.476 167.938 281.215 165.835C287.134 164.41 293.53 165.88 300.225 170.2L299.714 170.989C293.248 166.815 287.102 165.388 281.445 166.746C273.101 168.748 268.667 176.242 268.623 176.318Z" fill="#44312F"/>
<path d="M77.7832 110.226H186.169C187.796 110.226 189.356 110.872 190.507 112.021C191.657 113.17 192.303 114.728 192.303 116.353V188.811C192.303 190.435 191.657 191.994 190.507 193.143C189.356 194.292 187.796 194.937 186.169 194.937H77.7831C76.1563 194.937 74.5961 194.292 73.4457 193.143C72.2954 191.994 71.6492 190.435 71.6492 188.811V116.353C71.6492 114.728 72.2954 113.17 73.4458 112.021C74.5961 110.872 76.1563 110.226 77.7832 110.226Z" fill="#94A5FF"/>
<path d="M123.912 132.21C123.912 131.377 124.051 130.474 124.329 129.711C124.537 129.225 124.746 128.67 125.162 128.323C125.579 127.976 126.135 127.698 126.621 127.837C127.107 127.976 127.524 128.392 127.733 128.878C127.941 129.364 128.01 129.919 128.08 130.475C128.149 131.099 128.219 131.724 128.358 132.348L123.912 132.21Z" fill="#EFF5FF"/>
<path d="M128.427 132.626L123.981 132.557C123.773 132.557 123.634 132.418 123.634 132.21C123.634 131.307 123.773 130.405 124.051 129.572C124.259 128.878 124.607 128.393 124.954 128.045C125.44 127.56 126.135 127.351 126.76 127.49C127.316 127.629 127.872 128.045 128.149 128.74C128.427 129.295 128.497 129.85 128.566 130.405L128.844 132.279C128.844 132.348 128.844 132.487 128.775 132.557C128.566 132.557 128.497 132.626 128.427 132.626ZM124.259 131.863L127.941 131.932L127.733 130.475C127.663 129.989 127.594 129.434 127.385 129.017C127.177 128.601 126.83 128.254 126.482 128.184C126.135 128.115 125.649 128.254 125.301 128.601C125.023 128.878 124.745 129.295 124.607 129.85C124.398 130.475 124.329 131.169 124.259 131.863Z" fill="black"/>
<path d="M151.004 155.529C150.031 147.131 146.002 139.566 139.264 134.708C132.526 129.85 123.356 129.225 115.784 132.626C110.088 135.194 102.724 141.718 99.8762 155.598C102.516 152.128 106.962 150.74 110.018 155.806C113.353 150.046 118.146 151.642 120.925 155.39C121.897 153.377 124.537 151.85 126.691 151.92C128.844 151.92 130.928 153.308 131.901 155.32C132.595 153.377 134.54 151.989 136.555 151.989C138.569 151.989 140.514 153.447 141.209 155.39C141.973 153.377 143.988 151.989 146.072 152.059C148.086 152.128 149.893 153.1 151.004 155.529Z" fill="#EFF5FF"/>
<path d="M109.949 156.223C109.81 156.223 109.741 156.153 109.671 156.084C108.49 154.071 106.962 152.961 105.295 152.891C103.489 152.822 101.613 153.863 100.085 155.876C100.015 156.014 99.8068 156.084 99.6679 156.014C99.5289 155.945 99.4595 155.806 99.4595 155.598C100.779 149.282 103.072 143.939 106.406 139.705C109.671 135.541 113.214 133.459 115.576 132.348C119.396 130.613 123.634 129.919 127.802 130.266C132.04 130.613 136.069 132.071 139.403 134.43C146.072 139.15 150.309 146.645 151.351 155.459C151.351 155.598 151.282 155.806 151.074 155.806C150.935 155.876 150.726 155.806 150.657 155.598C149.684 153.447 148.156 152.406 146.002 152.267C144.057 152.197 142.182 153.516 141.418 155.32C141.348 155.459 141.209 155.529 141.07 155.529C140.931 155.529 140.792 155.459 140.723 155.32C140.098 153.516 138.292 152.197 136.416 152.197C134.54 152.197 132.734 153.516 132.109 155.32C132.04 155.459 131.97 155.529 131.762 155.529C131.623 155.529 131.484 155.459 131.414 155.32C130.511 153.447 128.566 152.197 126.552 152.128C124.468 152.128 121.967 153.655 121.133 155.459C121.064 155.598 120.994 155.667 120.855 155.667C120.716 155.667 120.647 155.598 120.508 155.529C118.841 153.377 116.826 152.197 114.881 152.336C113.075 152.475 111.477 153.724 110.157 155.945C110.227 156.153 110.088 156.223 109.949 156.223ZM105.086 152.197C105.156 152.197 105.225 152.197 105.364 152.197C106.615 152.267 108.421 152.822 110.018 155.251C111.755 152.544 113.7 151.85 115.02 151.781C117.035 151.642 119.188 152.753 120.925 154.835C122.036 153.03 124.537 151.642 126.691 151.642C128.775 151.642 130.72 152.822 131.831 154.557C132.734 152.822 134.61 151.642 136.485 151.642C138.361 151.642 140.237 152.822 141.14 154.488C142.112 152.753 144.057 151.642 146.072 151.712C147.878 151.781 149.337 152.544 150.448 153.932C149.128 146.021 145.099 139.427 139.056 135.055C132.595 130.405 123.495 129.642 115.923 133.042C112.38 134.639 103.905 139.844 100.501 154.418C101.891 152.961 103.489 152.197 105.086 152.197Z" fill="black"/>
<path d="M129.886 184.4C129.747 184.4 129.608 184.4 129.469 184.4C127.802 184.192 126.274 182.804 125.579 180.86C124.954 179.125 125.023 177.251 125.093 175.586L125.787 152.128C125.787 151.92 125.926 151.781 126.135 151.781C126.343 151.781 126.482 151.92 126.482 152.128L125.787 175.586C125.718 177.251 125.718 179.056 126.274 180.652C126.899 182.387 128.149 183.567 129.539 183.775C131.623 184.053 133.498 181.832 133.846 179.75C133.846 179.542 134.054 179.403 134.262 179.472C134.471 179.472 134.61 179.681 134.54 179.889C134.193 182.11 132.248 184.4 129.886 184.4Z" fill="black"/>
<path d="M109.879 155.529C109.81 155.529 109.74 155.459 109.74 155.39C110.921 139.913 120.438 133.112 126.065 130.405H126.135C138.708 134.916 140.237 146.368 141.417 154.696C141.417 154.765 141.348 154.835 141.348 154.835C141.279 154.835 141.209 154.765 141.209 154.765C140.098 146.506 138.5 135.125 126.135 130.683C120.577 133.389 111.13 140.121 110.018 155.459C109.949 155.459 109.949 155.529 109.879 155.529Z" fill="black"/>
<path d="M120.716 155.598C120.647 155.598 120.577 155.529 120.577 155.459C121.203 147.339 121.967 138.178 125.926 130.475C125.926 130.405 125.996 130.405 125.996 130.405C126.065 130.405 126.065 130.405 126.065 130.475C130.303 138.109 131.136 147.2 131.831 155.182C131.831 155.251 131.762 155.321 131.692 155.321C131.623 155.321 131.553 155.251 131.553 155.182C130.859 147.27 130.025 138.317 125.926 130.752C122.036 138.386 121.342 147.478 120.716 155.459C120.786 155.529 120.786 155.598 120.716 155.598Z" fill="black"/>
<path d="M103.766 150.879C103.697 150.879 103.627 150.809 103.627 150.74C103.905 149.144 104.392 147.547 105.225 146.159C105.225 146.09 105.295 146.09 105.364 146.09C105.434 146.09 105.434 146.159 105.434 146.229C104.669 147.617 104.114 149.144 103.836 150.74C103.905 150.809 103.836 150.879 103.766 150.879Z" fill="black"/>
<path d="M106.267 144.424C106.128 144.355 106.128 144.286 106.198 144.216L106.753 143.175C106.753 143.106 106.823 143.106 106.892 143.106C106.962 143.106 106.962 143.175 106.962 143.245L106.406 144.286C106.337 144.355 106.337 144.424 106.267 144.424Z" fill="black"/>
<path d="M186.663 165.315H185.409V122.669C185.407 121.21 184.826 119.811 183.794 118.78C182.761 117.748 181.36 117.167 179.899 117.166H71.5017C70.0409 117.167 68.6404 117.748 67.6075 118.779C66.5746 119.811 65.9936 121.21 65.992 122.669V132.843H64.7385V122.669C64.7405 120.878 65.4537 119.161 66.7216 117.895C67.9895 116.628 69.7086 115.916 71.5017 115.914H179.899C181.692 115.916 183.412 116.628 184.679 117.895C185.947 119.161 186.661 120.878 186.663 122.669V165.315Z" fill="#44312F"/>
<path d="M179.899 201.941H83.0471V200.689H179.899C181.36 200.687 182.761 200.106 183.793 199.075C184.826 198.043 185.407 196.644 185.409 195.184V178.315H186.662V195.184C186.66 196.976 185.947 198.693 184.679 199.959C183.411 201.226 181.692 201.939 179.899 201.941Z" fill="#44312F"/>
<path d="M65.992 138.916H64.7385V186.972H65.992V138.916Z" fill="#44312F"/>
<path d="M73.9697 177.953H61.4318C60.2232 177.946 59.0663 177.462 58.2139 176.606C57.3615 175.751 56.8831 174.592 56.8831 173.385C56.8831 172.178 57.3615 171.02 58.2139 170.164C59.0663 169.308 60.2232 168.824 61.4318 168.818H73.9697C75.1783 168.824 76.3353 169.308 77.1876 170.164C78.04 171.02 78.5185 172.178 78.5185 173.385C78.5185 174.592 78.04 175.751 77.1876 176.606C76.3353 177.462 75.1783 177.946 73.9697 177.953ZM61.4318 170.07C60.5551 170.075 59.716 170.427 59.098 171.048C58.4799 171.669 58.133 172.509 58.133 173.385C58.133 174.261 58.4799 175.101 59.098 175.722C59.716 176.343 60.5551 176.695 61.4318 176.701H73.9697C74.8465 176.695 75.6855 176.343 76.3036 175.722C76.9217 175.101 77.2686 174.261 77.2686 173.385C77.2686 172.509 76.9217 171.669 76.3036 171.048C75.6855 170.427 74.8465 170.075 73.9697 170.07H61.4318Z" fill="#5E6ADF"/>
<path d="M545.1 238.565H653.486C655.113 238.565 656.673 239.21 657.823 240.359C658.973 241.508 659.62 243.067 659.62 244.692V317.149C659.62 318.774 658.973 320.332 657.823 321.481C656.673 322.63 655.113 323.275 653.486 323.275H545.1C543.473 323.275 541.913 322.63 540.762 321.481C539.612 320.332 538.966 318.774 538.966 317.149V244.692C538.966 243.887 539.124 243.09 539.432 242.347C539.741 241.604 540.193 240.928 540.762 240.359C541.332 239.79 542.008 239.339 542.752 239.031C543.496 238.723 544.294 238.565 545.1 238.565Z" fill="#94A1FF"/>
<path d="M653.98 293.653H652.726V251.008C652.724 249.548 652.143 248.149 651.11 247.118C650.077 246.086 648.676 245.506 647.215 245.504H538.819C537.358 245.506 535.957 246.086 534.924 247.118C533.891 248.149 533.31 249.548 533.308 251.008V261.181H532.054V251.008C532.056 249.216 532.77 247.499 534.038 246.233C535.306 244.966 537.025 244.254 538.819 244.252H647.215C649.008 244.254 650.728 244.966 651.996 246.233C653.264 247.499 653.977 249.216 653.98 251.008V293.653Z" fill="#3B3E56"/>
<path d="M647.215 330.279H550.363V329.027H647.215C648.676 329.025 650.077 328.445 651.11 327.413C652.143 326.381 652.724 324.982 652.726 323.523V306.653H653.98V323.523C653.978 325.314 653.264 327.032 651.996 328.298C650.728 329.565 649.009 330.277 647.215 330.279Z" fill="#3B3E56"/>
<path d="M533.308 267.255H532.054V315.31H533.308V267.255Z" fill="#3B3E56"/>
<path d="M619.511 293.87L591.765 315.962L564.634 293.174C544.446 272.278 571.861 245.378 592.419 265.911C613.413 245.675 640.457 273.317 619.511 293.87Z" fill="#FCFDFF"/>
<path d="M584.428 310.195L577.64 287.914H556.689V286.008H579.055L584.213 302.934L591.86 271.165L596.716 286.008H629.344V287.914H595.331L592.141 278.161L584.428 310.195Z" fill="#789EFF"/>
<path d="M628.72 320.289V332.813C628.715 334.02 628.23 335.177 627.373 336.029C626.516 336.881 625.357 337.359 624.148 337.359C622.939 337.359 621.779 336.881 620.922 336.029C620.065 335.177 619.581 334.02 619.575 332.813V320.289C619.581 319.081 620.065 317.925 620.922 317.073C621.779 316.221 622.939 315.743 624.148 315.743C625.357 315.743 626.516 316.221 627.373 317.073C628.23 317.925 628.715 319.081 628.72 320.289ZM620.828 332.813C620.833 333.689 621.185 334.528 621.807 335.145C622.429 335.763 623.27 336.11 624.148 336.11C625.025 336.11 625.866 335.763 626.488 335.145C627.11 334.528 627.462 333.689 627.467 332.813V320.289C627.462 319.413 627.11 318.574 626.488 317.956C625.866 317.339 625.025 316.992 624.148 316.992C623.27 316.992 622.429 317.339 621.807 317.956C621.185 318.574 620.833 319.413 620.828 320.289V332.813Z" fill="white"/>
<path d="M391.658 69.7045H500.044C501.671 69.7045 503.231 70.35 504.381 71.499C505.532 72.648 506.178 74.2064 506.178 75.8314V148.288C506.178 149.913 505.532 151.472 504.381 152.621C503.231 153.77 501.671 154.415 500.044 154.415H391.658C390.031 154.415 388.471 153.77 387.32 152.621C386.17 151.472 385.524 149.913 385.524 148.288V75.8313C385.524 74.2064 386.17 72.648 387.32 71.499C388.471 70.35 390.031 69.7045 391.658 69.7045Z" fill="#A5A6F6"/>
<path d="M401.978 130.997V120.098L399.743 116.14C399.615 115.902 399.552 115.634 399.56 115.364C399.569 115.093 399.648 114.83 399.791 114.6C399.933 114.37 400.134 114.182 400.372 114.054C400.611 113.926 400.879 113.863 401.15 113.872L411.728 113.801C411.716 113.776 421.62 104.317 421.62 104.317C422.699 103.298 424.129 102.732 425.614 102.736H444.779C445.975 102.734 447.143 103.101 448.124 103.786L450.069 105.152L465.774 116.19L477.539 118.177C478.683 118.356 479.754 118.854 480.629 119.612C481.504 120.37 482.147 121.359 482.486 122.466L484.1 130.997H401.978Z" fill="#D8E7FF"/>
<path d="M465.775 116.19H423.967C423.691 116.065 423.443 115.885 423.24 115.66C423.036 115.435 422.882 115.171 422.786 114.884C422.69 114.596 422.654 114.292 422.681 113.99C422.709 113.689 422.798 113.396 422.944 113.13L426.734 106.338C426.942 105.974 427.243 105.673 427.607 105.465C427.971 105.256 428.383 105.148 428.802 105.152H450.069L465.775 116.19Z" fill="#44312F"/>
<path d="M441.624 105.152H439.117V116.189H441.624V105.152Z" fill="white"/>
<path d="M441.624 120.238H439.117V132.177H441.624V120.238Z" fill="#44312F"/>
<path d="M484.676 134.5H400.989L400.14 131.566C400.071 131.324 400.058 131.07 400.103 130.823C400.149 130.576 400.251 130.343 400.403 130.142C400.554 129.941 400.75 129.778 400.975 129.666C401.2 129.554 401.448 129.496 401.699 129.496H484.133C484.392 129.496 484.647 129.557 484.877 129.676C485.107 129.794 485.305 129.966 485.455 130.176C485.605 130.387 485.702 130.63 485.739 130.886C485.776 131.142 485.751 131.403 485.666 131.647L484.676 134.5Z" fill="#44312F"/>
<path d="M417.59 142.268C422.425 142.268 426.345 138.353 426.345 133.523C426.345 128.693 422.425 124.778 417.59 124.778C412.754 124.778 408.834 128.693 408.834 133.523C408.834 138.353 412.754 142.268 417.59 142.268Z" fill="#44312F"/>
<path d="M423.048 133.523C423.048 134.601 422.728 135.656 422.129 136.552C421.529 137.449 420.676 138.148 419.679 138.56C418.681 138.973 417.584 139.081 416.525 138.87C415.466 138.66 414.493 138.141 413.73 137.378C412.967 136.616 412.447 135.644 412.236 134.587C412.026 133.529 412.134 132.433 412.547 131.437C412.96 130.44 413.66 129.589 414.557 128.99C415.455 128.391 416.51 128.071 417.59 128.071C418.307 128.071 419.016 128.212 419.679 128.486C420.341 128.76 420.943 129.161 421.45 129.668C421.957 130.174 422.359 130.775 422.633 131.437C422.907 132.098 423.048 132.807 423.048 133.523Z" fill="white"/>
<path d="M468.189 142.118C473.025 142.118 476.944 138.203 476.944 133.373C476.944 128.543 473.025 124.628 468.189 124.628C463.354 124.628 459.434 128.543 459.434 133.373C459.434 138.203 463.354 142.118 468.189 142.118Z" fill="#44312F"/>
<path d="M468.189 138.825C471.204 138.825 473.648 136.384 473.648 133.373C473.648 130.362 471.204 127.921 468.189 127.921C465.174 127.921 462.73 130.362 462.73 133.373C462.73 136.384 465.174 138.825 468.189 138.825Z" fill="white"/>
<path d="M500.537 124.793H499.284V82.1478C499.282 80.6886 498.701 79.2896 497.668 78.2578C496.635 77.226 495.234 76.6456 493.773 76.6439H385.376C383.915 76.6456 382.515 77.2261 381.482 78.2579C380.449 79.2897 379.868 80.6886 379.867 82.1478V92.321H378.613V82.1478C378.615 80.3567 379.328 78.6395 380.596 77.373C381.864 76.1064 383.583 75.394 385.376 75.3919H493.773C495.567 75.3938 497.286 76.1062 498.554 77.3728C499.822 78.6393 500.535 80.3566 500.537 82.1478V124.793Z" fill="#44312F"/>
<path d="M493.773 161.418H396.922V160.166H493.773C495.234 160.165 496.635 159.584 497.668 158.553C498.701 157.521 499.282 156.122 499.284 154.663V137.793H500.537V154.663C500.535 156.454 499.822 158.171 498.554 159.438C497.286 160.704 495.566 161.416 493.773 161.418Z" fill="#44312F"/>
<path d="M379.867 98.3945H378.613V146.45H379.867V98.3945Z" fill="#44312F"/>
<path d="M471.495 79.5355V67.013C471.492 66.4112 471.607 65.8147 471.836 65.2578C472.064 64.7009 472.401 64.1946 472.825 63.7679C473.25 63.3412 473.756 63.0027 474.312 62.7717C474.868 62.5406 475.465 62.4217 476.067 62.4217C476.67 62.4217 477.266 62.5406 477.823 62.7717C478.379 63.0027 478.884 63.3412 479.309 63.7679C479.734 64.1946 480.07 64.7009 480.299 65.2578C480.527 65.8147 480.643 66.4112 480.64 67.013V79.5355C480.643 80.1373 480.527 80.7338 480.299 81.2907C480.07 81.8475 479.734 82.3539 479.309 82.7805C478.884 83.2072 478.379 83.5457 477.823 83.7768C477.266 84.0078 476.67 84.1267 476.067 84.1267C475.465 84.1267 474.868 84.0078 474.312 83.7768C473.756 83.5457 473.25 83.2072 472.825 82.7805C472.401 82.3539 472.064 81.8475 471.836 81.2907C471.607 80.7338 471.492 80.1373 471.495 79.5355ZM479.386 67.013C479.389 66.5759 479.305 66.1426 479.14 65.738C478.974 65.3334 478.73 64.9655 478.422 64.6555C478.113 64.3455 477.746 64.0995 477.342 63.9316C476.938 63.7637 476.505 63.6772 476.067 63.6772C475.63 63.6772 475.196 63.7637 474.792 63.9316C474.388 64.0995 474.022 64.3455 473.713 64.6555C473.405 64.9655 473.161 65.3334 472.995 65.738C472.829 66.1426 472.745 66.5759 472.748 67.013V79.5355C472.745 79.9726 472.829 80.4059 472.995 80.8104C473.161 81.215 473.405 81.5829 473.713 81.8929C474.022 82.2029 474.388 82.449 474.792 82.6169C475.196 82.7847 475.63 82.8712 476.067 82.8712C476.505 82.8712 476.938 82.7847 477.342 82.6169C477.746 82.449 478.113 82.2029 478.422 81.8929C478.73 81.5829 478.974 81.215 479.14 80.8104C479.305 80.4059 479.389 79.9726 479.386 79.5355V67.013Z" fill="#D8E7FF"/>
<path d="M41.4274 274.144H149.813C151.44 274.144 153.001 274.79 154.151 275.939C155.301 277.088 155.947 278.646 155.947 280.271V352.728C155.947 354.353 155.301 355.912 154.151 357.061C153.001 358.21 151.44 358.855 149.813 358.855H41.4274C39.8005 358.855 38.2404 358.21 37.09 357.061C35.9397 355.912 35.2935 354.353 35.2935 352.728V280.271C35.2935 278.646 35.9397 277.088 37.09 275.939C38.2404 274.79 39.8005 274.144 41.4274 274.144Z" fill="#A5A6F6"/>
<path d="M150.307 329.233H149.053V286.587C149.052 285.128 148.471 283.729 147.438 282.698C146.405 281.666 145.004 281.086 143.543 281.084H35.1462C27.4736 280.909 30.0342 292.165 29.6361 296.761H28.3826C28.6759 291.263 26.3766 279.671 35.1469 279.833L143.543 279.832C145.337 279.834 147.056 280.546 148.324 281.813C149.592 283.079 150.305 284.796 150.307 286.587V329.233Z" fill="#44312F"/>
<path d="M143.543 365.858H46.6914V364.606H143.543C152.516 364.931 148.05 347.126 149.053 342.232H150.307C149.368 348.198 153.962 366.062 143.543 365.858Z" fill="#44312F"/>
<path d="M29.636 302.834H28.3826V350.89H29.636V302.834Z" fill="#44312F"/>
<path d="M108.544 295.824H101.682V304.926H108.544V295.824Z" fill="#D8E7FF"/>
<path d="M110.366 290.506H99.8599V293.352H110.366V290.506Z" fill="#D8E7FF"/>
<path d="M109.508 293.433H100.718V296.11H109.508V293.433Z" fill="#D8E7FF"/>
<path d="M60.6311 313.26V306.857L89.4411 294.138L118.058 306.857V313.26H60.6311Z" fill="#D8E7FF"/>
<path d="M82.2507 344.823H65.1697V350.176H82.2507V344.823Z" fill="#44312F"/>
<path d="M113.841 344.823H96.76V350.176H113.841V344.823Z" fill="#44312F"/>
<path d="M89.4525 299.422L65.168 309.902V344.825H113.841V309.902L89.4525 299.422ZM78.8143 330.373H68.9673V317.377H78.8143V330.373ZM110.042 330.373H100.205V317.377H110.042V330.373Z" fill="white"/>
<path d="M96.76 344.823H82.2507V350.176H96.76V344.823Z" fill="#44312F"/>
<path d="M96.76 318.837H82.2507V344.823H96.76V318.837Z" fill="#D8E7FF"/>
<path d="M86.4501 332.238H83.6897V333.278H86.4501V332.238Z" fill="white"/>
<path d="M146.799 298.081H159.336C160.544 298.087 161.701 298.571 162.554 299.427C163.406 300.283 163.885 301.441 163.885 302.648C163.885 303.855 163.406 305.013 162.554 305.869C161.701 306.725 160.544 307.209 159.336 307.215H146.799C145.59 307.209 144.433 306.725 143.581 305.869C142.728 305.013 142.25 303.855 142.25 302.648C142.25 301.441 142.728 300.283 143.581 299.427C144.433 298.571 145.59 298.087 146.799 298.081ZM159.336 305.963C160.213 305.958 161.052 305.606 161.67 304.985C162.288 304.364 162.635 303.524 162.635 302.648C162.635 301.772 162.288 300.932 161.67 300.311C161.052 299.69 160.213 299.338 159.336 299.333H146.799C145.922 299.338 145.083 299.69 144.465 300.311C143.847 300.932 143.5 301.772 143.5 302.648C143.5 303.524 143.847 304.364 144.465 304.985C145.083 305.606 145.922 305.958 146.799 305.963H159.336Z" fill="#A5A6F6"/>
<path d="M578.352 484.749C588.443 468.347 602.333 453.505 620.248 446.403C638.163 439.301 663.844 438.655 674.245 454.863C686.669 474.223 678.902 505.361 634.631 535.616C583.25 570.73 588.527 632.256 588.527 632.256H571.331C563.864 611.125 559.801 588.944 559.292 566.541C558.543 537.634 563.156 509.451 578.352 484.749Z" fill="#A5A6F6"/>
<path d="M595.667 632.256C595.667 632.256 591.136 577.014 632.948 560.109C661.642 548.507 663.889 578.232 645.051 591.528C615.602 612.312 613.142 632.256 613.142 632.256H595.667Z" fill="#A5A6F6"/>
<path d="M580.288 631.052L581.79 630.811C565.74 531.189 628.611 484.993 629.248 484.537L628.363 483.303C628.201 483.417 612.05 495.117 598.148 519.081C585.33 541.173 571.827 578.534 580.288 631.052Z" fill="white"/>
<path d="M601.816 633.091H603.352C603.428 632.453 603.504 631.815 603.611 631.177C609.208 592.406 640.495 574.373 640.83 574.19L640.085 572.868C639.735 573.051 607.687 591.525 602.075 631.177C601.968 631.8 601.892 632.438 601.816 633.091Z" fill="#3B3E56"/>
<path d="M582.948 562.041C588.636 534.773 628.764 512.737 629.168 512.517L628.442 511.182C626.765 512.091 587.29 533.781 581.46 561.732L582.948 562.041Z" fill="white"/>
<path d="M578.398 585.072L579.796 584.473C572.946 568.508 572.483 528.534 572.479 528.132L570.958 528.147C570.974 529.8 571.428 568.827 578.398 585.072Z" fill="white"/>
<path d="M615.315 599.453C617.04 590.085 621.297 581.367 627.624 574.241L626.485 573.235C619.973 580.569 615.593 589.542 613.818 599.183L615.315 599.453Z" fill="#3B3E56"/>
<path d="M570.669 632.632L571.991 631.881C571.551 631.107 528.523 553.571 577.418 473.066L576.117 472.277C555.796 505.482 548.175 544.904 554.658 583.279C559.478 612.738 570.558 632.436 570.669 632.632Z" fill="#419F63"/>
<path d="M388.28 410.464C387.395 411.487 392.017 446.914 373.551 452.786C367.114 454.833 348.854 446.251 348.854 446.251L329.403 413.975C329.403 413.975 337.574 411.429 349.448 416.673C352.253 417.905 362.19 426.575 369.093 430.819C373.178 424.412 379.736 412.371 379.422 409.882C378.962 408.527 378.406 407.205 377.757 405.929C376.512 402.441 376.442 398.314 377.28 397.918C379.049 397.105 379.142 402.581 380.411 402.244C381.226 402.058 382.146 392.291 383.985 392.861C385.195 393.256 383.81 399.139 384.52 399.104C385.184 399.081 385.335 391.535 387.163 392.024C389.095 392.524 385.882 400.418 386.79 400.569C387.221 400.674 388.862 391.582 390.34 391.989C392.319 392.57 389.014 400 389.91 400.348C390.352 400.476 391.027 397.709 391.656 396.081C391.982 395.175 392.797 395.268 392.855 395.93C393.321 399.383 392.087 402.534 390.608 406.918C390.077 408.243 389.286 409.449 388.28 410.464Z" fill="#FCA774"/>
<path d="M293.224 616.488C293.224 616.488 285.873 577.818 294.238 560.348L289.675 537.813L315.785 539.332C315.785 539.332 316.292 555.284 315.024 561.867C313.757 568.45 305.645 619.273 305.645 619.273L294.491 620.032L293.224 616.488Z" fill="#FCA774"/>
<path d="M325.747 540.045L351.948 619.732L364.835 619.399L351.35 528.145L325.747 540.045Z" fill="#FCA774"/>
<path d="M326.241 632.626H289.738L292.657 616.549C292.657 616.549 300.766 621.703 306.869 616.917C307.919 618.019 309.075 619.015 310.319 619.891C310.525 620.024 310.732 620.156 310.938 620.289C311.494 620.646 312.075 620.961 312.678 621.231C312.811 621.29 312.943 621.349 313.076 621.393C313.312 621.496 313.548 621.6 313.784 621.688C318.457 623.484 324.251 624.423 326.241 632.626Z" fill="#FFEAE9"/>
<path d="M310.938 620.289C309.705 621.84 308.029 622.98 306.132 623.558L305.926 622.851C307.649 622.316 309.177 621.287 310.319 619.891C310.525 620.024 310.732 620.157 310.938 620.289Z" fill="white"/>
<path d="M313.784 621.688C312.692 623.111 311.249 624.227 309.597 624.928L309.317 624.25C310.777 623.606 312.065 622.627 313.076 621.393C313.312 621.497 313.548 621.6 313.784 621.688Z" fill="white"/>
<path d="M290.284 629.64H325.209L325.534 630.377H290.151L290.284 629.64Z" fill="white"/>
<path d="M384.021 632.626H347.517L350.436 616.549C350.436 616.549 358.545 621.703 364.649 616.917C365.698 618.019 366.854 619.015 368.098 619.891C368.305 620.024 368.511 620.156 368.717 620.289C369.273 620.646 369.854 620.961 370.457 621.231C370.59 621.29 370.722 621.349 370.855 621.393C371.091 621.496 371.327 621.6 371.563 621.688C376.236 623.484 382.03 624.423 384.021 632.626Z" fill="#FFEAE9"/>
<path d="M368.717 620.289C367.484 621.84 365.808 622.98 363.911 623.558L363.705 622.851C365.428 622.316 366.956 621.287 368.098 619.891C368.305 620.024 368.511 620.157 368.717 620.289Z" fill="white"/>
<path d="M371.563 621.688C370.471 623.111 369.028 624.227 367.376 624.928L367.096 624.25C368.556 623.606 369.844 622.627 370.855 621.393C371.091 621.497 371.327 621.6 371.563 621.688Z" fill="white"/>
<path d="M348.063 629.64H382.988L383.313 630.377H347.93L348.063 629.64Z" fill="white"/>
<path d="M242.617 633.314L242.137 612.696C231.919 620.888 218.193 608.72 218.193 608.72C218.193 608.72 216.321 612.749 209.939 615.301C204.224 617.587 186.831 620.094 184.875 633.608L242.617 633.314Z" fill="#44312F"/>
<path d="M212.52 614.338C214.164 616.22 216.286 617.626 218.662 618.407L219.013 617.205C216.986 616.515 215.16 615.337 213.698 613.774C213.335 613.962 212.946 614.15 212.52 614.338Z" fill="white"/>
<path d="M206.591 616.253C208.259 618.465 210.571 620.109 213.209 620.961L213.573 619.759C211.361 619.013 209.393 617.68 207.882 615.903C207.481 616.003 207.042 616.128 206.591 616.253Z" fill="white"/>
<path d="M452.802 299.586L466.563 372.469C466.563 372.469 442.974 376.993 407.262 367.933C380.379 361.114 363.912 349.81 363.912 349.81L377.356 280.033L397.479 244.52C397.479 244.52 407.892 256.092 421.337 242.587L455.042 261.226L452.802 299.586Z" fill="white"/>
<path d="M426.197 243.957L421.477 220.062H402.515L398.941 243.957C398.941 243.957 412.382 260.42 426.197 243.957Z" fill="#FCA774"/>
<path d="M422.204 226.276C422.204 226.276 418.797 238.277 408.142 238.763C403.397 238.979 400.329 234.664 400.329 234.664L402.51 220.066H421.476L422.204 226.276Z" fill="#44312F"/>
<path d="M426.544 209.379C426.544 209.379 427.876 197.28 420.568 191.484C414.383 186.578 402.221 183.381 394.675 197.375C389.843 206.335 394.594 236.362 408.302 235.806C422.631 235.225 425.958 218.605 425.958 218.605L426.544 209.379Z" fill="#FCA774"/>
<path d="M424.704 219.524C424.704 219.524 428.857 221.111 430.731 215.591C432.325 210.897 428.064 208.58 425.604 210.937L424.704 219.524Z" fill="#FCA774"/>
<path d="M394.728 219.524C394.728 219.524 390.576 221.111 388.701 215.591C387.108 210.897 391.368 208.58 393.829 210.937L394.728 219.524Z" fill="#FCA774"/>
<path d="M408.275 179.119C381.285 181.463 392.955 209.761 392.955 209.761C393.09 207.768 393.703 205.837 394.743 204.13C395.783 202.424 397.219 200.993 398.929 199.958C402.373 203.829 406.672 206.846 411.487 208.77C416.301 210.693 421.498 211.47 426.665 211.039L429.344 194.569L408.275 179.119Z" fill="#44312F"/>
<path d="M376.758 293.841L363.291 349.661L364.51 349.954L377.977 294.134L376.758 293.841Z" fill="#44312F"/>
<path d="M452.765 250.341L451.417 256.4L452.64 256.672L453.989 250.613L452.765 250.341Z" fill="white"/>
<path d="M455.747 251.895L451.291 256.221L452.165 257.119L456.621 252.793L455.747 251.895Z" fill="white"/>
<path d="M356.118 277.628L355.901 278.861L362.02 279.938L362.238 278.706L356.118 277.628Z" fill="white"/>
<path d="M358.599 274.625L357.889 275.657L363.009 279.174L363.719 278.143L358.599 274.625Z" fill="white"/>
<path d="M498.018 315.636L497.262 316.634L502.215 320.381L502.972 319.384L498.018 315.636Z" fill="white"/>
<path d="M497.425 314.169L497.151 315.391L503.215 316.747L503.489 315.524L497.425 314.169Z" fill="white"/>
<path d="M498.045 276.511C498.369 274.115 498.615 271.633 498.784 269.064C498.857 267.926 503.02 260.246 503.406 252.486C503.473 251.144 502.576 250.191 501.838 252.005C501.195 253.581 500.813 255.942 500.379 255.814C499.495 255.524 501.868 247.992 499.911 247.538C498.437 247.201 497.841 256.31 497.403 256.255C496.515 256.122 498.737 248.132 496.842 247.745C495.031 247.385 495.548 254.791 494.916 254.851C494.238 254.933 495.073 249.098 493.869 248.791C492.029 248.319 492.176 258.072 491.44 258.312C490.251 258.688 490.089 253.723 488.534 253.936C487.051 254.154 488.704 261.04 488.852 262.331C488.996 263.724 486.717 272.051 485.882 273.569C489.397 275.148 493.295 276.77 498.045 276.511Z" fill="#FCA774"/>
<path d="M238.288 395.7C238.184 395.192 228.1 344.41 241.406 296.782L242.613 297.118C229.39 344.448 239.413 394.945 239.516 395.45L238.288 395.7Z" fill="#44312F"/>
<path d="M286.045 404.335L254.114 603.373L255.352 603.571L287.283 404.533L286.045 404.335Z" fill="#44312F"/>
<path d="M301.632 402.168C301.35 394.491 301.116 382.883 300.946 374.406L300.926 373.386C300.308 342.715 300.629 312.264 301.881 282.876C303.094 254.597 304.086 234.977 304.096 234.782L305.348 234.845C305.338 235.04 304.346 254.657 303.134 282.93C301.883 312.29 301.561 342.717 302.179 373.362L302.199 374.38C302.369 382.852 302.602 394.455 302.884 402.121L301.632 402.168Z" fill="#44312F"/>
<path d="M276.56 404.274L275.308 404.223C275.605 396.911 275.879 386.527 276.098 378.183L276.23 373.194C277.156 340.104 277.196 310.279 276.35 284.55C275.4 255.849 268.983 237.962 267.038 233.164L268.2 232.694C270.164 237.541 276.646 255.601 277.602 284.508C278.449 310.263 278.409 340.113 277.484 373.228L277.351 378.215C277.132 386.564 276.858 396.954 276.56 404.274Z" fill="#44312F"/>
<path d="M329.856 359.353C329.762 358.367 329.404 357.424 328.819 356.624C328.235 355.823 327.446 355.194 326.535 354.803L326.863 353.922C327.937 354.375 328.869 355.109 329.561 356.047C330.252 356.985 330.677 358.092 330.79 359.251L329.856 359.353Z" fill="#44312F"/>
<path d="M329.645 358.345C329.638 358.259 329.503 356.207 332.27 353.983L332.859 354.715C330.514 356.6 330.578 358.207 330.582 358.274L329.645 358.345Z" fill="#44312F"/>
<path d="M324.396 532.566L323.484 532.561C323.485 532.293 323.667 505.54 327.905 489.604L328.786 489.839C324.579 505.66 324.397 532.299 324.396 532.566Z" fill="white"/>
<path d="M227.464 412.906C228.814 416.126 231.48 418.219 234.972 421.254C236.106 422.124 237.399 422.764 238.779 423.137C240.059 423.579 248.814 449.786 271.382 451.005C280.223 451.468 289.048 449.841 297.14 446.255L316.595 413.975C316.595 413.975 308.658 412.461 296.784 417.701C292.524 419.582 280.412 431.758 271.981 432.033C262.866 432.33 247.622 421.652 246.12 418.153C245.834 416.752 245.645 415.332 245.554 413.905C244.867 410.266 242.83 406.673 241.91 406.755C239.966 406.941 242.667 411.708 241.398 412.068C240.606 412.312 234.856 404.36 233.564 405.778C232.714 406.732 236.893 411.103 236.264 411.429C235.682 411.743 231.725 405.325 230.398 406.662C228.989 408.069 235.752 413.254 235.054 413.847C234.728 414.15 228.71 407.138 227.639 408.243C226.23 409.743 232.842 414.475 232.249 415.231C231.934 415.568 229.944 413.522 228.582 412.429C227.837 411.813 227.185 412.312 227.464 412.906Z" fill="#FCA774"/>
<path d="M307.434 382.487C307.434 382.487 305.819 369.211 313.987 362.778C320.9 357.334 334.553 353.711 343.176 369.009C348.698 378.805 343.638 411.824 328.209 411.34C312.081 410.834 308.18 392.613 308.18 392.613L307.434 382.487Z" fill="#FCA774"/>
<path d="M309.599 393.611C309.599 393.611 304.942 395.392 302.781 389.347C300.943 384.207 305.715 381.623 308.505 384.189L309.599 393.611Z" fill="#FCA774"/>
<path d="M343.327 393.334C343.327 393.334 348.015 395.038 350.071 388.958C351.82 383.789 347.004 381.284 344.258 383.895L343.327 393.334Z" fill="#FCA774"/>
<path d="M287.728 365.173C284.396 369.397 284.95 374.836 284.872 380.164C284.722 390.345 278.109 396.966 272.819 398.531C275.304 399.127 277.916 398.904 280.264 397.896C279.476 399.235 279.075 400.766 279.105 402.319C279.134 403.873 279.593 405.387 280.43 406.696C281.309 407.938 282.049 409.271 282.638 410.673C282.911 411.384 282.922 412.169 282.67 412.887C282.418 413.606 281.919 414.212 281.262 414.598C284.089 415.585 287.041 413.223 288.415 410.621C289.788 408.018 290.359 404.982 292.262 402.717C294.004 400.98 295.859 399.358 297.813 397.862C302.019 394.019 302.242 390.289 301.096 386.128C296.492 369.414 306.399 369.841 306.399 369.841L308.889 363.968C308.889 363.968 294.962 356.005 287.728 365.173Z" fill="#44312F"/>
<path d="M364.056 365.101C367.588 369.168 367.296 374.627 367.631 379.945C368.271 390.109 375.195 396.419 380.554 397.74C378.099 398.449 375.48 398.346 373.088 397.446C373.939 398.747 374.413 400.257 374.458 401.809C374.504 403.362 374.118 404.897 373.345 406.245C372.527 407.525 371.852 408.891 371.33 410.318C371.093 411.042 371.12 411.827 371.406 412.533C371.692 413.239 372.219 413.821 372.894 414.176C370.118 415.292 367.055 413.067 365.558 410.53C364.061 407.993 363.344 404.987 361.335 402.812C359.511 401.156 357.58 399.621 355.556 398.216C351.17 394.57 350.767 390.854 351.712 386.645C355.505 369.739 345.63 370.619 345.63 370.619L342.86 364.866C342.86 364.866 356.389 356.274 364.056 365.101Z" fill="#44312F"/>
<path d="M309.796 385.941C309.399 385.086 308.747 384.374 307.928 383.904C307.11 383.435 306.165 383.231 305.225 383.32C305.225 383.32 299.898 370.293 308.267 361.078C315.945 352.625 329.578 357.647 329.578 357.647C329.578 357.647 336.628 354.562 344.308 361.248C350.616 366.739 347.959 382.851 347.959 382.851C344.761 382.41 343.389 385.941 343.389 385.941C333.467 384.412 329.578 375.078 329.578 375.078C323.801 380.018 317.067 383.716 309.796 385.941Z" fill="#44312F"/>
<path d="M309.886 386.349L309.87 385.41C313.765 385.439 317.601 384.464 321.009 382.581C324.417 380.697 327.282 377.968 329.326 374.656L330.161 375.089C328.037 378.55 325.055 381.405 321.503 383.377C317.951 385.35 313.95 386.373 309.886 386.349Z" fill="#44312F"/>
<path d="M327.024 433.489C303.76 433.489 299.794 416.642 299.794 416.642L314.465 413.185L316.425 401.785H334.816L336.998 413.185L351.746 418.182C349.562 422.858 346.06 426.796 341.669 429.515C337.278 432.234 332.189 433.615 327.024 433.489Z" fill="#FCA774"/>
<path d="M273.578 545.028C278.362 548.466 294.084 556.177 302.592 552.19C308.821 549.271 313.653 547.513 317.527 547.774C323.57 548.182 326.921 552.252 335.198 552.252C346.492 552.252 347.681 545.919 355.953 547.255C368.788 549.327 371.655 543.148 371.655 543.148L349.99 470.845L354.257 441.117C354.257 441.117 346.621 421.681 340.389 413.093C327.16 428.437 310.519 413.093 310.519 413.093L292.436 437.92C292.436 437.92 298.997 467.649 298.464 471.804C286.682 494.888 278.301 519.551 273.578 545.028Z" fill="#FFEAE9"/>
<path d="M340.469 413.173C346.175 414.18 351.575 416.476 356.257 419.886C360.778 423.375 366.591 428.444 366.591 428.444C364.312 432.24 361.684 441.04 358.924 451.746L346.084 447.442L340.469 413.173Z" fill="#FFEAE9"/>
<path d="M310.599 412.933C310.599 412.933 300.997 412.827 289.512 420.783C285.933 423.307 282.218 425.631 278.382 427.744C278.382 427.744 284.062 445.113 282.862 451.399L300.784 449.055L315.596 432.36L310.599 412.933Z" fill="#FFEAE9"/>
<path d="M327.804 411.789C321.344 411.789 315.608 407.102 315.525 407.034L316.126 406.312C316.238 406.405 327.429 415.535 335.662 407.613L336.314 408.291C335.199 409.409 333.872 410.294 332.411 410.894C330.95 411.495 329.384 411.799 327.804 411.789Z" fill="#44312F"/>
<path d="M444.481 307.897C458.242 335.708 474.876 337.997 483.525 336.347C492.326 334.669 509.022 325.159 502.941 266.98L485.339 264.103L472.964 299.266L444.481 307.897Z" fill="white"/>
<path d="M363.664 313.228L363.169 314.38L367.918 316.414L368.413 315.263L363.664 313.228Z" fill="#D8E7FF"/>
<path d="M366.28 311.295L365.353 312.136L368.827 315.956L369.755 315.114L366.28 311.295Z" fill="#D8E7FF"/>
<path d="M346.052 330.519L341.256 332.44L341.722 333.601L346.518 331.681L346.052 330.519Z" fill="#D8E7FF"/>
<path d="M343.482 328.523L339.918 332.26L340.825 333.123L344.389 329.386L343.482 328.523Z" fill="#D8E7FF"/>
<path d="M369.046 284.038L364.25 285.958L364.717 287.12L369.513 285.201L369.046 284.038Z" fill="#D8E7FF"/>
<path d="M366.478 282.043L362.911 285.777L363.818 286.641L367.385 282.907L366.478 282.043Z" fill="#D8E7FF"/>
<path d="M449.108 284.461L444.311 286.377L444.776 287.539L449.573 285.623L449.108 284.461Z" fill="#D8E7FF"/>
<path d="M446.537 282.462L442.972 286.199L443.88 287.063L447.445 283.327L446.537 282.462Z" fill="#D8E7FF"/>
<path d="M439.421 255.411L438.927 256.562L443.676 258.596L444.17 257.446L439.421 255.411Z" fill="#D8E7FF"/>
<path d="M442.039 253.477L441.111 254.319L444.585 258.139L445.513 257.297L442.039 253.477Z" fill="#D8E7FF"/>
<path d="M475.837 303.755L471.04 305.672L471.505 306.833L476.303 304.917L475.837 303.755Z" fill="#D8E7FF"/>
<path d="M470.61 306.355L469.701 305.493L473.268 301.757L474.176 302.621L470.61 306.355Z" fill="#D8E7FF"/>
<path d="M460.704 275.23L460.209 276.381L464.959 278.415L465.453 277.264L460.704 275.23Z" fill="#D8E7FF"/>
<path d="M463.321 273.296L462.393 274.138L465.867 277.958L466.795 277.116L463.321 273.296Z" fill="#D8E7FF"/>
<path d="M423.52 365.578L423.026 366.73L427.774 368.764L428.269 367.613L423.52 365.578Z" fill="#D8E7FF"/>
<path d="M426.137 363.645L425.21 364.486L428.684 368.306L429.611 367.464L426.137 363.645Z" fill="#D8E7FF"/>
<path d="M385.816 348.593L385.321 349.744L390.07 351.779L390.564 350.627L385.816 348.593Z" fill="#D8E7FF"/>
<path d="M388.432 346.659L387.505 347.501L390.979 351.321L391.906 350.479L388.432 346.659Z" fill="#D8E7FF"/>
<path d="M424.103 342.464L419.306 344.381L419.771 345.543L424.568 343.626L424.103 342.464Z" fill="#D8E7FF"/>
<path d="M421.53 340.465L417.969 344.203L418.877 345.066L422.438 341.328L421.53 340.465Z" fill="#D8E7FF"/>
<path d="M453.226 349.497L448.429 351.414L448.894 352.575L453.692 350.658L453.226 349.497Z" fill="#D8E7FF"/>
<path d="M450.653 347.497L447.092 351.236L448.001 352.099L451.562 348.36L450.653 347.497Z" fill="#D8E7FF"/>
<path d="M389.763 321.421L389.268 322.573L394.017 324.608L394.511 323.456L389.763 321.421Z" fill="#D8E7FF"/>
<path d="M392.379 319.488L391.452 320.33L394.926 324.149L395.853 323.308L392.379 319.488Z" fill="#D8E7FF"/>
<path d="M446.534 316.81L441.736 318.726L442.201 319.888L446.999 317.971L446.534 316.81Z" fill="#D8E7FF"/>
<path d="M441.306 319.41L440.398 318.546L443.964 314.811L444.871 315.674L441.306 319.41Z" fill="#D8E7FF"/>
<path d="M420.8 276.712L420.306 277.863L425.054 279.898L425.549 278.747L420.8 276.712Z" fill="#D8E7FF"/>
<path d="M423.417 274.778L422.489 275.621L425.964 279.44L426.892 278.598L423.417 274.778Z" fill="#D8E7FF"/>
<path d="M387.516 294.614L387.022 295.764L391.771 297.799L392.265 296.648L387.516 294.614Z" fill="#D8E7FF"/>
<path d="M390.133 292.679L389.205 293.522L392.68 297.341L393.608 296.499L390.133 292.679Z" fill="#D8E7FF"/>
<path d="M397.748 270.668L392.952 272.589L393.418 273.75L398.214 271.829L397.748 270.668Z" fill="#D8E7FF"/>
<path d="M395.179 268.672L391.612 272.406L392.519 273.271L396.086 269.537L395.179 268.672Z" fill="#D8E7FF"/>
<path d="M378.934 254.292L378.44 255.443L383.189 257.478L383.683 256.327L378.934 254.292Z" fill="#D8E7FF"/>
<path d="M381.551 252.358L380.623 253.201L384.098 257.02L385.026 256.178L381.551 252.358Z" fill="#D8E7FF"/>
<path d="M416.154 257.538L411.359 259.459L411.825 260.621L416.621 258.699L416.154 257.538Z" fill="#D8E7FF"/>
<path d="M413.586 255.543L410.019 259.277L410.926 260.141L414.493 256.407L413.586 255.543Z" fill="#D8E7FF"/>
<path d="M420.795 307.219L416 309.14L416.466 310.302L421.261 308.381L420.795 307.219Z" fill="#D8E7FF"/>
<path d="M418.225 305.223L414.661 308.959L415.568 309.822L419.132 306.086L418.225 305.223Z" fill="#D8E7FF"/>
<path d="M484.001 326.769L479.204 328.686L479.67 329.848L484.467 327.931L484.001 326.769Z" fill="#D8E7FF"/>
<path d="M481.432 324.773L477.865 328.506L478.771 329.37L482.338 325.636L481.432 324.773Z" fill="#D8E7FF"/>
<path d="M469.081 304.21L468.586 305.362L473.335 307.397L473.829 306.245L469.081 304.21Z" fill="#D8E7FF"/>
<path d="M471.697 302.277L470.769 303.119L474.245 306.938L475.172 306.097L471.697 302.277Z" fill="#D8E7FF"/>
<path d="M499.314 278.903L494.517 280.82L494.982 281.981L499.779 280.065L499.314 278.903Z" fill="#D8E7FF"/>
<path d="M496.742 276.903L493.18 280.642L494.088 281.505L497.65 277.767L496.742 276.903Z" fill="#D8E7FF"/>
<path d="M490.843 306.128L490.349 307.28L495.097 309.315L495.592 308.163L490.843 306.128Z" fill="#D8E7FF"/>
<path d="M493.459 304.196L492.532 305.038L496.007 308.857L496.934 308.015L493.459 304.196Z" fill="#D8E7FF"/>
<path d="M452.136 298.103L450.907 298.351L465.949 372.593L467.178 372.345L452.136 298.103Z" fill="#44312F"/>
<path d="M484.759 263.9L473.002 297.457L474.185 297.871L485.941 264.314L484.759 263.9Z" fill="#44312F"/>
<path d="M465.513 249.043C464.985 245.99 463.759 243.099 461.93 240.596C460.101 238.093 457.719 236.046 454.969 234.612C445.164 229.582 440.107 222.451 439.056 212.168C436.977 191.817 428.12 185.836 428.03 185.778L428.715 184.729C429.099 184.979 438.164 191.1 440.304 212.041C441.307 221.862 446.149 228.681 455.542 233.498C458.493 235.004 461.046 237.183 462.995 239.86C464.945 242.537 466.234 245.635 466.76 248.903L465.513 249.043Z" fill="#44312F"/>
<path d="M324.081 480.768C316.747 480.677 309.458 479.614 302.404 477.608L302.685 476.71C302.959 476.797 330.309 485.14 344.826 474.226L345.392 474.976C339.479 479.422 331.532 480.768 324.081 480.768Z" fill="#44312F"/>
<path d="M282.686 543.563L281.758 543.414C281.819 543.038 287.949 505.598 296.375 490.832L297.192 491.297C288.85 505.917 282.747 543.189 282.686 543.563Z" fill="#44312F"/>
<path d="M301.595 545.594C301.584 545.396 300.525 525.677 305.298 511.057L306.191 511.348C301.473 525.803 302.523 545.345 302.534 545.54L301.595 545.594Z" fill="#44312F"/>
<path d="M349.765 538.763C349.73 538.528 346.196 515.156 341.465 501.77L342.352 501.457C347.113 514.928 350.66 538.389 350.695 538.624L349.765 538.763Z" fill="#44312F"/>
<path d="M330.717 472.908C329.959 472.913 329.201 472.869 328.449 472.776L328.592 471.846C328.701 471.866 339.382 473.392 343.027 465.298L343.884 465.684C341.029 472.022 334.268 472.908 330.717 472.908Z" fill="#44312F"/>
<path d="M353.694 441.765L349.467 471.5L350.397 471.632L354.625 441.897L353.694 441.765Z" fill="#44312F"/>
<path d="M294.688 443.523L293.759 443.665L298.079 471.955L299.008 471.813L294.688 443.523Z" fill="#44312F"/>
<path d="M333.994 425.839C332.361 425.852 330.761 425.377 329.399 424.476C328.037 423.574 326.976 422.287 326.351 420.779C325.688 422.331 324.531 423.621 323.06 424.45C321.588 425.279 319.885 425.6 318.212 425.365C310.636 424.202 308.831 414.453 308.814 414.355L309.6 414.216C309.617 414.308 311.325 423.501 318.334 424.575C323.97 425.449 325.917 419.847 325.996 419.608L326.76 419.63C327.244 421.288 328.284 422.728 329.705 423.711C331.127 424.693 332.843 425.157 334.567 425.025C340.131 424.693 342.314 416.888 342.556 414.974L343.349 415.074C343.074 417.251 340.784 425.454 334.615 425.821C334.403 425.833 334.196 425.839 333.994 425.839Z" fill="white"/>
<path d="M326.571 435.079L325.561 434.397C324.952 433.985 324.453 433.431 324.109 432.782C323.764 432.133 323.584 431.41 323.584 430.675V423.137H324.383V430.675C324.383 431.279 324.531 431.874 324.814 432.408C325.098 432.941 325.508 433.397 326.009 433.736L327.018 434.419L326.571 435.079Z" fill="white"/>
<path d="M326.613 427.542C326.319 427.542 326.031 427.455 325.787 427.292C325.542 427.129 325.352 426.897 325.239 426.625C325.126 426.354 325.097 426.055 325.154 425.767C325.212 425.478 325.353 425.214 325.561 425.006C325.769 424.798 326.034 424.657 326.323 424.599C326.612 424.542 326.911 424.571 327.182 424.684C327.454 424.796 327.687 424.987 327.85 425.231C328.014 425.475 328.101 425.763 328.101 426.057C328.1 426.45 327.944 426.828 327.665 427.107C327.386 427.385 327.008 427.542 326.613 427.542ZM326.613 425.369C326.477 425.369 326.344 425.409 326.231 425.485C326.117 425.56 326.029 425.668 325.977 425.793C325.925 425.919 325.911 426.057 325.938 426.191C325.964 426.324 326.03 426.447 326.126 426.543C326.223 426.639 326.345 426.705 326.479 426.731C326.612 426.758 326.751 426.744 326.877 426.692C327.003 426.64 327.11 426.552 327.186 426.439C327.262 426.326 327.302 426.193 327.302 426.057C327.302 425.874 327.229 425.699 327.1 425.57C326.971 425.441 326.796 425.369 326.613 425.369Z" fill="white"/>
<path d="M326.613 431.708C326.319 431.708 326.031 431.621 325.787 431.457C325.542 431.294 325.352 431.062 325.239 430.791C325.126 430.519 325.097 430.22 325.154 429.932C325.212 429.644 325.353 429.379 325.561 429.171C325.769 428.964 326.034 428.822 326.323 428.765C326.612 428.707 326.911 428.737 327.182 428.849C327.454 428.962 327.687 429.152 327.85 429.397C328.014 429.641 328.101 429.928 328.101 430.222C328.1 430.616 327.944 430.994 327.665 431.272C327.386 431.551 327.008 431.707 326.613 431.708ZM326.613 429.534C326.477 429.534 326.344 429.575 326.231 429.65C326.117 429.726 326.029 429.833 325.977 429.959C325.925 430.084 325.911 430.223 325.938 430.356C325.964 430.49 326.03 430.612 326.126 430.708C326.223 430.805 326.345 430.87 326.479 430.897C326.612 430.923 326.751 430.91 326.877 430.858C327.003 430.805 327.11 430.717 327.186 430.604C327.262 430.491 327.302 430.358 327.302 430.222C327.302 430.04 327.229 429.865 327.1 429.736C326.971 429.607 326.796 429.534 326.613 429.534Z" fill="white"/>
</g>
<defs>
<clipPath id="clip0_95_84">
<rect width="680" height="634" fill="white"/>
</clipPath>
</defs>
</svg>
