<svg width="51" height="67" viewBox="0 0 51 67" fill="none" xmlns="http://www.w3.org/2000/svg">
<g clip-path="url(#clip0_5_1493)">
<path d="M36.6027 6.74696C36.3329 6.59784 36.1333 6.34696 36.047 6.0483C35.9607 5.74964 35.9946 5.42708 36.1413 5.15006C36.2881 4.87303 36.536 4.66368 36.8316 4.56707C37.1273 4.47046 37.4471 4.4943 37.7223 4.63348L49.4873 10.5825C49.6257 10.6518 49.7488 10.7483 49.8495 10.8663C49.9502 10.9843 50.0265 11.1215 50.0741 11.2701C50.1217 11.4187 50.1397 11.5757 50.1269 11.7322C50.1141 11.8886 50.0709 12.0414 49.9997 12.1818C49.9285 12.3222 49.8307 12.4474 49.712 12.5503C49.5933 12.6532 49.4559 12.7316 49.3078 12.7813C49.1597 12.8309 49.0037 12.8507 48.8489 12.8394C48.694 12.8282 48.5433 12.7863 48.4054 12.7159L36.6405 6.76703L36.6027 6.74696Z" fill="#309C68"/>
<path d="M32.9766 38.6273C32.8695 38.5682 32.7724 38.4924 32.689 38.4026L23.2364 28.2656C23.1309 28.1524 23.0488 28.0191 22.9948 27.8732C22.9409 27.7273 22.916 27.5718 22.9218 27.4153C22.9276 27.2589 22.9638 27.1048 23.0284 26.9617C23.0931 26.8185 23.1848 26.6893 23.2985 26.5812C23.4121 26.4732 23.5455 26.3885 23.6908 26.332C23.8362 26.2755 23.9908 26.2483 24.1458 26.2519C24.3007 26.2555 24.453 26.2899 24.594 26.3531C24.7349 26.4163 24.8618 26.5071 24.9673 26.6202L34.42 36.7572C34.6115 36.9626 34.723 37.2313 34.7344 37.5149C34.7458 37.7985 34.6564 38.0782 34.4823 38.3038C34.3082 38.5294 34.0608 38.686 33.7847 38.7453C33.5087 38.8046 33.2221 38.7628 32.9766 38.6273Z" fill="#309C68"/>
<path d="M12.5634 61.8551C12.3033 61.7119 12.1082 61.4737 12.0173 61.1886L6.49534 43.9316C6.39951 43.6322 6.42607 43.3049 6.56917 43.0218C6.71228 42.7387 6.96022 42.523 7.25843 42.4221C7.55664 42.3212 7.8807 42.3434 8.15933 42.4838C8.43795 42.6242 8.6483 42.8713 8.74413 43.1708L14.266 60.4277C14.3386 60.6546 14.3415 60.8993 14.2742 61.1298C14.2069 61.3604 14.0726 61.5661 13.8889 61.7202C13.7051 61.8743 13.4803 61.9695 13.2439 61.9936C13.0075 62.0177 12.7703 61.9694 12.5634 61.8551Z" fill="#309C68"/>
</g>
<defs>
<clipPath id="clip0_5_1493">
<rect width="23.1121" height="62.7329" fill="white" transform="translate(30.3203) rotate(28.9027)"/>
</clipPath>
</defs>
</svg>
