<svg width="31" height="40" viewBox="0 0 31 40" fill="none" xmlns="http://www.w3.org/2000/svg">
<path d="M2.59439 39.1746C2.38449 38.8896 2.29411 38.534 2.34266 38.1844C2.39121 37.8347 2.57482 37.5187 2.85407 37.3044C5.53402 35.2457 8.57074 32.9129 10.22 29.8336C8.74679 30.0429 7.24504 29.9538 5.80364 29.5718C2.44682 28.6352 -0.566648 25.158 0.29949 21.4771C0.557613 20.4711 1.08616 19.5566 1.82779 18.8326C2.56943 18.1086 3.49583 17.6028 4.50661 17.3701C5.72676 17.0065 7.02251 16.9705 8.26438 17.2657C9.50625 17.5609 10.6508 18.1769 11.5836 19.0522C12.446 19.9882 13.1093 21.0898 13.5327 22.2895C13.9561 23.4891 14.1308 24.7616 14.0459 26.0286C14.091 26.0118 14.1357 25.9946 14.1801 25.9776C18.5142 24.3317 24.177 21.2523 26.5405 15.9305C27.1163 14.5685 27.4179 13.1049 27.4282 11.6232C27.4384 10.1415 27.1572 8.67081 26.6004 7.29502C26.2309 6.31459 25.6645 5.41964 24.9364 4.66578C24.2083 3.91192 23.334 3.31522 22.3679 2.91275C22.0337 2.78371 21.7637 2.52723 21.6173 2.19978C21.4708 1.87233 21.46 1.50074 21.5871 1.1667C21.7141 0.832665 21.9687 0.563554 22.2949 0.418603C22.621 0.273652 22.992 0.264709 23.3262 0.393754C24.635 0.927983 25.8218 1.72517 26.813 2.73588C27.8041 3.7466 28.5786 4.94931 29.0884 6.26953C29.7919 7.98325 30.1469 9.81875 30.1324 11.6681C30.118 13.5174 29.7344 15.3433 29.0044 17.0382C26.8371 21.9188 22.0453 25.8835 15.1473 28.5032C14.6202 28.7032 14.0595 28.9044 13.4731 29.0905C13.2441 29.7782 12.9574 30.4451 12.616 31.0838C10.6974 34.6905 7.4057 37.2189 4.50132 39.4496C4.36128 39.5573 4.2013 39.6361 4.03049 39.6817C3.85968 39.7273 3.6814 39.7386 3.50584 39.7151C3.33029 39.6916 3.16091 39.6337 3.00736 39.5447C2.8538 39.4557 2.71909 39.3374 2.61094 39.1965L2.59439 39.1746ZM10.1798 21.537C10.0275 21.3303 9.86006 21.135 9.67892 20.953C9.08456 20.4219 8.36434 20.0524 7.58776 19.8804C6.81118 19.7083 6.00448 19.7395 5.24555 19.9708C4.70423 20.0911 4.20474 20.3519 3.79717 20.7272C3.3896 21.1025 3.08828 21.5791 2.92344 22.1092C2.4362 24.1812 4.41685 26.3854 6.51486 26.9711C8.06317 27.3418 9.6772 27.3211 11.2114 26.9109C11.4053 25.9933 11.4139 25.0453 11.2367 24.1225C11.0596 23.1996 10.7002 22.3206 10.1798 21.537Z" fill="#546FFF"/>
</svg>
