<svg xmlns="http://www.w3.org/2000/svg" version="1.1" xmlns:xlink="http://www.w3.org/1999/xlink" xmlns:svgjs="http://svgjs.dev/svgjs" width="1000" height="118" viewBox="0 0 1000 118"><g transform="matrix(1,0,0,1,-0.6060606060606233,0.3597524000654033)"><svg viewBox="0 0 396 47" data-background-color="#ffffff" preserveAspectRatio="xMidYMid meet" height="118" width="1000" xmlns="http://www.w3.org/2000/svg" xmlns:xlink="http://www.w3.org/1999/xlink"><g id="tight-bounds" transform="matrix(1,0,0,1,0.2400000000000091,-0.14329121019554236)"><svg viewBox="0 0 395.52 47.28658242039109" height="47.28658242039109" width="395.52"><g><svg viewBox="0 0 501.0408643679616 59.902179735334784" height="47.28658242039109" width="395.52"><g><rect width="4.5017003229849815" height="59.902179735334784" x="89.23460822564425" y="0" fill="#546fff" opacity="1" stroke-width="0" stroke="transparent" fill-opacity="1" class="rect-o-0" data-fill-palette-color="primary" rx="1%" id="o-0" data-palette-color="#546fff"></rect></g><g transform="matrix(1,0,0,1,105.52086436796165,4.991848311277899)"><svg viewBox="0 0 395.52 49.918483112778986" height="49.918483112778986" width="395.52"><g id="textblocktransform"><svg viewBox="0 0 395.52 49.918483112778986" height="49.918483112778986" width="395.52" id="textblock"><g><svg viewBox="0 0 395.52 49.918483112778986" height="49.918483112778986" width="395.52"><g transform="matrix(1,0,0,1,0,0)"><svg width="395.52" viewBox="2.1500000953674316 -31.700000762939453 253.1300048828125 31.950000762939453" height="49.918483112778986" data-palette-color="#546fff"><path d="M26.05-9.05Q26.05-6.7 24.98-5.03 23.9-3.35 21.45-1.95L21.45-1.95Q19.8-0.95 17.6-0.45 15.4 0.05 13.15 0.05L13.15 0.05Q10.85 0.05 7.45-1.45L7.45-1.45Q5-2.65 3.58-4.3 2.15-5.95 2.15-7.9L2.15-7.9Q2.15-9.25 2.75-9.88 3.35-10.5 4.7-10.5L4.7-10.5Q5.4-10.5 6.15-9.93 6.9-9.35 7.05-8.8L7.05-8.8Q7.75-6.75 9.5-5.68 11.25-4.6 13.85-4.6L13.85-4.6Q16.85-4.6 18.88-5.7 20.9-6.8 20.9-8.65L20.9-8.65Q20.9-10.45 18.7-11.85 16.5-13.25 14.2-13.8L14.2-13.8Q10.9-14.7 8.35-15.95L8.35-15.95Q5.7-17.25 4.4-19.15 3.1-21.05 3.1-23.15L3.1-23.15Q3.1-25.1 4.45-27.13 5.8-29.15 7.65-30.05L7.65-30.05Q8.65-30.55 11.08-31.13 13.5-31.7 14.6-31.7L14.6-31.7Q16.05-31.7 17.8-31.35 19.55-31 20.65-30.35L20.65-30.35Q22.85-29.1 23.9-28.1 24.95-27.1 24.95-25.6L24.95-25.6Q24.95-24.7 24.28-24 23.6-23.3 21.95-23.3L21.95-23.3Q21.55-23.3 21.15-23.65 20.75-24 20.15-24.7L20.15-24.7Q19.35-25.75 18.6-26.1L18.6-26.1Q17.85-26.35 16.43-26.65 15-26.95 13.9-26.95L13.9-26.95Q12.7-26.95 11.4-26.45 10.1-25.95 9.22-25.03 8.35-24.1 8.35-22.9L8.35-22.9Q8.35-21.9 9.28-21.18 10.2-20.45 11.5-20L11.5-20Q13-19.4 14.75-18.95L14.75-18.95Q17.05-18.25 18.53-17.68 20-17.1 21.4-16.25L21.4-16.25Q23.85-14.8 24.95-13.28 26.05-11.75 26.05-9.05L26.05-9.05ZM30.35-10.6Q30.35-12.5 31.05-14.43 31.75-16.35 32.9-17.95L32.9-17.95Q34.05-19.55 36.55-20.58 39.05-21.6 41-21.6L41-21.6Q43-21.6 45.07-21.05 47.15-20.5 47.95-19.35L47.95-19.35Q49.8-16.75 49.8-14.25L49.8-14.25Q49.8-12.9 49.22-11.95 48.65-11 47.6-9.9L47.6-9.9Q46.75-9 44.92-8.7 43.1-8.4 41.3-8.4L41.3-8.4Q40.15-8.4 38.5-8.63 36.85-8.85 35.3-9.2L35.3-9.2Q35.4-8.2 35.8-7.25 36.2-6.3 36.75-5.8L36.75-5.8Q37.75-4.85 38.82-4.6 39.9-4.35 41.6-4.35L41.6-4.35Q43.4-4.35 44.95-4.95L44.95-4.95Q46.2-5.4 47-5.4L47-5.4Q47.95-5.4 48.45-4.83 48.95-4.25 48.95-3.35L48.95-3.35Q48.95-2.1 47.5-1.3 46.05-0.5 44.17-0.13 42.3 0.25 41.15 0.25L41.15 0.25Q38.8 0.25 36.6-0.6 34.4-1.45 32.95-3L32.95-3Q31.75-4.4 31.05-6.38 30.35-8.35 30.35-10.6L30.35-10.6ZM41.25-17.35Q40.15-17.35 39.05-16.93 37.95-16.5 37.25-15.75L37.25-15.75Q36.35-14.8 36.02-14.23 35.7-13.65 35.6-12.65L35.6-12.65Q36.85-12.25 40.8-12.25L40.8-12.25Q42.95-12.25 44.12-12.9 45.3-13.55 45.3-14.6L45.3-14.6Q45.3-15.65 44-16.5 42.7-17.35 41.25-17.35L41.25-17.35ZM72.35-16.7Q72.35-14.5 70.1-14.5L70.1-14.5Q69.35-14.5 68.85-14.85 68.35-15.2 67.75-15.9L67.75-15.9Q66.25-17.55 65.15-17.55L65.15-17.55Q63.7-17.55 62.32-16.7 60.95-15.85 60.1-14.3 59.25-12.75 59.25-10.85L59.25-10.85Q59.25-8.75 60.07-7.35 60.9-5.95 62.65-4.95L62.65-4.95Q63.3-4.6 64.17-4.4 65.05-4.2 65.7-4.2L65.7-4.2Q67.15-4.2 69.35-5.35L69.35-5.35Q70.15-5.75 70.7-5.95 71.25-6.15 71.85-6.15L71.85-6.15Q72.4-6.15 73.1-5.65 73.8-5.15 73.8-4.4L73.8-4.4Q73.8-2.9 72.4-1.88 71-0.85 68.97-0.33 66.95 0.2 65.1 0.2L65.1 0.2Q62.15 0.2 59.62-1.15 57.1-2.5 55.6-4.88 54.1-7.25 54.1-10.25L54.1-10.25Q54.1-13.45 55.55-16.1 57-18.75 59.45-20.25 61.9-21.75 64.8-21.75L64.8-21.75Q66.45-21.75 68.2-21.15 69.95-20.55 71.15-19.4 72.35-18.25 72.35-16.7L72.35-16.7ZM77.09-16.85Q76.69-16.85 76.37-17.18 76.04-17.5 76.04-17.95L76.04-17.95Q76.04-19.1 77.04-20.1L77.04-20.1Q77.34-20.25 78.24-20.6 79.14-20.95 79.84-20.95L79.84-20.95Q81.74-20.95 82.94-19.93 84.14-18.9 84.14-17L84.14-17Q84.14-16.45 83.94-14.65L83.94-14.65Q83.74-12.55 83.74-11.4L83.74-11.4Q83.74-7.9 84.69-5.75L84.69-5.75Q85.04-5.05 85.79-4.65 86.54-4.25 87.14-4.25L87.14-4.25Q88.59-4.25 89.49-4.75 90.39-5.25 91.44-6.35L91.44-6.35Q92.49-7.45 92.82-8.85 93.14-10.25 93.29-12.7L93.29-12.7Q93.39-14.3 93.49-15.05L93.49-15.05Q93.74-17.45 93.74-19.15L93.74-19.15Q93.74-20.25 94.34-20.98 94.94-21.7 95.99-21.7L95.99-21.7Q96.59-21.7 97.37-21.33 98.14-20.95 98.39-20.45L98.39-20.45Q98.69-19.95 98.69-18.8L98.69-18.8Q98.69-18.2 98.54-17.65L98.54-17.65Q98.19-16.4 98.19-14.65L98.19-14.65 98.24-12.05Q98.24-8.5 98.74-6.8L98.74-6.8Q98.99-6 99.44-5.18 99.89-4.35 100.29-3.8L100.29-3.8Q101.29-2.7 101.59-2.27 101.89-1.85 101.89-1.45L101.89-1.45Q101.89-0.85 101.32-0.33 100.74 0.2 100.09 0.2L100.09 0.2Q98.24 0.2 96.89-1.05 95.54-2.3 94.89-4.3L94.89-4.3Q93.19-2.35 91.74-1.15L91.74-1.15Q90.74-0.45 89.29-0.13 87.84 0.2 86.39 0.2L86.39 0.2Q84.44 0.2 82.44-1.4 80.44-3 79.74-5.1L79.74-5.1Q79.69-5.2 79.47-5.9 79.24-6.6 79.24-8L79.24-8Q79.24-9.85 79.44-12.65L79.44-12.65Q79.59-14.45 79.59-15.95L79.59-15.95Q79.59-16.4 79.27-16.7 78.94-17 78.54-17L78.54-17Q78.24-17 77.87-16.93 77.49-16.85 77.09-16.85L77.09-16.85ZM113.09-2Q113.09-1.15 112.44-0.5 111.79 0.15 110.84 0.15L110.84 0.15Q109.34 0.15 108.64-0.43 107.94-1 107.94-2.55L107.94-2.55Q107.94-4.4 107.84-7.4L107.84-7.4Q107.74-9.9 107.74-11.6L107.74-11.6Q107.74-12.4 107.84-13.7L107.84-13.7Q107.94-14.9 107.94-15.5L107.94-15.5Q107.79-16.45 107.19-17.07 106.59-17.7 105.64-17.7L105.64-17.7Q105.19-17.7 104.89-18.13 104.59-18.55 104.59-19L104.59-19Q104.59-20.15 105.52-20.75 106.44-21.35 107.74-21.35L107.74-21.35Q110.44-21.35 111.49-18.15L111.49-18.15Q112.79-19.65 114.47-20.58 116.14-21.5 117.69-21.5L117.69-21.5Q119.54-21.5 121.07-20.5 122.59-19.5 122.59-17.8L122.59-17.8Q122.59-16.85 121.77-15.85 120.94-14.85 120.09-14.85L120.09-14.85Q119.64-14.85 119.32-15.08 118.99-15.3 118.54-15.75L118.54-15.75Q118.04-16.25 117.69-16.48 117.34-16.7 116.89-16.7L116.89-16.7Q116.09-16.7 115.39-16.45 114.69-16.2 114.44-15.85L114.44-15.85Q113.64-14.6 113.27-13.6 112.89-12.6 112.89-11.45L112.89-11.45Q112.89-10.6 112.84-10.1L112.84-10.1 112.79-7.25Q112.79-6.6 112.84-5.8 112.89-5 112.94-4.6L112.94-4.6Q113.09-3.25 113.09-2L113.09-2ZM125.14-10.6Q125.14-12.5 125.84-14.43 126.54-16.35 127.69-17.95L127.69-17.95Q128.84-19.55 131.34-20.58 133.84-21.6 135.79-21.6L135.79-21.6Q137.79-21.6 139.86-21.05 141.94-20.5 142.74-19.35L142.74-19.35Q144.59-16.75 144.59-14.25L144.59-14.25Q144.59-12.9 144.01-11.95 143.44-11 142.39-9.9L142.39-9.9Q141.54-9 139.71-8.7 137.89-8.4 136.09-8.4L136.09-8.4Q134.94-8.4 133.29-8.63 131.64-8.85 130.09-9.2L130.09-9.2Q130.19-8.2 130.59-7.25 130.99-6.3 131.54-5.8L131.54-5.8Q132.54-4.85 133.61-4.6 134.69-4.35 136.39-4.35L136.39-4.35Q138.19-4.35 139.74-4.95L139.74-4.95Q140.99-5.4 141.79-5.4L141.79-5.4Q142.74-5.4 143.24-4.83 143.74-4.25 143.74-3.35L143.74-3.35Q143.74-2.1 142.29-1.3 140.84-0.5 138.96-0.13 137.09 0.25 135.94 0.25L135.94 0.25Q133.59 0.25 131.39-0.6 129.19-1.45 127.74-3L127.74-3Q126.54-4.4 125.84-6.38 125.14-8.35 125.14-10.6L125.14-10.6ZM136.04-17.35Q134.94-17.35 133.84-16.93 132.74-16.5 132.04-15.75L132.04-15.75Q131.14-14.8 130.81-14.23 130.49-13.65 130.39-12.65L130.39-12.65Q131.64-12.25 135.59-12.25L135.59-12.25Q137.74-12.25 138.91-12.9 140.09-13.55 140.09-14.6L140.09-14.6Q140.09-15.65 138.79-16.5 137.49-17.35 136.04-17.35L136.04-17.35ZM184.03-9.05Q184.03-6.7 182.96-5.03 181.88-3.35 179.43-1.95L179.43-1.95Q177.78-0.95 175.58-0.45 173.38 0.05 171.13 0.05L171.13 0.05Q168.83 0.05 165.43-1.45L165.43-1.45Q162.98-2.65 161.56-4.3 160.13-5.95 160.13-7.9L160.13-7.9Q160.13-9.25 160.73-9.88 161.33-10.5 162.68-10.5L162.68-10.5Q163.38-10.5 164.13-9.93 164.88-9.35 165.03-8.8L165.03-8.8Q165.73-6.75 167.48-5.68 169.23-4.6 171.83-4.6L171.83-4.6Q174.83-4.6 176.86-5.7 178.88-6.8 178.88-8.65L178.88-8.65Q178.88-10.45 176.68-11.85 174.48-13.25 172.18-13.8L172.18-13.8Q168.88-14.7 166.33-15.95L166.33-15.95Q163.68-17.25 162.38-19.15 161.08-21.05 161.08-23.15L161.08-23.15Q161.08-25.1 162.43-27.13 163.78-29.15 165.63-30.05L165.63-30.05Q166.63-30.55 169.06-31.13 171.48-31.7 172.58-31.7L172.58-31.7Q174.03-31.7 175.78-31.35 177.53-31 178.63-30.35L178.63-30.35Q180.83-29.1 181.88-28.1 182.93-27.1 182.93-25.6L182.93-25.6Q182.93-24.7 182.26-24 181.58-23.3 179.93-23.3L179.93-23.3Q179.53-23.3 179.13-23.65 178.73-24 178.13-24.7L178.13-24.7Q177.33-25.75 176.58-26.1L176.58-26.1Q175.83-26.35 174.41-26.65 172.98-26.95 171.88-26.95L171.88-26.95Q170.68-26.95 169.38-26.45 168.08-25.95 167.21-25.03 166.33-24.1 166.33-22.9L166.33-22.9Q166.33-21.9 167.26-21.18 168.18-20.45 169.48-20L169.48-20Q170.98-19.4 172.73-18.95L172.73-18.95Q175.03-18.25 176.51-17.68 177.98-17.1 179.38-16.25L179.38-16.25Q181.83-14.8 182.93-13.28 184.03-11.75 184.03-9.05L184.03-9.05ZM187.78-16.85Q187.38-16.85 187.06-17.18 186.73-17.5 186.73-17.95L186.73-17.95Q186.73-19.1 187.73-20.1L187.73-20.1Q188.03-20.25 188.93-20.6 189.83-20.95 190.53-20.95L190.53-20.95Q192.43-20.95 193.63-19.93 194.83-18.9 194.83-17L194.83-17Q194.83-16.45 194.63-14.65L194.63-14.65Q194.43-12.55 194.43-11.4L194.43-11.4Q194.43-7.9 195.38-5.75L195.38-5.75Q195.73-5.05 196.48-4.65 197.23-4.25 197.83-4.25L197.83-4.25Q199.28-4.25 200.18-4.75 201.08-5.25 202.13-6.35L202.13-6.35Q203.18-7.45 203.51-8.85 203.83-10.25 203.98-12.7L203.98-12.7Q204.08-14.3 204.18-15.05L204.18-15.05Q204.43-17.45 204.43-19.15L204.43-19.15Q204.43-20.25 205.03-20.98 205.63-21.7 206.68-21.7L206.68-21.7Q207.28-21.7 208.06-21.33 208.83-20.95 209.08-20.45L209.08-20.45Q209.38-19.95 209.38-18.8L209.38-18.8Q209.38-18.2 209.23-17.65L209.23-17.65Q208.88-16.4 208.88-14.65L208.88-14.65 208.93-12.05Q208.93-8.5 209.43-6.8L209.43-6.8Q209.68-6 210.13-5.18 210.58-4.35 210.98-3.8L210.98-3.8Q211.98-2.7 212.28-2.27 212.58-1.85 212.58-1.45L212.58-1.45Q212.58-0.85 212.01-0.33 211.43 0.2 210.78 0.2L210.78 0.2Q208.93 0.2 207.58-1.05 206.23-2.3 205.58-4.3L205.58-4.3Q203.88-2.35 202.43-1.15L202.43-1.15Q201.43-0.45 199.98-0.13 198.53 0.2 197.08 0.2L197.08 0.2Q195.13 0.2 193.13-1.4 191.13-3 190.43-5.1L190.43-5.1Q190.38-5.2 190.16-5.9 189.93-6.6 189.93-8L189.93-8Q189.93-9.85 190.13-12.65L190.13-12.65Q190.28-14.45 190.28-15.95L190.28-15.95Q190.28-16.4 189.96-16.7 189.63-17 189.23-17L189.23-17Q188.93-17 188.56-16.93 188.18-16.85 187.78-16.85L187.78-16.85ZM223.78-2Q223.78-1.15 223.13-0.5 222.48 0.15 221.53 0.15L221.53 0.15Q220.03 0.15 219.33-0.43 218.63-1 218.63-2.55L218.63-2.55Q218.63-4.4 218.53-7.4L218.53-7.4Q218.43-9.9 218.43-11.6L218.43-11.6Q218.43-12.4 218.53-13.7L218.53-13.7Q218.63-14.9 218.63-15.5L218.63-15.5Q218.48-16.45 217.88-17.07 217.28-17.7 216.33-17.7L216.33-17.7Q215.88-17.7 215.58-18.13 215.28-18.55 215.28-19L215.28-19Q215.28-20.15 216.2-20.75 217.13-21.35 218.43-21.35L218.43-21.35Q221.13-21.35 222.18-18.15L222.18-18.15Q223.48-19.65 225.15-20.58 226.83-21.5 228.38-21.5L228.38-21.5Q230.23-21.5 231.75-20.5 233.28-19.5 233.28-17.8L233.28-17.8Q233.28-16.85 232.45-15.85 231.63-14.85 230.78-14.85L230.78-14.85Q230.33-14.85 230-15.08 229.68-15.3 229.23-15.75L229.23-15.75Q228.73-16.25 228.38-16.48 228.03-16.7 227.58-16.7L227.58-16.7Q226.78-16.7 226.08-16.45 225.38-16.2 225.13-15.85L225.13-15.85Q224.33-14.6 223.95-13.6 223.58-12.6 223.58-11.45L223.58-11.45Q223.58-10.6 223.53-10.1L223.53-10.1 223.48-7.25Q223.48-6.6 223.53-5.8 223.58-5 223.63-4.6L223.63-4.6Q223.78-3.25 223.78-2L223.78-2ZM235.83-10.6Q235.83-12.5 236.53-14.43 237.23-16.35 238.38-17.95L238.38-17.95Q239.53-19.55 242.03-20.58 244.53-21.6 246.48-21.6L246.48-21.6Q248.48-21.6 250.55-21.05 252.63-20.5 253.43-19.35L253.43-19.35Q255.28-16.75 255.28-14.25L255.28-14.25Q255.28-12.9 254.7-11.95 254.13-11 253.08-9.9L253.08-9.9Q252.23-9 250.4-8.7 248.58-8.4 246.78-8.4L246.78-8.4Q245.63-8.4 243.98-8.63 242.33-8.85 240.78-9.2L240.78-9.2Q240.88-8.2 241.28-7.25 241.68-6.3 242.23-5.8L242.23-5.8Q243.23-4.85 244.3-4.6 245.38-4.35 247.08-4.35L247.08-4.35Q248.88-4.35 250.43-4.95L250.43-4.95Q251.68-5.4 252.48-5.4L252.48-5.4Q253.43-5.4 253.93-4.83 254.43-4.25 254.43-3.35L254.43-3.35Q254.43-2.1 252.98-1.3 251.53-0.5 249.65-0.13 247.78 0.25 246.63 0.25L246.63 0.25Q244.28 0.25 242.08-0.6 239.88-1.45 238.43-3L238.43-3Q237.23-4.4 236.53-6.38 235.83-8.35 235.83-10.6L235.83-10.6ZM246.73-17.35Q245.63-17.35 244.53-16.93 243.43-16.5 242.73-15.75L242.73-15.75Q241.83-14.8 241.5-14.23 241.18-13.65 241.08-12.65L241.08-12.65Q242.33-12.25 246.28-12.25L246.28-12.25Q248.43-12.25 249.6-12.9 250.78-13.55 250.78-14.6L250.78-14.6Q250.78-15.65 249.48-16.5 248.18-17.35 246.73-17.35L246.73-17.35Z" opacity="1" transform="matrix(1,0,0,1,0,0)" fill="#546fff" class="undefined-text-0" data-fill-palette-color="primary" id="text-0"></path></svg></g></svg></g></svg></g></svg></g><g transform="matrix(1,0,0,1,0,12.70425395220225)"><svg viewBox="0 0 77.45005240631184 34.49367183093028" height="34.49367183093028" width="77.45005240631184"><g><svg xmlns="http://www.w3.org/2000/svg" xmlns:xlink="http://www.w3.org/1999/xlink" version="1.1" x="0" y="0" viewBox="5 30 90 40.08300018310547" enable-background="new 0 0 100 100" xml:space="preserve" height="34.49367183093028" width="77.45005240631184" class="icon-icon-0" data-fill-palette-color="accent" id="icon-0"><path d="M39.213 35.87c-7.814-7.814-20.53-7.814-28.343 0C7.085 39.654 5 44.688 5 50.041s2.085 10.387 5.87 14.171c3.785 3.785 8.818 5.87 14.172 5.87 5.353 0 10.386-2.085 14.171-5.87L64.04 39.385l0.136-0.128c5.945-5.945 15.62-5.944 21.565 0.001 2.88 2.881 4.466 6.71 4.466 10.783 0 4.072-1.586 7.903-4.466 10.783-2.879 2.879-6.71 4.465-10.782 4.465-4.074 0-7.902-1.586-10.781-4.465l-5.671-5.653c-0.938-0.937-2.454-0.937-3.392 0-0.936 0.938-0.936 2.454 0 3.393l6.067 6.043 0.011-0.001c3.733 3.536 8.603 5.477 13.766 5.477 5.354 0 10.387-2.085 14.171-5.87C92.916 60.428 95 55.395 95 50.041s-2.084-10.387-5.87-14.171C85.346 32.084 80.313 30 74.959 30c-4.995 0-9.714 1.816-13.352 5.09l-0.026-0.024L35.824 60.824c-2.881 2.879-6.71 4.465-10.783 4.465-4.073 0-7.903-1.586-10.783-4.465-2.879-2.88-4.466-6.711-4.466-10.785 0-4.073 1.585-7.903 4.466-10.783 5.946-5.945 15.621-5.944 21.566 0.001l5.713 5.722c0.938 0.935 2.453 0.935 3.392-0.001 0.937-0.937 0.937-2.453 0-3.391L39.213 35.87z" fill="#546fff" data-fill-palette-color="accent"></path></svg></g></svg></g></svg></g><defs></defs></svg><rect width="395.52" height="47.28658242039109" fill="none" stroke="none" visibility="hidden"></rect></g></svg></g></svg>