<svg width="102" height="27" viewBox="0 0 102 27" fill="none" xmlns="http://www.w3.org/2000/svg">
<path d="M101.947 15.8216C102.124 15.2986 101.845 14.7307 101.322 14.5531L92.7996 11.6589C92.2767 11.4813 91.7088 11.7612 91.5312 12.2842C91.3536 12.8071 91.6335 13.375 92.1565 13.5526L99.7315 16.1253L97.1589 23.7004C96.9813 24.2233 97.2612 24.7912 97.7842 24.9688C98.3071 25.1464 98.875 24.8665 99.0526 24.3435L101.947 15.8216ZM87.2445 22.2809L87.6866 23.1778L87.2445 22.2809ZM9.85427 8.00793L9.20833 7.24454L9.85427 8.00793ZM1.64594 16.2634L3.85951 14.3904L2.56763 12.8636L0.354058 14.7366L1.64594 16.2634ZM8.28664 10.6443L10.5002 8.77131L9.20833 7.24454L6.99476 9.11756L8.28664 10.6443ZM10.5002 8.77131C11.481 7.94143 12.5012 7.19306 13.5529 6.52502L12.4805 4.8368C11.3522 5.55351 10.2587 6.3558 9.20833 7.24454L10.5002 8.77131ZM20.4257 3.39676C22.8693 2.67284 25.3844 2.30065 27.8956 2.27105L27.8721 0.27119C25.1791 0.30293 22.4806 0.702069 19.8576 1.47915L20.4257 3.39676ZM35.3934 3.21469C37.819 3.86561 40.1634 4.84941 42.3515 6.15625L43.377 4.4392C41.0283 3.03641 38.5129 1.98107 35.9118 1.28303L35.3934 3.21469ZM48.2348 10.8899C49.0882 11.7978 49.8911 12.7756 50.6357 13.8226L52.2656 12.6635C51.4682 11.5423 50.6076 10.494 49.692 9.52008L48.2348 10.8899ZM50.6357 13.8226C51.3123 14.7741 52.0368 15.6748 52.8038 16.5234L54.2875 15.1822C53.5725 14.3912 52.8969 13.5513 52.2656 12.6635L50.6357 13.8226ZM58.0115 21.071C59.932 22.3842 61.9903 23.4565 64.1379 24.2758L64.8508 22.4072C62.8485 21.6433 60.93 20.6438 59.1404 19.4201L58.0115 21.071ZM70.8405 25.9682C73.1196 26.2666 75.4402 26.3 77.7539 26.0559L77.5441 24.0669C75.388 24.2944 73.225 24.2634 71.1001 23.9851L70.8405 25.9682ZM84.4962 24.5256C85.5742 24.1429 86.6394 23.6941 87.6866 23.1778L86.8023 21.384C85.8252 21.8656 84.8319 22.2841 83.8271 22.6408L84.4962 24.5256ZM87.6866 23.1778L91.1255 21.4826L90.2412 19.6887L86.8023 21.384L87.6866 23.1778ZM98.0033 18.0922L101.442 16.3969L100.558 14.6031L97.119 16.2983L98.0033 18.0922Z" fill="#309C68"/>
</svg>
