<svg width="520" height="508" viewBox="0 0 520 508" fill="none" xmlns="http://www.w3.org/2000/svg">
<g clip-path="url(#clip0_48_606)">
<path fill-rule="evenodd" clip-rule="evenodd" d="M99.9015 507.079H450.066L364.1 27.2144H46.863L99.9015 507.079Z" fill="#546FFF"/>
<path fill-rule="evenodd" clip-rule="evenodd" d="M180.64 507.079C180.64 507.079 123.353 385.89 110.704 258.847C90.1866 52.7739 46.8625 27.2144 46.8625 27.2144H390.327C390.327 27.2144 431.123 47.9815 450.064 258.847C461.488 386.03 520 507.079 520 507.079H180.64Z" fill="#EAF2FF"/>
<path fill-rule="evenodd" clip-rule="evenodd" d="M134.382 107.657H168.378L160.607 73.7358H126.611L134.382 107.657Z" fill="#546FFF"/>
<path d="M377.701 96.51H184.408V102.325H377.701V96.51Z" fill="#546FFF"/>
<path fill-rule="evenodd" clip-rule="evenodd" d="M147.494 168.714H181.491L173.723 134.793H139.723L147.494 168.714Z" fill="#546FFF"/>
<path d="M390.814 157.568H197.521V163.383H390.814V157.568Z" fill="#546FFF"/>
<path fill-rule="evenodd" clip-rule="evenodd" d="M155.266 241.403H189.262L181.491 207.482H147.494L155.266 241.403Z" fill="#546FFF"/>
<path d="M398.583 230.26H205.289V236.075H398.583V230.26Z" fill="#546FFF"/>
<path fill-rule="evenodd" clip-rule="evenodd" d="M168.742 314.091H202.738L194.97 280.17H160.971L168.742 314.091Z" fill="#546FFF"/>
<path d="M412.06 302.948H218.767V308.763H412.06V302.948Z" fill="#546FFF"/>
<path fill-rule="evenodd" clip-rule="evenodd" d="M192.54 386.78H226.536L218.765 352.859H184.769L192.54 386.78Z" fill="#546FFF"/>
<path d="M435.859 375.637H242.562V381.452H435.859V375.637Z" fill="#546FFF"/>
<path fill-rule="evenodd" clip-rule="evenodd" d="M215.61 459.468H249.607L241.835 425.547H207.839L215.61 459.468Z" fill="#546FFF"/>
<path d="M458.929 448.326H265.635V454.141H458.929V448.326Z" fill="#546FFF"/>
<path d="M150.652 99.3578C151.262 99.3577 151.856 99.167 152.351 98.8126C152.846 98.4581 153.217 97.9577 153.412 97.3817L158.148 83.3889C158.27 83.0272 158.32 82.645 158.295 82.264C158.269 81.8831 158.169 81.5109 157.999 81.1686C157.829 80.8264 157.594 80.5209 157.306 80.2695C157.018 80.0181 156.683 79.8258 156.321 79.7035C155.958 79.5812 155.575 79.5314 155.193 79.5568C154.811 79.5822 154.438 79.6824 154.095 79.8517C153.752 80.021 153.446 80.256 153.194 80.5434C152.942 80.8307 152.75 81.1647 152.627 81.5264L149.167 91.7596L116.316 67.7553C115.692 67.299 114.913 67.1085 114.149 67.2257C113.384 67.3428 112.698 67.7581 112.241 68.3801C111.784 69.0021 111.593 69.78 111.71 70.5425C111.828 71.305 112.244 71.9897 112.867 72.446L148.928 98.7955C149.429 99.1601 150.032 99.3569 150.652 99.3578Z" fill="white"/>
<path d="M163.646 160.053C163.945 160.052 164.242 160.006 164.528 159.917C164.964 159.779 165.361 159.54 165.687 159.221C166.014 158.901 166.26 158.509 166.406 158.077L171.141 144.084C171.264 143.722 171.314 143.34 171.289 142.959C171.264 142.578 171.164 142.205 170.994 141.863C170.824 141.52 170.589 141.215 170.301 140.963C170.013 140.711 169.678 140.519 169.315 140.396C168.952 140.274 168.569 140.224 168.187 140.25C167.805 140.275 167.432 140.376 167.089 140.545C166.746 140.715 166.44 140.95 166.188 141.237C165.936 141.525 165.743 141.859 165.621 142.221L162.16 152.454L129.309 128.45C129.001 128.224 128.651 128.061 128.279 127.97C127.907 127.879 127.521 127.862 127.142 127.92C126.764 127.978 126.401 128.11 126.073 128.308C125.746 128.506 125.461 128.767 125.234 129.075C125.008 129.383 124.845 129.732 124.753 130.103C124.662 130.474 124.645 130.86 124.703 131.237C124.762 131.615 124.894 131.977 125.092 132.304C125.291 132.631 125.552 132.915 125.86 133.141L161.921 159.491C162.422 159.855 163.026 160.052 163.646 160.053Z" fill="white"/>
<path d="M171.05 232.372C171.659 232.373 172.254 232.182 172.749 231.827C173.244 231.473 173.615 230.972 173.81 230.396L178.546 216.404C178.669 216.042 178.72 215.659 178.695 215.277C178.671 214.896 178.571 214.523 178.401 214.18C178.232 213.837 177.996 213.53 177.708 213.278C177.419 213.026 177.084 212.834 176.721 212.711C176.358 212.589 175.974 212.539 175.592 212.564C175.209 212.59 174.836 212.691 174.492 212.861C174.149 213.031 173.843 213.267 173.591 213.555C173.339 213.843 173.147 214.178 173.025 214.541L169.564 224.774L136.714 200.77C136.405 200.544 136.055 200.381 135.683 200.29C135.311 200.199 134.925 200.182 134.547 200.24C134.168 200.298 133.805 200.43 133.478 200.628C133.15 200.826 132.865 201.087 132.639 201.395C132.412 201.702 132.249 202.052 132.158 202.423C132.067 202.794 132.05 203.179 132.108 203.557C132.166 203.934 132.298 204.297 132.497 204.623C132.695 204.95 132.956 205.235 133.265 205.46L169.325 231.81C169.826 232.175 170.43 232.371 171.05 232.372Z" fill="white"/>
<g clip-path="url(#clip1_48_606)">
<path d="M76.1774 9.1897H55.6143V31.9727H76.1774V9.1897Z" fill="#2B4968"/>
<path fill-rule="evenodd" clip-rule="evenodd" d="M96.4798 14.8145C95.6156 14.2906 94.5771 14.1286 93.5926 14.3642C92.6081 14.5998 91.7582 15.2137 91.2298 16.071L84.2354 27.4269L90.7502 31.3776L97.7447 20.0217C98.0064 19.5974 98.1811 19.1261 98.2592 18.6348C98.3372 18.1434 98.317 17.6416 98.1995 17.1581C98.0821 16.6745 97.8697 16.2187 97.5746 15.8166C97.2796 15.4144 96.9075 15.074 96.4798 14.8145Z" fill="#546FFF"/>
<path fill-rule="evenodd" clip-rule="evenodd" d="M35.3123 14.8146C34.8845 15.0739 34.5124 15.4143 34.2171 15.8164C33.9219 16.2184 33.7093 16.6742 33.5917 17.1578C33.474 17.6413 33.4536 18.1432 33.5314 18.6346C33.6092 19.126 33.7839 19.5973 34.0454 20.0218L41.0399 31.3776L47.5569 27.427L40.5623 16.071C40.0338 15.2139 39.184 14.6001 38.1995 14.3645C37.215 14.1289 36.1765 14.2908 35.3123 14.8146Z" fill="#546FFF"/>
<path fill-rule="evenodd" clip-rule="evenodd" d="M79.6442 19.2886C66.8987 16.5904 53.633 17.7027 41.5248 22.485C29.4165 27.2673 19.0095 35.5048 11.6197 46.1556C4.22993 56.8064 0.189275 69.3922 0.00876491 82.3216C-0.171745 95.2509 3.516 107.943 10.6056 118.793C17.6953 129.643 27.8683 138.163 39.8384 143.276C51.8085 148.389 65.038 149.866 77.8539 147.519C90.6698 145.172 102.497 139.107 111.838 130.092C121.18 121.076 127.618 109.514 130.337 96.8677C133.947 79.9134 130.64 62.2304 121.139 47.6903C111.638 33.1501 96.7176 22.9376 79.6442 19.2886Z" fill="#546FFF"/>
<path fill-rule="evenodd" clip-rule="evenodd" d="M77.1673 30.8068C66.7179 28.5948 55.842 29.5068 45.915 33.4277C35.988 37.3486 27.4557 44.1021 21.3972 52.8342C15.3386 61.5664 12.0259 71.8849 11.878 82.4851C11.73 93.0853 14.7535 103.491 20.566 112.386C26.3785 121.282 34.719 128.267 44.5328 132.459C54.3466 136.651 65.1929 137.862 75.7001 135.938C86.2072 134.013 95.9034 129.041 103.562 121.649C111.221 114.258 116.499 104.778 118.728 94.4106C121.689 80.5105 118.977 66.0128 111.188 54.0919C103.398 42.1711 91.1651 33.7983 77.1673 30.8068Z" fill="#F2FFF9"/>
<path d="M65.8949 85.1852C65.5862 85.1853 65.2804 85.1249 64.9952 85.0077C64.71 84.8905 64.4509 84.7188 64.2326 84.5022C64.0143 84.2856 63.8411 84.0284 63.723 83.7454C63.6049 83.4624 63.5441 83.1591 63.5442 82.8528V48.3512C63.5442 47.7326 63.7918 47.1394 64.2327 46.702C64.6735 46.2646 65.2715 46.0188 65.8949 46.0188C66.5184 46.0188 67.1163 46.2646 67.5572 46.702C67.9981 47.1394 68.2457 47.7326 68.2457 48.3512V82.8528C68.2457 83.1591 68.185 83.4624 68.0669 83.7454C67.9488 84.0284 67.7756 84.2856 67.5573 84.5022C67.339 84.7188 67.0798 84.8905 66.7946 85.0077C66.5093 85.1249 66.2037 85.1853 65.8949 85.1852Z" fill="#2B4968"/>
<path fill-rule="evenodd" clip-rule="evenodd" d="M66.8531 78.7731C65.9652 78.5851 65.0411 78.6626 64.1976 78.9958C63.354 79.329 62.629 79.9028 62.1142 80.6448C61.5994 81.3868 61.3179 82.2636 61.3054 83.1644C61.2928 84.0651 61.5497 84.9493 62.0437 85.7052C62.5376 86.461 63.2463 87.0546 64.0802 87.4109C64.9141 87.7671 65.8357 87.8699 66.7285 87.7064C67.6214 87.5429 68.4453 87.1204 69.0961 86.4923C69.7469 85.8642 70.1954 85.0587 70.3848 84.1777C70.6364 82.9966 70.406 81.7647 69.744 80.7517C69.0821 79.7387 68.0426 79.0273 66.8531 78.7731Z" fill="#4C8290"/>
<path fill-rule="evenodd" clip-rule="evenodd" d="M77.2772 0.0791016H54.5151C53.033 0.0791016 51.6115 0.663259 50.5634 1.70314C49.5154 2.74302 48.9265 4.15338 48.9265 5.624C48.9265 7.09461 49.5154 8.50497 50.5634 9.54485C51.6115 10.5847 53.033 11.169 54.5151 11.169H77.2772C78.7594 11.169 80.1808 10.5847 81.2289 9.54485C82.277 8.50497 82.8657 7.09461 82.8657 5.624C82.8657 4.15338 82.277 2.74302 81.2289 1.70314C80.1808 0.663259 78.7594 0.0791016 77.2772 0.0791016Z" fill="#546FFF"/>
<path fill-rule="evenodd" clip-rule="evenodd" d="M65.8952 33.678C65.5117 33.678 65.1439 33.8293 64.8727 34.0984C64.6015 34.3676 64.4492 34.7325 64.4492 35.1131V40.674C64.4492 41.0545 64.6016 41.4196 64.8728 41.6887C65.144 41.9578 65.5119 42.1089 65.8954 42.1089C66.2789 42.1089 66.6468 41.9578 66.918 41.6887C67.1892 41.4196 67.3415 41.0545 67.3415 40.674V35.1131C67.3415 34.7325 67.1891 34.3675 66.9179 34.0984C66.6467 33.8292 66.2788 33.678 65.8952 33.678Z" fill="#B8CAFB"/>
<path fill-rule="evenodd" clip-rule="evenodd" d="M65.8952 124.346C65.5117 124.346 65.1439 124.497 64.8727 124.766C64.6015 125.035 64.4492 125.4 64.4492 125.781V131.342C64.4492 131.723 64.6016 132.087 64.8728 132.357C65.144 132.626 65.5119 132.777 65.8954 132.777C66.2789 132.777 66.6468 132.626 66.918 132.357C67.1892 132.087 67.3415 131.723 67.3415 131.342V125.781C67.3415 125.4 67.1891 125.035 66.9179 124.766C66.6467 124.497 66.2788 124.346 65.8952 124.346Z" fill="#B8CAFB"/>
<path fill-rule="evenodd" clip-rule="evenodd" d="M115.835 83.2276C115.835 82.847 115.682 82.4819 115.411 82.2128C115.14 81.9436 114.772 81.7925 114.389 81.7925H108.784C108.4 81.7925 108.032 81.9437 107.761 82.2128C107.49 82.4819 107.338 82.8468 107.338 83.2274C107.338 83.6079 107.49 83.9729 107.761 84.242C108.032 84.5111 108.4 84.6623 108.784 84.6623H114.389C114.578 84.6623 114.766 84.6252 114.942 84.5531C115.117 84.481 115.277 84.3753 115.411 84.2421C115.545 84.1088 115.652 83.9507 115.725 83.7766C115.797 83.6025 115.835 83.416 115.835 83.2276Z" fill="#B8CAFB"/>
<path fill-rule="evenodd" clip-rule="evenodd" d="M24.4534 83.2276C24.4534 82.847 24.3011 82.4819 24.0298 82.2128C23.7586 81.9436 23.3907 81.7925 23.0072 81.7925H17.4025C17.0189 81.7925 16.651 81.9437 16.3798 82.2128C16.1086 82.4819 15.9563 82.8468 15.9563 83.2274C15.9563 83.6079 16.1086 83.9729 16.3798 84.242C16.651 84.5111 17.0189 84.6623 17.4025 84.6623H23.0072C23.1971 84.6623 23.3852 84.6252 23.5606 84.5531C23.7361 84.481 23.8955 84.3753 24.0298 84.2421C24.1641 84.1088 24.2707 83.9507 24.3433 83.7766C24.416 83.6025 24.4534 83.416 24.4534 83.2276Z" fill="#546FFF"/>
<path fill-rule="evenodd" clip-rule="evenodd" d="M30.5829 48.1908C30.3117 48.4599 30.1594 48.8248 30.1594 49.2054C30.1594 49.586 30.3117 49.951 30.5829 50.2201L34.5462 54.1524C34.8176 54.4209 35.1852 54.5716 35.5685 54.5714C35.9517 54.5711 36.3192 54.42 36.5902 54.1511C36.8612 53.8822 37.0136 53.5176 37.0138 53.1373C37.014 52.757 36.8622 52.3923 36.5915 52.1231L32.6282 48.1908C32.357 47.9217 31.9892 47.7705 31.6056 47.7705C31.2221 47.7705 30.8542 47.9217 30.5829 48.1908Z" fill="#B8CAFB"/>
<path fill-rule="evenodd" clip-rule="evenodd" d="M95.1995 112.302C94.9283 112.572 94.7759 112.936 94.7759 113.317C94.7759 113.698 94.9283 114.063 95.1995 114.332L99.1627 118.264C99.434 118.533 99.8017 118.683 100.185 118.683C100.568 118.683 100.936 118.532 101.207 118.263C101.478 117.994 101.63 117.629 101.63 117.249C101.631 116.869 101.479 116.504 101.208 116.235L97.2447 112.302C96.9735 112.033 96.6056 111.882 96.2221 111.882C95.8385 111.882 95.4707 112.033 95.1995 112.302Z" fill="#B8CAFB"/>
<path fill-rule="evenodd" clip-rule="evenodd" d="M101.208 48.1908C100.937 47.9217 100.569 47.7705 100.185 47.7705C99.8018 47.7705 99.4339 47.9217 99.1626 48.1908L95.1994 52.1231C94.9287 52.3923 94.7769 52.757 94.7771 53.1373C94.7773 53.5176 94.9296 53.8822 95.2006 54.1511C95.4716 54.42 95.8391 54.5711 96.2224 54.5714C96.6056 54.5716 96.9734 54.4209 97.2447 54.1524L101.208 50.2201C101.479 49.951 101.631 49.586 101.631 49.2054C101.631 48.8248 101.479 48.4599 101.208 48.1908Z" fill="#B8CAFB"/>
<path fill-rule="evenodd" clip-rule="evenodd" d="M36.5916 112.302C36.3203 112.033 35.9524 111.882 35.5689 111.882C35.1853 111.882 34.8176 112.033 34.5463 112.302L30.583 116.235C30.4484 116.368 30.3417 116.526 30.2688 116.7C30.1959 116.874 30.1583 117.061 30.1582 117.25C30.1581 117.438 30.1954 117.625 30.2681 117.799C30.3408 117.974 30.4473 118.132 30.5817 118.265C30.7161 118.399 30.8757 118.504 31.0514 118.576C31.227 118.649 31.4152 118.686 31.6053 118.686C31.7954 118.685 31.9835 118.648 32.1591 118.576C32.3346 118.504 32.494 118.398 32.6283 118.264L36.5916 114.332C36.8628 114.063 37.0151 113.698 37.0151 113.317C37.0151 112.936 36.8628 112.572 36.5916 112.302Z" fill="#B8CAFB"/>
</g>
</g>
<defs>
<clipPath id="clip0_48_606">
<rect width="520" height="507" fill="white" transform="translate(0 0.0791016)"/>
</clipPath>
<clipPath id="clip1_48_606">
<rect width="131.791" height="148.529" fill="white" transform="translate(0 0.0791016)"/>
</clipPath>
</defs>
</svg>
