<svg width="23" height="44" viewBox="0 0 23 44" fill="none" xmlns="http://www.w3.org/2000/svg">
<path d="M5.23324 43.1799C5.48573 43.3437 5.7777 43.4366 6.07894 43.449C6.38018 43.4614 6.67972 43.3929 6.94661 43.2504C7.2135 43.108 7.43801 42.8969 7.59691 42.6389C7.75582 42.3809 7.84334 42.0855 7.85042 41.7831C7.92866 38.3821 9.89295 35.1269 11.7925 31.9786C12.9738 30.1161 13.9931 28.1557 14.839 26.1193C15.0777 25.9979 15.314 25.8669 15.5458 25.7258C17.4606 24.4404 19.0701 22.7471 20.2584 20.7678C21.4467 18.7884 22.1842 16.5722 22.4179 14.2787C22.8377 10.0318 22.6232 5.74967 21.7816 1.57396C21.7143 1.12955 21.4736 0.731226 21.1123 0.466613C20.751 0.201999 20.2988 0.0927594 19.8552 0.162951C19.4115 0.233143 19.0128 0.47702 18.7467 0.8409C18.4806 1.20478 18.3689 1.65886 18.4362 2.10328C19.2157 5.95003 19.4295 9.89381 19.0709 13.8096C18.7363 16.4624 17.6466 18.967 15.9323 21.0231C15.9379 20.7896 15.9371 20.5542 15.9299 20.317C15.8712 18.9414 15.5333 17.594 14.9367 16.3571C14.3402 15.1202 13.4976 14.0199 12.4604 13.1234C11.706 12.4559 10.8176 11.9578 9.8542 11.6622C8.89084 11.3665 7.87452 11.2801 6.87272 11.4087C5.68536 11.614 4.57029 12.1268 3.63822 12.8962C2.70616 13.6656 1.98951 14.6648 1.55938 15.7947C0.99997 17.0714 0.77255 18.4678 0.898484 19.8527C1.02442 21.2376 1.49959 22.5655 2.27933 23.7117C3.25806 24.951 4.52969 25.9256 5.98022 26.548C7.43075 27.1705 9.01482 27.4213 10.5905 27.2781C10.0773 28.2611 9.49887 29.2455 8.90101 30.2353C6.86974 33.6017 4.56726 37.4172 4.46818 41.726C4.46143 42.0143 4.52817 42.2992 4.66204 42.5536C4.79591 42.808 4.99251 43.0236 5.23324 43.1799ZM12.1351 23.552C10.8918 23.9845 9.55057 24.0381 8.28144 23.7061C7.01231 23.374 5.87231 22.6711 5.00579 21.6865C4.56852 21.0142 4.30889 20.2407 4.2511 19.4383C4.19332 18.6358 4.33929 17.8305 4.67536 17.0975C4.88603 16.5159 5.24063 15.9967 5.70574 15.589C6.17086 15.1812 6.73112 14.8984 7.33377 14.767C7.86556 14.7093 8.40285 14.765 8.91023 14.9307C9.41761 15.0963 9.8836 15.3681 10.2775 15.7281C10.9525 16.3195 11.5013 17.0416 11.8913 17.8515C12.2814 18.6614 12.5047 19.5426 12.5481 20.4429C12.5707 21.4934 12.4314 22.5421 12.1351 23.552Z" fill="#546FFF"/>
</svg>
