<svg width="402" height="549" viewBox="0 0 402 549" fill="none" xmlns="http://www.w3.org/2000/svg">
<g clip-path="url(#clip0_52_700)">
<path d="M365.273 71.2156L217.923 67.2463H67.6504C58.0088 67.4346 48.8365 71.4373 42.1496 78.3748C35.4626 85.3123 31.8082 94.6168 31.9896 104.243V205.983C31.489 276.465 48.3216 345.992 81.0102 408.464C108.769 460.479 151.752 514.038 217.922 548.079C278.75 525.265 324.154 464.449 351.913 412.434C384.602 349.962 401.434 280.434 400.934 209.952V108.213C401.115 98.5861 397.461 89.2816 390.774 82.3441C384.087 75.4067 374.915 71.4039 365.273 71.2156Z" fill="#DFE4FF"/>
<path d="M212.825 309.32L158.3 264.281L176.682 242.098L209.549 269.249L263.328 207.634L285.068 226.55L212.825 309.32Z" fill="#546FFF"/>
<path d="M365.273 71.2156L217.923 67.2463H67.6504C58.0088 67.4346 48.8365 71.4373 42.1496 78.3748C35.4626 85.3123 31.8082 94.6168 31.9896 104.243V205.983C31.489 276.465 48.3216 345.992 81.0102 408.464C108.769 460.479 151.752 514.038 217.922 548.079C278.75 525.265 324.154 464.449 351.913 412.434C384.602 349.962 401.434 280.434 400.934 209.952V108.213C401.115 98.5861 397.461 89.2816 390.774 82.3441C384.087 75.4067 374.915 71.4039 365.273 71.2156ZM360.404 217.476C360.801 273.239 347.483 328.247 321.621 377.674C299.659 418.827 267.353 461.2 215.001 488.133C162.649 461.2 131.563 418.827 109.602 377.674C83.7393 328.247 70.4219 273.239 70.8179 217.476V136.983C70.6744 129.367 73.5656 122.005 78.8561 116.517C84.1466 111.028 91.4034 107.861 99.0316 107.712H332.191C339.819 107.861 347.076 111.028 352.366 116.516C357.657 122.005 360.548 129.367 360.404 136.983V217.476Z" fill="#546FFF"/>
<g clip-path="url(#clip1_52_700)">
<path d="M78.6142 50.6416L71.7656 50.5453L72.0263 31.8692C72.0141 25.2484 69.3781 18.9033 64.6976 14.2283C60.0172 9.55322 53.6751 6.93074 47.0652 6.93713C40.4553 6.94351 34.1184 9.57824 29.4469 14.2623C24.7755 18.9464 22.1517 25.2966 22.1522 31.9174L21.8914 50.6416L15.0427 50.5453L15.3036 31.8692C15.3174 23.43 18.6756 15.3416 24.6403 9.38131C30.605 3.42105 38.6881 0.07663 47.1133 0.0830169C55.5385 0.0894038 63.6166 3.44607 69.5723 9.41537C75.5279 15.3847 78.8739 23.4782 78.875 31.9174L78.6142 50.6416Z" fill="#546FFF"/>
<path d="M15.6537 41.54H79.2482C81.3038 41.54 83.3394 41.9456 85.2386 42.7336C87.1378 43.5215 88.8634 44.6765 90.317 46.1325C91.7706 47.5885 92.9236 49.317 93.7103 51.2193C94.497 53.1216 94.9019 55.1605 94.9019 57.2196V118.734C94.9019 122.893 93.2526 126.881 90.317 129.821C87.3814 132.762 83.3998 134.414 79.2482 134.414H15.6536C11.502 134.414 7.52045 132.762 4.58483 129.821C1.64921 126.881 0 122.893 0 118.734L0 57.2196C0 53.0611 1.64922 49.073 4.58486 46.1325C7.52049 43.192 11.5021 41.54 15.6537 41.54Z" fill="#546FFF"/>
<g opacity="0.3">
<path d="M56.9114 83.0797C56.9133 81.4281 56.4843 79.8048 55.6668 78.3705C54.8493 76.9362 53.6718 75.7408 52.2509 74.9029C50.8301 74.0649 49.2153 73.6134 47.5666 73.5932C45.9179 73.573 44.2925 73.9848 42.8516 74.7877C41.4107 75.5906 40.2044 76.7567 39.3521 78.1705C38.4998 79.5843 38.0312 81.1967 37.9928 82.8478C37.9544 84.499 38.3474 86.1314 39.1329 87.5835C39.9185 89.0356 41.0693 90.2568 42.4712 91.1261L40.0483 102.35H55.566C55.566 102.35 53.8216 95.2993 52.724 90.9476C54.0135 90.0816 55.0701 88.9107 55.8004 87.5384C56.5308 86.1661 56.9123 84.6348 56.9114 83.0797Z" fill="white"/>
</g>
<g opacity="0.2">
<path d="M6.07534 106.255C5.45982 106.242 5.18734 95.406 5.46659 82.0549C5.74593 68.6993 6.4711 57.8866 7.08671 57.8994C7.70189 57.9124 7.97456 68.7462 7.69523 82.1017C7.41597 95.4527 6.69052 106.268 6.07534 106.255Z" fill="white"/>
</g>
<g opacity="0.2">
<path d="M6.14506 116.998C5.52928 117.006 5.01649 115.951 4.99946 114.642C4.98242 113.333 5.46748 112.266 6.08317 112.258C6.69843 112.25 7.21131 113.304 7.22843 114.613C7.24547 115.922 6.76024 116.99 6.14506 116.998Z" fill="white"/>
</g>
<g opacity="0.2">
<path d="M35.9166 103.869C35.4248 103.708 36.5819 98.771 38.5993 92.1991L38.8486 93.2857C37.9387 92.3731 36.9849 91.4176 35.9909 90.3678C34.4594 88.6103 33.5594 86.3899 33.4342 84.0605C33.3302 82.1909 33.7687 80.3311 34.6966 78.7055C35.2912 77.6335 36.1125 76.7047 37.1032 75.9841C37.8084 75.4968 38.2759 75.3687 38.3603 75.4869C38.5816 75.759 37.1313 76.9062 36.1127 79.399C35.4702 80.9654 35.2732 82.6793 35.5434 84.351C35.8137 86.0226 36.5407 87.5866 37.6439 88.8698C38.6011 89.8826 39.5288 90.8642 40.3986 91.7846L40.8571 92.2697L40.648 92.8714C38.3918 99.3649 36.4079 104.031 35.9166 103.869Z" fill="white"/>
</g>
<g opacity="0.2">
<path d="M75.0916 47.9927C75.0893 48.301 71.2991 48.5514 65.1736 48.7067C59.0481 48.8622 50.5874 48.9227 41.2438 48.8517C36.5704 48.8161 32.1188 48.751 28.0702 48.6637C24.0177 48.6169 20.3592 48.3281 17.4396 48.6336C15.1239 48.804 12.8892 49.5602 10.9449 50.8316C9.58738 51.764 9.02544 52.5487 8.87528 52.4428C8.76837 52.3871 9.08864 51.4018 10.3998 50.1554C12.322 48.477 14.6955 47.4037 17.2236 47.0697C18.9138 46.808 20.6211 46.6737 22.3313 46.6679C24.1361 46.6486 26.0614 46.6281 28.0858 46.6064C32.1352 46.5807 36.5874 46.5834 41.2607 46.6189C50.6042 46.69 59.0632 46.8794 65.1856 47.128C71.308 47.3766 75.094 47.6845 75.0916 47.9927Z" fill="white"/>
</g>
</g>
</g>
<defs>
<clipPath id="clip0_52_700">
<rect width="402" height="548" fill="white" transform="translate(0 0.0791016)"/>
</clipPath>
<clipPath id="clip1_52_700">
<rect width="94.9019" height="134.335" fill="white" transform="translate(0 0.0791016)"/>
</clipPath>
</defs>
</svg>
