<svg width="438" height="603" viewBox="0 0 438 603" fill="none" xmlns="http://www.w3.org/2000/svg">
<path d="M387.447 8.70996H50.5531C27.0517 8.70996 8 27.7616 8 51.2631V551.526C8 575.028 27.0517 594.079 50.5531 594.079H387.447C410.948 594.079 430 575.028 430 551.526V51.2631C430 27.7616 410.948 8.70996 387.447 8.70996Z" fill="#F2FFF9"/>
<path d="M387.447 4.70996H50.5531C24.8425 4.70996 4 25.5525 4 51.2631V551.526C4 577.237 24.8425 598.079 50.5531 598.079H387.447C413.157 598.079 434 577.237 434 551.526V51.2631C434 25.5525 413.157 4.70996 387.447 4.70996Z" stroke="#546FFF" stroke-opacity="0.29" stroke-width="8"/>
<path d="M132.937 1V22.4895C132.934 28.1862 135.195 33.6506 139.221 37.6807C143.247 41.7107 148.71 43.9762 154.406 43.9788H269.729C272.549 43.9776 275.342 43.4207 277.948 42.3401C280.553 41.2595 282.92 39.6762 284.914 37.6807C286.908 35.6853 288.489 33.3167 289.567 30.7101C290.645 28.1036 291.2 25.3103 291.198 22.4895V1H132.937Z" fill="#546FFF"/>
<path d="M97.9923 119.314H92V91.5701H97.9923V119.314Z" fill="#546FFF"/>
<path d="M131.285 119.314H125.293L113.628 101.059V119.314H107.636V91.5701H113.628L125.313 109.863V91.5701H131.285V119.314Z" fill="#546FFF"/>
<path d="M155.69 112.036C155.696 111.591 155.622 111.148 155.47 110.73C155.291 110.3 154.997 109.928 154.621 109.654C154.085 109.258 153.502 108.931 152.884 108.682C151.947 108.294 150.99 107.957 150.017 107.672C148.738 107.285 147.48 106.827 146.252 106.3C145.147 105.835 144.106 105.23 143.156 104.499C142.306 103.848 141.593 103.036 141.059 102.108C140.529 101.139 140.264 100.048 140.29 98.9447C140.278 97.8371 140.549 96.7449 141.079 95.7721C141.62 94.7963 142.378 93.9584 143.296 93.3234C144.331 92.6114 145.479 92.0798 146.691 91.7514C148.1 91.364 149.555 91.1749 151.016 91.1895C152.505 91.1714 153.988 91.3868 155.41 91.8278C156.637 92.2048 157.782 92.8092 158.786 93.6095C159.696 94.3445 160.433 95.2717 160.943 96.3248C161.455 97.3985 161.714 98.5748 161.702 99.7641H155.71C155.715 99.2109 155.617 98.6615 155.42 98.1445C155.23 97.6539 154.926 97.2161 154.531 96.8677C154.094 96.4913 153.584 96.2091 153.033 96.0387C152.348 95.8294 151.633 95.7298 150.916 95.7434C150.225 95.7316 149.536 95.815 148.869 95.9913C148.35 96.127 147.862 96.3598 147.43 96.6771C147.068 96.9488 146.774 97.3012 146.572 97.7063C146.379 98.0974 146.28 98.5278 146.282 98.9638C146.282 99.8784 146.771 100.644 147.75 101.26C149.099 102.028 150.548 102.609 152.054 102.984C153.487 103.397 154.886 103.92 156.239 104.547C157.333 105.046 158.349 105.701 159.255 106.491C160.026 107.169 160.649 107.999 161.083 108.929C161.509 109.895 161.72 110.942 161.702 111.997C161.722 113.128 161.465 114.247 160.953 115.256C160.446 116.217 159.717 117.044 158.826 117.666C157.816 118.362 156.69 118.872 155.5 119.172C154.081 119.536 152.62 119.712 151.156 119.696C150.192 119.695 149.23 119.616 148.279 119.457C147.342 119.304 146.422 119.059 145.533 118.724C144.68 118.403 143.866 117.988 143.106 117.485C142.373 117.002 141.716 116.411 141.159 115.732C140.598 115.046 140.159 114.27 139.86 113.436C139.538 112.521 139.379 111.557 139.391 110.587H145.403C145.382 111.321 145.525 112.05 145.823 112.722C146.086 113.286 146.488 113.774 146.991 114.141C147.535 114.523 148.149 114.792 148.799 114.932C149.572 115.104 150.363 115.187 151.156 115.18C151.836 115.191 152.514 115.111 153.173 114.942C153.682 114.812 154.163 114.589 154.591 114.284C154.947 114.025 155.232 113.681 155.42 113.284C155.601 112.892 155.693 112.466 155.69 112.036Z" fill="#546FFF"/>
<path d="M191.859 91.5701V109.882C191.888 111.339 191.602 112.785 191.02 114.122C190.49 115.309 189.698 116.361 188.703 117.199C187.666 118.053 186.467 118.688 185.178 119.066C182.254 119.905 179.153 119.905 176.229 119.066C174.94 118.688 173.741 118.053 172.704 117.199C171.71 116.362 170.921 115.31 170.397 114.122C169.821 112.783 169.539 111.338 169.568 109.882V91.5701H175.56V109.882C175.56 111.699 176.016 113.023 176.928 113.855C177.84 114.687 179.102 115.103 180.714 115.103C182.338 115.103 183.6 114.687 184.499 113.855C185.397 113.023 185.847 111.698 185.847 109.882V91.5701H191.859Z" fill="#546FFF"/>
<path d="M211.629 109.158H206.856V119.314H200.864V91.5705H211.67C213.192 91.5512 214.71 91.7337 216.184 92.1134C217.403 92.4216 218.549 92.9653 219.559 93.7139C220.466 94.4039 221.192 95.3029 221.677 96.3342C222.189 97.471 222.442 98.7078 222.416 99.9545C222.428 100.879 222.307 101.8 222.056 102.689C221.833 103.46 221.482 104.188 221.018 104.842C220.561 105.474 220.009 106.03 219.38 106.49C218.71 106.978 217.986 107.387 217.222 107.71L223.514 119.048V119.314H217.083L211.629 109.158ZM206.856 104.528H211.69C212.39 104.54 213.088 104.441 213.757 104.232C214.304 104.062 214.808 103.776 215.235 103.394C215.626 103.035 215.93 102.592 216.124 102.098C216.33 101.56 216.432 100.988 216.424 100.412C216.454 99.8443 216.366 99.2766 216.165 98.7451C215.964 98.2135 215.654 97.7299 215.255 97.3251C214.476 96.5757 213.281 96.2009 211.67 96.2008H206.856V104.528Z" fill="#546FFF"/>
<path d="M247.48 113.598H236.973L234.976 119.314H228.604L239.43 91.5701H244.983L255.869 119.314H249.497L247.48 113.598ZM238.591 108.967H245.862L242.206 98.5822L238.591 108.967Z" fill="#546FFF"/>
<path d="M286.325 119.314H280.333L268.668 101.059V119.314H262.676V91.5701H268.668L280.353 109.863V91.5701H286.325V119.314Z" fill="#546FFF"/>
<path d="M318.48 110.072C318.389 111.418 318.051 112.736 317.481 113.959C316.933 115.126 316.143 116.162 315.164 116.999C314.107 117.883 312.89 118.556 311.579 118.98C310.027 119.479 308.404 119.721 306.775 119.695C305.056 119.722 303.348 119.408 301.751 118.771C300.307 118.183 299.016 117.274 297.976 116.113C296.905 114.889 296.096 113.459 295.599 111.911C295.025 110.123 294.745 108.253 294.77 106.375V104.546C294.744 102.663 295.035 100.789 295.63 99.0014C296.145 97.4478 296.971 96.015 298.056 94.7901C299.11 93.6282 300.41 92.7167 301.861 92.1225C303.447 91.4821 305.145 91.1647 306.855 91.1889C308.486 91.1608 310.11 91.4087 311.658 91.9224C312.963 92.3614 314.168 93.0543 315.204 93.9611C316.172 94.8258 316.948 95.884 317.481 97.0674C318.037 98.3076 318.388 99.6301 318.52 100.983H312.527C312.477 100.236 312.326 99.4986 312.078 98.7917C311.866 98.1894 311.521 97.6424 311.069 97.191C310.588 96.735 310.007 96.3988 309.372 96.2097C308.555 95.9702 307.706 95.8577 306.855 95.8762C304.83 95.8762 303.322 96.5781 302.331 97.982C301.338 99.3858 300.842 101.561 300.843 104.508V106.375C300.827 107.641 300.937 108.905 301.172 110.149C301.345 111.108 301.697 112.026 302.211 112.854C302.66 113.558 303.296 114.122 304.048 114.483C304.905 114.867 305.837 115.053 306.775 115.027C307.601 115.042 308.425 114.939 309.222 114.722C309.856 114.546 310.443 114.23 310.94 113.798C311.41 113.368 311.776 112.837 312.008 112.245C312.277 111.549 312.439 110.816 312.487 110.072H318.48Z" fill="#546FFF"/>
<path d="M344.003 107.29H332.498V114.722H346V119.314H326.505V91.5701H345.96V96.2004H332.498V102.812H344.003V107.29Z" fill="#546FFF"/>
<path d="M235.423 567.472C228.729 569.641 222.198 570.773 217.064 570.346C209.237 569.693 204.829 565.592 204.655 558.797C204.515 553.406 206.754 548.684 211.14 544.855C211.098 544.488 211.063 544.12 211.035 543.75C210.747 539.949 211.559 537.423 213.448 536.244C216.505 534.339 221.045 536.945 221.236 537.057L220.221 538.793C219.204 538.201 216.181 536.898 214.51 537.95C213.069 538.853 212.895 541.34 213.022 543.361C216.592 540.779 221.254 538.669 226.938 537.134C231.234 535.998 235.622 535.249 240.05 534.894C240.073 534.42 240.112 533.996 240.163 533.651C240.301 532.717 240.626 531.626 241.543 531.407C241.89 531.33 242.564 531.339 243.164 532.255C243.581 533 243.794 533.842 243.78 534.696C245.237 534.663 246.591 534.689 247.79 534.777C247.801 534.751 247.812 534.726 247.823 534.7C247.568 532.364 247.673 530.003 248.133 527.699C248.641 525.372 249.476 524.195 250.647 524.081C250.984 524.047 251.323 524.125 251.612 524.303C251.9 524.481 252.121 524.75 252.241 525.067C252.896 526.644 251.668 530.908 249.89 534.999C249.891 535.006 249.892 535.013 249.894 535.021C251.561 535.302 252.692 535.763 253.049 536.409C253.213 536.72 253.263 537.08 253.189 537.425C253.115 537.77 252.921 538.078 252.643 538.294C251.297 539.534 250.223 539.223 249.702 538.925C249.232 538.627 248.858 538.198 248.626 537.692C247.28 540.352 245.815 542.628 244.663 543.591C244.362 543.892 243.971 544.087 243.55 544.149C243.128 544.21 242.698 544.134 242.324 543.931C242.135 543.822 241.963 543.685 241.815 543.525C241.373 544.612 240.862 545.67 240.284 546.692C238.182 550.384 235.813 552.283 233.435 552.169C232.468 552.124 231.553 551.719 230.87 551.033C229.641 553.736 228.093 556.282 226.259 558.617C224.587 560.678 222.456 561.434 220.253 560.746C216.354 559.528 212.827 553.886 211.506 547.202C208.173 550.461 206.551 554.321 206.664 558.746C206.814 564.542 210.369 567.77 217.23 568.343C234.548 569.784 264.913 553.683 267.215 541.836C265.343 551.469 250.935 562.445 235.423 567.472ZM213.271 545.659C214.326 552.711 217.857 557.891 220.852 558.827C222.257 559.266 223.551 558.767 224.696 557.352C226.686 554.831 228.315 552.046 229.537 549.077C229.16 548.237 228.88 547.357 228.701 546.453C228.216 544.129 228.137 540.939 228.71 538.751C225.449 539.535 222.274 540.641 219.231 542.051C217.115 543.026 215.116 544.237 213.271 545.659ZM231.759 548.957C231.934 549.285 232.187 549.567 232.495 549.776C232.803 549.986 233.157 550.118 233.527 550.161C235.049 550.225 236.88 548.603 238.539 545.696C239.38 544.205 240.074 542.637 240.613 541.012C240.283 539.673 240.094 538.303 240.048 536.925C237.82 537.103 235.39 537.405 232.889 537.858C234.193 540.396 233.438 544.685 231.759 548.957ZM242.71 541.047C243.023 541.993 243.304 542.176 243.307 542.177C244.429 541.212 245.713 539.121 246.882 536.74C245.927 536.704 244.852 536.699 243.68 536.729C243.487 538.195 243.163 539.64 242.71 541.047ZM230.91 538.464C230.401 539.531 230.032 542.945 230.654 545.981C231.663 542.65 231.87 539.769 230.91 538.464ZM250.703 537.181C250.707 537.185 250.71 537.182 250.714 537.184C250.71 537.184 250.707 537.183 250.703 537.181ZM250.406 526.865C250.187 527.551 250.027 528.255 249.929 528.969C250.137 528.28 250.296 527.577 250.406 526.865Z" fill="#546FFF"/>
<path d="M134.734 270.25H58.4114V193.927H134.734V270.25ZM62.0062 266.655H131.14V197.522H62.0062V266.655Z" fill="#ABDDDA"/>
<path d="M98.4688 254.909C97.6748 254.909 96.8906 254.734 96.1723 254.395C95.454 254.057 94.8192 253.565 94.3132 252.953L70.7613 224.462C70.3094 223.916 69.9695 223.287 69.761 222.61C69.5525 221.933 69.4795 221.221 69.5461 220.516C69.6128 219.81 69.8177 219.125 70.1494 218.499C70.481 217.873 70.9327 217.318 71.4788 216.867C72.0248 216.415 72.6545 216.076 73.3318 215.868C74.0091 215.66 74.7208 215.588 75.4261 215.655C76.1313 215.722 76.8165 215.928 77.4423 216.26C78.0681 216.592 78.6223 217.044 79.0733 217.591L97.7518 240.186L131.542 183.473C132.274 182.245 133.464 181.359 134.85 181.009C136.236 180.658 137.704 180.872 138.932 181.604C140.16 182.336 141.048 183.525 141.399 184.911C141.75 186.296 141.537 187.765 140.807 188.993L103.102 252.277C102.66 253.019 102.045 253.644 101.311 254.099C100.577 254.555 99.744 254.827 98.8825 254.893C98.7443 254.904 98.6062 254.909 98.4688 254.909Z" fill="#546FFF"/>
<path d="M134.734 389.588H58.4114V313.265H134.734V389.588ZM62.0062 385.993H131.14V316.86H62.0062V385.993Z" fill="#ABDDDA"/>
<path d="M98.4688 373.589C97.6748 373.589 96.8907 373.414 96.1723 373.076C95.454 372.738 94.8192 372.245 94.3132 371.633L70.7613 343.142C70.3098 342.596 69.9702 341.967 69.762 341.29C69.5537 340.613 69.4809 339.902 69.5477 339.196C69.6145 338.491 69.8195 337.806 70.1511 337.18C70.4827 336.554 70.9344 336 71.4804 335.549C72.0263 335.097 72.6558 334.758 73.3329 334.55C74.0099 334.342 74.7213 334.27 75.4264 334.337C76.1315 334.404 76.8165 334.609 77.4423 334.941C78.068 335.273 78.6222 335.725 79.0733 336.271L97.7517 358.866L131.542 302.153C131.904 301.545 132.383 301.014 132.95 300.591C133.518 300.167 134.163 299.86 134.85 299.686C135.536 299.512 136.25 299.475 136.951 299.577C137.652 299.679 138.326 299.918 138.934 300.281C139.542 300.643 140.073 301.122 140.497 301.69C140.92 302.257 141.227 302.903 141.401 303.589C141.575 304.276 141.612 304.99 141.51 305.69C141.408 306.391 141.169 307.065 140.807 307.673L103.102 370.957C102.66 371.699 102.045 372.324 101.311 372.78C100.577 373.235 99.7439 373.507 98.8825 373.573C98.7443 373.584 98.6062 373.589 98.4688 373.589Z" fill="#546FFF"/>
<path d="M134.734 506.453H58.4114V430.13H134.734V506.453ZM62.0062 502.859H131.14V433.725H62.0062V502.859Z" fill="#ABDDDA"/>
<path d="M98.4686 489.332C97.6747 489.332 96.8905 489.156 96.1722 488.818C95.4538 488.48 94.819 487.987 94.3131 487.376L70.7611 458.884C69.851 457.782 69.4159 456.363 69.5514 454.94C69.6869 453.517 70.3819 452.206 71.4837 451.296C72.5855 450.385 74.0038 449.949 75.427 450.083C76.8501 450.218 78.1616 450.912 79.0731 452.013L97.7516 474.608L131.541 417.896C132.273 416.667 133.464 415.779 134.85 415.428C136.236 415.077 137.705 415.291 138.934 416.023C140.163 416.755 141.05 417.945 141.401 419.332C141.753 420.718 141.539 422.187 140.806 423.416L103.101 486.699C102.659 487.442 102.045 488.067 101.311 488.522C100.577 488.977 99.7438 489.25 98.8823 489.316C98.7442 489.327 98.606 489.332 98.4686 489.332Z" fill="#546FFF"/>
<g opacity="0.5">
<path d="M285.693 211.736H186.171V219.182H285.693V211.736Z" fill="#546FFF" fill-opacity="0.37"/>
<path d="M370.257 211.736H347.637V219.182H370.257V211.736Z" fill="#546FFF" fill-opacity="0.37"/>
<path d="M285.693 244.996H186.171V252.442H285.693V244.996Z" fill="#546FFF" fill-opacity="0.37"/>
<path d="M370.257 244.996H336.534V252.442H370.257V244.996Z" fill="#546FFF" fill-opacity="0.37"/>
<path d="M370.257 228.366H342.539V235.812H370.257V228.366Z" fill="#546FFF" fill-opacity="0.37"/>
<path d="M287.416 228.366H259.698V235.812H287.416V228.366Z" fill="#546FFF" fill-opacity="0.37"/>
<path d="M247.761 228.366H186.171V235.812H247.761V228.366Z" fill="#546FFF" fill-opacity="0.37"/>
</g>
<g opacity="0.5">
<path d="M281.894 326.351H186.171V333.798H281.894V326.351Z" fill="#546FFF" fill-opacity="0.37"/>
<path d="M285.693 359.611H186.171V367.057H285.693V359.611Z" fill="#546FFF" fill-opacity="0.37"/>
<path d="M280.654 342.981H254.898V350.428H280.654V342.981Z" fill="#546FFF" fill-opacity="0.37"/>
<path d="M247.761 342.981H186.171V350.428H247.761V342.981Z" fill="#546FFF" fill-opacity="0.37"/>
</g>
<g opacity="0.5">
<path d="M285.693 444.215H186.171V451.662H285.693V444.215Z" fill="#546FFF" fill-opacity="0.37"/>
<path d="M285.693 477.475H186.171V484.921H285.693V477.475Z" fill="#546FFF" fill-opacity="0.37"/>
<path d="M298.179 460.845H254.898V468.291H298.179V460.845Z" fill="#546FFF" fill-opacity="0.37"/>
<path d="M247.761 460.845H186.171V468.291H247.761V460.845Z" fill="#546FFF" fill-opacity="0.37"/>
</g>
<path d="M110.622 547.254H58.4114V552.539H110.622V547.254Z" fill="#546FFF" fill-opacity="0.37"/>
<path d="M174.926 547.254H122.715V552.539H174.926V547.254Z" fill="#546FFF" fill-opacity="0.37"/>
<path d="M130.822 558.981H58.4114V564.266H130.822V558.981Z" fill="#546FFF" fill-opacity="0.37"/>
</svg>
